<svg xmlns="http://www.w3.org/2000/svg" viewBox="0 0 512 512" width="512" height="512" class="svg_sticker_animation" preserveAspectRatio="xMidYMid meet" style="width: 100%; height: 100%;"><defs><clipPath id="animationMask_SEcmusYh4q"><rect width="512" height="512" x="0" y="0"></rect></clipPath></defs><g clip-path="url(#animationMask_SEcmusYh4q)"><g transform="matrix(1,0,0,1,0,20)" opacity="1" style="user-select: none;"><g opacity="1" transform="matrix(1,0,0,1,258.279,405.432)"><path fill="rgb(244,73,130)" fill-opacity="1" d="M0 0 M-175.57,21.716 C-169.293,14.989 -160.373,10.76 -150.446,10.76 C-135.328,10.76 -122.51700000000001,20.526000000000003 -117.906,34.082 C-114.289,33.014 -110.465,32.415 -106.501,32.415 C-92.93,32.415 -80.978,39.175 -73.726,49.488 C-44.985,41.189 -14.614,36.726 16.801,36.726 C46.152,36.726 74.58699999999999,40.632999999999996 101.639,47.913 C108.969,38.486999999999995 120.40199999999999,32.415 133.271,32.415 C135.88299999999998,32.415 138.43099999999998,32.684 140.904,33.163 C143.801,18.924999999999997 156.392,8.212 171.483,8.212 C176.798,8.212 181.796,9.546999999999999 186.177,11.892 C186.15099999999998,11.305 186.13,10.714 186.13,10.121 C186.13,2.575 188.16,-4.496 191.686,-10.586 C138.60000000000002,-35.526 79.337,-49.488 16.801,-49.488 C-59.28099999999999,-49.488 -130.531,-28.831 -191.686,7.145 C-185.055,10.407 -179.47,15.482000000000001 -175.57,21.716z"></path></g><g opacity="1" transform="matrix(1,0,0,1,260.777,410.22)"><path fill="rgb(255,144,33)" fill-opacity="1" d="M0 0 M-178.068,16.928 C-171.79100000000003,10.201 -162.87099999999998,5.972 -152.944,5.972 C-137.826,5.972 -125.015,15.738000000000001 -120.404,29.294 C-116.78699999999999,28.226 -112.963,27.627 -108.999,27.627 C-95.428,27.627 -83.476,34.387 -76.224,44.7 C-47.483000000000004,36.401 -17.112,31.938 14.303,31.938 C43.653999999999996,31.938 72.09,35.845 99.142,43.125 C106.472,33.699 117.904,27.627 130.773,27.627 C133.385,27.627 135.933,27.895 138.406,28.374 C141.303,14.136 153.894,3.424 168.985,3.424 C174.3,3.424 179.298,4.759 183.679,7.104 C183.653,6.517 183.633,5.926 183.633,5.333 C183.633,1.1920000000000002 184.247,-2.805 185.381,-6.58 C133.463,-31.014000000000003 75.486,-44.7 14.303,-44.7 C-58.373000000000005,-44.7 -126.542,-25.42 -185.381,8.296 C-182.557,10.809 -180.08200000000002,13.707 -178.068,16.928z"></path></g><g opacity="1" transform="matrix(1,0,0,1,275.102,416.322)"><path fill="rgb(255,233,31)" fill-opacity="1" d="M0 0 M-167.269,-0.13 C-152.151,-0.13 -139.34,9.636000000000001 -134.729,23.192 C-131.11200000000002,22.124 -127.288,21.525 -123.324,21.525 C-109.753,21.525 -97.801,28.284999999999997 -90.549,38.599 C-61.80800000000001,30.298999999999996 -31.436999999999998,25.836 -0.022,25.836 C29.329,25.836 57.76499999999999,29.743000000000002 84.817,37.023 C92.14699999999999,27.597 103.579,21.525 116.448,21.525 C119.05999999999999,21.525 121.608,21.793 124.081,22.272 C126.97800000000001,8.033999999999999 139.56799999999998,-2.678 154.659,-2.678 C159.974,-2.678 169.33499999999998,0.325 169.326,-0.013 C118.109,-24.738000000000003 60.662,-38.599 -0.022,-38.599 C-60.698,-38.599 -118.138,-24.74 -169.353,-0.02 C-168.66,-0.063 -167.972,-0.13 -167.269,-0.13z"></path></g><g opacity="1" transform="matrix(1,0,0,1,270.435,422.338)"><path fill="rgb(21,219,58)" fill-opacity="1" d="M0 0 M-130.062,17.177 C-126.44500000000001,16.108999999999998 -122.621,15.51 -118.657,15.51 C-105.086,15.51 -93.134,22.269999999999996 -85.882,32.583 C-57.141000000000005,24.282999999999998 -26.77,19.821 4.645,19.821 C33.995999999999995,19.821 62.431999999999995,23.727999999999998 89.484,31.008 C96.814,21.581 108.246,15.51 121.115,15.51 C123.72699999999999,15.51 126.27499999999999,15.778000000000002 128.748,16.257 C130.691,6.707000000000001 137.004,-1.2349999999999994 145.5,-5.443 C101.964,-22.938000000000002 54.43299999999999,-32.583 4.645,-32.583 C-48.709999999999994,-32.583 -99.47200000000001,-21.504 -145.501,-1.559 C-138.326,2.5759999999999996 -132.77100000000002,9.210999999999999 -130.062,17.177z"></path></g><g opacity="1" transform="matrix(1,0,0,1,270.109,428.355)"><path fill="rgb(10,227,244)" fill-opacity="1" d="M0 0 M-129.736,11.16 C-126.11899999999999,10.092 -122.295,9.493 -118.331,9.493 C-104.76,9.493 -92.80799999999999,16.253 -85.556,26.566 C-56.815,18.266 -26.444,13.804 4.971,13.804 C34.322,13.804 62.758,17.711 89.81,24.991 C97.14,15.564 108.572,9.493 121.441,9.493 C124.053,9.493 126.60100000000001,9.761000000000001 129.074,10.24 C130.056,5.414000000000001 132.171,1.0099999999999998 135.1,-2.725 C94.66499999999999,-18.114 50.80800000000001,-26.566 4.971,-26.566 C-44.650000000000006,-26.566 -91.952,-16.671 -135.1,1.221 C-132.807,4.192 -130.97,7.534000000000001 -129.736,11.16z"></path></g><g opacity="1" transform="matrix(1,0,0,1,273.955,434.184)"><path fill="rgb(31,197,255)" fill-opacity="1" d="M0 0 M-122.176,3.664 C-110.941,3.664 -100.8,8.29 -93.529,15.737 C-89.743,19.611 -0.54,-0.185 -0.54,-0.185 C-0.54,-0.185 85.61699999999999,18.916 89.814,14.873 C97.01299999999999,7.932999999999999 106.8,3.664 117.594,3.664 C120.207,3.664 122.756,3.9319999999999995 125.228,4.411 C125.327,3.9209999999999994 125.465,3.449 125.589,2.969 C86.877,-11.613000000000001 44.937,-19.611 1.125,-19.611 C-43.538,-19.611 -86.253,-11.3 -125.589,3.827 C-124.462,3.7279999999999998 -123.328,3.664 -122.176,3.664z"></path></g><g opacity="1" transform="matrix(1,0,0,1,272.847,441.585)"><path fill="rgb(164,28,244)" fill-opacity="1" d="M0 0 M-88.294,13.336 C-59.553,5.036 -29.183,0.573 2.233,0.573 C31.583000000000002,0.573 60.02,4.480999999999999 87.072,11.761 C90.534,7.308999999999999 94.921,3.6270000000000002 99.932,0.959 C68.988,-8.325000000000001 36.199,-13.336 2.233,-13.336 C-33.368,-13.336 -67.686,-7.843 -99.932,2.317 C-95.351,5.178000000000001 -91.39399999999999,8.929 -88.294,13.336z"></path></g><g opacity="1" transform="matrix(1,0,0,1,257.823,404.766)"><path stroke-linecap="round" stroke-linejoin="round" fill-opacity="0" stroke="rgb(62,9,39)" stroke-opacity="1" stroke-width="3.757" d="M0 0 M192.183,-11.077 C139.06799999999998,-35.958 79.787,-49.859 17.256,-49.859 C-59.18899999999999,-49.859 -130.78099999999998,-29.081000000000003 -192.182,7.134M0 0 M-72.281,49.858 C-43.833000000000006,41.739999999999995 -13.794999999999998,37.393 17.257,37.393 C46.42,37.393 74.689,41.226 101.583,48.418"></path></g></g><g transform="matrix(1,0,0,1,0,20)" opacity="1" style="user-select: none;"><g opacity="1" transform="matrix(1,0,0,1,418.617,426.062)"><path stroke-linecap="round" stroke-linejoin="round" fill-opacity="0" stroke="rgb(62,9,39)" stroke-opacity="1" stroke-width="3.757" d="M0 0 M67.194,-51.91 C44.33,-51.91 25.793,-33.375 25.793,-10.509 C25.793,-9.916 25.811999999999998,-9.325 25.839,-8.738 C21.458,-11.083 16.46,-12.418 11.144,-12.418 C-3.946999999999999,-12.418 -16.537,-1.7059999999999995 -19.435,12.532 C-21.907999999999998,12.053 -24.455000000000002,11.785 -27.068,11.785 C-49.228,11.785 -67.195,29.749999999999996 -67.195,51.91"></path></g><g opacity="1" transform="matrix(1,0,0,1,108.523,443.26)"><path stroke-linecap="round" stroke-linejoin="round" fill-opacity="0" stroke="rgb(62,9,39)" stroke-opacity="1" stroke-width="3.757" d="M0 0 M83.38,34.713 C83.38,12.553 65.415,-5.412 43.255,-5.412 C39.291000000000004,-5.412 35.467,-4.813000000000001 31.85,-3.745 C27.238,-17.302 14.428,-27.067 -0.69,-27.067 C-10.618,-27.067 -19.537,-22.838 -25.814,-16.111 C-32.792,-27.269 -45.153,-34.713 -59.283,-34.713 C-68.355,-34.713 -76.714,-31.655 -83.38,-26.512"></path></g></g><g transform="matrix(1,0,0,1,0,0)" opacity="1" style="user-select: none;"><g opacity="1" transform="matrix(1,0,0,1,191.606,89.355)"><path fill="rgb(255,210,217)" fill-opacity="1" d="M0 0 M28.947,13.484 C28.947,13.484 6.654,-17.405 -4.811,-18.361 C-16.275,-19.314 -28.947,-9.285 -23.279,4.568 C-17.546,18.58 -4.395,19.314 -4.395,19.314"></path></g><g opacity="1" transform="matrix(1,0,0,1,189.911,83.017)"><path fill="rgb(248,174,198)" fill-opacity="1" d="M0 0 M3.253,-1.514 C9.939,5.491 14.717,12.498 14.717,12.498 C14.717,12.498 18.733,5.02 18.733,5.02 C11.601,-3.0600000000000005 2.8,-11.529 -3.117,-12.023 C-8.829,-12.498 -14.840000000000002,-10.243 -18.734,-6.149 C-18.535,-6.035 -18.404,-5.973 -18.404,-5.973 C-18.404,-5.973 -3.434,-8.517 3.253,-1.514z"></path></g><g opacity="1" transform="matrix(1,0,0,1,193.643,98.38)"><path fill="rgb(241,150,168)" fill-opacity="1" d="M0 0 M12.197,-1.464 C12.074,-1.717 5.033999999999999,-12.418 -4.618,-12.418 C-13.534,-12.418 -13.311,-0.9539999999999997 -1.21,7.643 C-1.21,7.643 13.534,12.418 13.534,12.418 C13.534,12.418 12.197,-1.464 12.197,-1.464z"></path></g><g opacity="1" transform="matrix(1,0,0,1,185.236,89.354)"><path stroke-linecap="round" stroke-linejoin="round" fill-opacity="0" stroke="rgb(62,9,39)" stroke-opacity="1" stroke-width="3.757" d="M0 0 M22.577,-2.754 C22.577,-2.754 13.022,-17.404 1.558,-18.36 C-9.906,-19.314 -22.578,-9.283999999999999 -16.91,4.569 C-11.177,18.58 1.974,19.314 1.974,19.314"></path></g></g><g transform="matrix(1,0,0,1,-1,0)" opacity="1" style="user-select: none;"><g opacity="1" transform="matrix(1,0,0,1,353.507,88.032)"><path fill="rgb(255,210,217)" fill-opacity="1" d="M0 0 M-21.496,-0.476 C-21.496,-0.476 -14.174,-17.992 -0.478,-18.947 C13.214,-19.903 21.496,-7.801 17.673,2.389 C13.852999999999998,12.58 -8.437,19.902 -8.437,19.902"></path></g><g opacity="1" transform="matrix(1,0,0,1,349.207,80.857)"><path fill="rgb(248,174,198)" fill-opacity="1" d="M0 0 M17.197,-5.405 C17.197,-5.405 16.811,-6.707000000000001 15.98,-8.544 C12.791,-10.801 8.655000000000001,-12.112 3.822,-11.772 C-9.873000000000001,-10.816 -17.197,6.699 -17.197,6.699 C-17.197,6.699 -13.812,11.978 -13.812,11.978 C-13.812,11.978 -13.695,12.112 -13.695,12.112 C-13.695,12.112 -9.552000000000001,0.9670000000000001 -0.954,-2.219 C7.642,-5.404999999999999 17.197,-5.405 17.197,-5.405z"></path></g><g opacity="1" transform="matrix(1,0,0,1,348.73,89.942)"><path fill="rgb(241,150,168)" fill-opacity="1" d="M0 0 M-10.35,3.346 C-10.35,3.346 -7.167,-6.209 -0.161,-7.801 C6.846,-9.393 10.35,-3.342 5.891,0.479 C1.4320000000000004,4.302 -7.167,9.393 -7.167,9.393"></path></g><g opacity="1" transform="matrix(1,0,0,1,353.507,88.032)"><path stroke-linecap="round" stroke-linejoin="round" fill-opacity="0" stroke="rgb(62,9,39)" stroke-opacity="1" stroke-width="3.757" d="M0 0 M-21.496,-0.476 C-21.496,-0.476 -14.174,-17.992 -0.478,-18.947 C13.214,-19.903 21.496,-7.801 17.673,2.389 C13.852999999999998,12.58 -8.437,19.902 -8.437,19.902"></path></g></g><g transform="matrix(1,0,0,1,0,0)" opacity="1" style="user-select: none;"><g opacity="1" transform="matrix(1,0,0,1,191.255,128.317)"><path fill="rgb(199,87,253)" fill-opacity="1" d="M0 0 M13.376,-25.159 C13.376,-25.159 -4.774,-24.522 -12.1,-9.236 C-19.425,6.0489999999999995 -10.51,20.381 -6.051,25.159 C-6.051,25.159 -4.141,21.973 -0.321,20.698 C3.5,19.423000000000002 6.05,18.789 6.05,18.789 C6.05,18.789 3.8229999999999995,7.324 8.917,0.954 C8.917,0.954 14.009,-5.417 14.009,-5.417 C14.009,-5.417 19.425,-12.104 19.425,-12.104 C19.425,-12.104 13.376,-25.159 13.376,-25.159z"></path></g><g opacity="1" transform="matrix(1,0,0,1,187.752,128.404)"><path fill="rgb(232,68,121)" fill-opacity="1" d="M0 0 M15.062,-25.072 C10.288,-24.456 -2.6790000000000003,-21.67 -8.596,-9.323 C-15.921,5.962 -7.007,20.293 -2.548,25.072 C-2.548,25.072 -1.0410000000000001,22.579 1.954,21.12 C0.16599999999999993,16.14 -1.99,7.928 -0.796,-0.566 C1.113,-14.182 15.921,-22.779 15.921,-22.779 C15.921,-22.779 15.062,-25.072 15.062,-25.072z"></path></g><g opacity="1" transform="matrix(1,0,0,1,188.231,128.317)"><path stroke-linecap="round" stroke-linejoin="round" fill-opacity="0" stroke="rgb(13,88,126)" stroke-opacity="1" stroke-width="3.757" d="M0 0 M16.4,-25.159 C16.4,-25.159 -1.7500000000000009,-24.522 -9.076,-9.236 C-16.401,6.0489999999999995 -7.486,20.381 -3.027,25.159"></path></g><g opacity="1" transform="matrix(1,0,0,1,266.41,259.994)"><path fill="rgb(255,210,217)" fill-opacity="1" d="M0 0 M82.828,58.657 C82.828,58.657 82.23,60.597 82.23,60.597 C83.2,52.764 82.354,43.936 80.566,34.869 C76.10900000000001,12.258 64.964,7.484 64.964,7.484 C64.964,7.484 64.48,8.837 64.48,8.837 C64.48,8.837 64.149,7.674 64.149,7.674 C66.53,4.715 68.527,1.4740000000000002 70.059,-2.069 C90.439,-49.199000000000005 68.785,-89.965 68.146,-116.075 C67.51,-142.188 47.766,-164.48 -2.548,-164.48 C-33.12,-164.48 -68.787,-150.468 -69.423,-112.889 C-70.06,-75.312 -92.35000000000001,-45.377 -71.971,-2.706 C-69.979,1.4609999999999999 -67.211,5.263999999999999 -63.827,8.699 C-63.827,8.699 -64.738,9.782 -64.738,9.782 C-64.738,9.782 -65.123,8.756 -65.123,8.756 C-65.123,8.756 -73.723,17.356000000000005 -81.843,35.029 C-89.059,50.736000000000004 -85.027,70.854 -85.027,70.854 C-85.027,77.86 -85.982,96.33000000000001 -86.938,114.483 C-87.894,132.632 -85.982,161.293 -40.762,162.887 C4.4609999999999985,164.479 7.007,155.56099999999998 7.007,146.01 C7.007,144.864 6.934,143.746 6.779,142.666 C7.281,142.644 7.786,142.625 8.289,142.606 C7.917999999999999,145.578 7.941000000000001,148.89499999999998 8.217,152.378 C9.172,164.47899999999998 32.48,162.887 55.73,161.295 C78.977,159.702 87.256,141.551 89.802,117.347 C92.35000000000001,93.14599999999999 82.828,58.657 82.828,58.657zM0 0 M77.71,75.22 C77.699,74.989 77.685,74.759 77.674,74.532 C77.83500000000001,74.262 78.015,74.005 78.167,73.732 C78.167,73.732 77.71,75.22 77.71,75.22z"></path></g><g opacity="1" transform="matrix(1,0,0,1,266.408,335.467)"><path fill="rgb(255,255,255)" fill-opacity="1" d="M0 0 M-15.444,-15.604 C-15.444,-15.604 -21.338,-10.986 -21.017,-0.794 C-20.698999999999998,9.394 -16.24,16.401 -16.24,16.401 C-16.24,16.401 -6.051,14.489 -3.822,10.987 C-1.5899999999999999,7.4830000000000005 -0.319,3.663 -0.319,3.663 C-0.319,3.663 0.9619999999999997,10.988000000000001 7.01,13.534 C13.056000000000001,16.082 18.472,15.125 18.472,15.125 C18.472,15.125 21.339,7.4830000000000005 21.017,-0.161 C20.698,-7.800999999999999 18.472,-13.854 18.472,-13.854 C18.472,-13.854 9.234,-16.402 5.414,-11.625 C1.5909999999999997,-6.847 -0.636,-2.229 -0.636,-2.229 C-0.636,-2.229 0.9530000000000003,-8.438 -4.141,-11.303 C-9.235,-14.168000000000001 -15.444,-15.604 -15.444,-15.604z"></path></g><g opacity="1" transform="matrix(1,0,0,1,268.638,372.533)"><path fill="rgb(248,174,198)" fill-opacity="1" d="M0 0 M32.482,-30.697 C-5.255000000000003,-28.305999999999997 -2.867,-35.95 -2.867,-35.95 C-2.867,-35.95 -4.776,-34.041000000000004 -26.751,-33.085 C-48.724000000000004,-32.131 -87.256,-41.684 -87.256,-41.684 C-87.256,-34.678 -88.21,-16.208 -89.166,1.945 C-90.122,20.094 -88.21000000000001,48.754999999999995 -42.99,50.349 C2.232999999999997,51.940999999999995 4.779,43.023 4.779,33.472 C4.779,32.837 4.75,32.213 4.706,31.599 C3.7660000000000005,32.046 -7.212,36.933 -38.213,36.02 C-70.695,35.064 -76.427,14.047 -73.879,3.856 C-71.333,-6.334 -52.861999999999995,-6.013999999999999 -35.665,-6.653 C-18.468999999999998,-7.287999999999999 -3.821,-15.569 -3.821,-15.569 C-3.821,-15.569 15.288999999999998,-8.245 39.171,-10.155 C63.055,-12.065999999999999 72.608,-13.975000000000001 73.881,-3.466 C75.153,7.0409999999999995 71.334,31.561 43.309,34.109 C20.415999999999997,36.190000000000005 9.221,33.173 5.886,31.999 C5.721,34.452999999999996 5.771000000000001,37.091 5.988,39.84 C6.9430000000000005,51.941 30.252000000000002,50.349 53.502,48.757 C76.749,47.164 85.02799999999999,29.013 87.574,4.809 C90.122,-19.392 80.002,-51.941 80.002,-51.941 C80.002,-51.941 70.21799999999999,-33.085 32.482,-30.697zM0 0 M75.481,-37.318 C75.47,-37.549 75.457,-37.779 75.446,-38.006 C75.607,-38.276 75.78699999999999,-38.532999999999994 75.939,-38.806 C75.939,-38.806 75.481,-37.318 75.481,-37.318z"></path></g><g opacity="1" transform="matrix(1,0,0,1,274.966,405.725)"><path fill="rgb(255,255,255)" fill-opacity="1" d="M0 0 M-1.313,-4.418 C-1.313,-4.418 -5.850999999999999,-13.732 -14.687,-15.642 C-23.524,-17.555 -28.062,-15.883 -28.062,-15.883 C-28.062,-15.883 -29.974,-5.372999999999999 -29.495,2.509 C-29.02,10.391 -27.824,17.078 -27.824,17.078 C-27.824,17.078 -11.822,17.078 -7.284,12.779 C-2.7459999999999996,8.479 -1.551,3.704 -1.551,3.704 C-1.551,3.704 -1.075000000000001,13.255 9.434,15.406 C19.945,17.555 26.871,15.885 26.871,15.885 C26.871,15.885 29.974,8.718 28.78,0.836 C27.587,-7.044 24.244,-15.642 24.244,-15.642 C24.244,-15.642 14.927,-16.358 8.242,-14.449 C1.5540000000000012,-12.538 -1.313,-4.418 -1.313,-4.418z"></path></g><g opacity="1" transform="matrix(1,0,0,1,225.169,377.662)"><path fill="rgb(255,210,217)" fill-opacity="1" d="M0 0 M-38.453,-38.932 C-38.453,-38.932 -37.974,-21.018 -38.93,-10.987 C-39.885,-0.9559999999999995 -41.32,22.689 -25.795,32.96 C-10.271000000000003,43.231 21.495,38.931 21.495,38.931 C21.495,38.931 30.572999999999997,37.974000000000004 36.303,36.063 C42.037,34.153000000000006 48.246,31.049 48.246,31.049 C48.246,31.049 44.423,47.529 16.718,45.856 C-10.985,44.185 -40.762,44.599000000000004 -44.664,16.003 C-48.246,-10.271 -45.14,-26.749999999999996 -44.424,-32.483 C-43.708,-38.214 -43.468,-47.529 -43.468,-47.529 C-43.468,-47.529 -38.453,-38.932 -38.453,-38.932z"></path></g><g opacity="1" transform="matrix(1,0,0,1,273.257,140.416)"><path fill="rgb(248,174,198)" fill-opacity="1" d="M0 0 M-63.85,5.416 C-63.85,5.416 -53.024,13.375 -42.194,15.287 C-31.369000000000003,17.196 -28.184,16.561 -28.184,16.561 C-28.184,16.561 -25.637,7.008 -25.637,7.008 C-25.637,7.008 -15.128,15.287 4.616,15.605 C24.36,15.925 37.098,10.51 37.098,10.51 C37.098,10.51 40.6,2.549 40.6,2.549 C40.6,2.549 43.787000000000006,7.008 48.883,7.326 C53.977000000000004,7.643 63.849,5.098 63.849,5.098 C63.849,5.098 51.745999999999995,-0.3179999999999996 46.333,-6.367 C40.92,-12.418 38.055,-17.197 38.055,-17.197 C38.055,-17.197 35.189,-5.731999999999999 33.277,-0.954 C31.365000000000002,3.822 -28.821,-16.876 -28.821,-16.876 C-28.821,-16.876 -60.985,-14.01 -60.985,-14.01 C-60.985,-14.01 -63.85,4.776 -63.85,4.776"></path></g><g opacity="1" transform="matrix(1,0,0,1,207.574,172.659)"><path fill="rgb(248,174,198)" fill-opacity="1" d="M0 0 M21.257,-0.002 C21.257,11.738999999999999 11.74,21.257 -0.001,21.257 C-11.741999999999999,21.257 -21.258,11.738999999999999 -21.258,-0.002 C-21.258,-11.74 -11.741999999999999,-21.257 -0.001,-21.257 C11.74,-21.257 21.257,-11.74 21.257,-0.002z"></path></g><g opacity="1" transform="matrix(1,0,0,1,327.947,171.384)"><path fill="rgb(248,174,198)" fill-opacity="1" d="M0 0 M21.257,0 C21.257,11.741 11.741999999999999,21.257 0.001,21.257 C-11.738000000000001,21.257 -21.257,11.741 -21.257,0 C-21.257,-11.741 -11.738000000000001,-21.257 0.001,-21.257 C11.741999999999999,-21.257 21.257,-11.741 21.257,0z"></path></g><g opacity="1" transform="matrix(1,0,0,1,268.48,289.134)"><path fill="rgb(248,174,198)" fill-opacity="1" d="M0 0 M-59.71,-8.598 C-59.71,-8.598 -39.648,14.012 -4.939,14.012 C29.775,14.012 59.711,-7.642 59.711,-7.642 C59.711,-7.642 54.294,-13.056 54.294,-13.056 C54.294,-13.056 21.812,0.639 -4.939,0.639 C-31.688,0.639 -57.799,-14.012 -57.799,-14.012 C-57.799,-14.012 -59.71,-8.598 -59.71,-8.598z"></path></g><g opacity="1" transform="matrix(1,0,0,1,264.936,310.549)"><path fill="rgb(248,174,198)" fill-opacity="1" d="M0 0 M85.581,13.159 C84.822,9.987 84.303,8.101 84.303,8.101 C84.303,8.101 83.705,10.043 83.705,10.043 C84.675,2.209999999999999 83.828,-6.618 82.041,-15.685 C77.584,-38.296 66.438,-43.07 66.438,-43.07 C66.438,-43.07 65.955,-41.717 65.955,-41.717 C65.955,-41.717 65.624,-42.88 65.624,-42.88 C65.99499999999999,-43.339000000000006 66.336,-43.816 66.688,-44.29 C60.789,-40.061 54.653,-32.881 54.653,-32.881 C54.653,-32.881 64.208,-22.054000000000002 67.712,-11.862 C71.215,-1.6690000000000005 68.347,21.892 42.235,26.987 C16.123,32.085 0.836,22.688 0.836,22.688 C0.836,22.688 -13.494,28.898999999999997 -31.009,29.217 C-48.524,29.534 -67.95,21.258000000000003 -66.676,2.466 C-65.4,-16.323 -51.39,-32.563 -51.39,-32.563 C-51.39,-32.563 -63.166,-42.742 -63.166,-42.742 C-62.891,-42.449 -62.638,-42.142999999999994 -62.353,-41.855 C-62.353,-41.855 -63.263,-40.773 -63.263,-40.773 C-63.263,-40.773 -63.65,-41.798 -63.65,-41.798 C-63.65,-41.798 -72.24900000000001,-33.198 -80.37,-15.526 C-85.581,-4.182 -84.92200000000001,9.458000000000002 -84.159,16.164 C-71.827,44.290000000000006 -51.7,42.553999999999995 -27.188,42.272 C0.8360000000000021,41.955 0.518,29.218 0.518,29.218 C0.518,29.218 1.7919999999999998,34.631 6.568,37.815 C11.347,41.001999999999995 32.044,42.272 56.882,37.815 C67.31,35.946 74.53,29.918999999999997 79.407,23.557 C79.487,23.430999999999997 79.568,23.309 79.642,23.178 C79.642,23.178 79.603,23.303 79.603,23.303 C82.256,19.794 84.20700000000001,16.198 85.581,13.159z"></path></g><g opacity="1" transform="matrix(1,0,0,1,318.794,311.027)"><path fill="rgb(255,210,217)" fill-opacity="1" d="M0 0 M8.837,-37.738 C8.837,-37.738 22.451,-25.078000000000003 22.451,-6.211 C22.451,12.658 19.346999999999998,28.659 -1.434,32.482 C-22.212,36.303 -31.526,34.392 -31.526,34.392 C-31.526,34.392 -35.826,40.841 -35.826,40.841 C-35.826,40.841 5.016,44.422999999999995 16.957,32.721 C28.9,21.017999999999997 35.826,1.1929999999999978 26.988,-19.824 C18.151,-40.842 11.941,-44.424 11.941,-44.424 C11.941,-44.424 8.837,-37.738 8.837,-37.738z"></path></g><g opacity="1" transform="matrix(1,0,0,1,211.795,313.658)"><path fill="rgb(255,210,217)" fill-opacity="1" d="M0 0 M-6.21,-40.129 C-6.21,-40.129 -26.75,-16.006 -25.556,1.905 C-24.362000000000002,19.817 -11.465,29.372 0.238,32.716 C11.94,36.059 35.109,32.239 35.109,32.239 C35.109,32.239 36.303,38.688 36.303,38.688 C36.303,38.688 -13.853,45.852000000000004 -25.079,25.072 C-36.303,4.2940000000000005 -32.003,-12.186 -23.647,-25.799 C-15.285999999999998,-39.413 -10.025,-45.852 -10.025,-45.852 C-10.025,-45.852 -6.21,-40.129 -6.21,-40.129z"></path></g><g opacity="1" transform="matrix(1,0,0,1,313.777,372.407)"><path fill="rgb(255,210,217)" fill-opacity="1" d="M0 0 M31.29,-37.497 C31.29,-37.497 35.59,-22.689 35.59,-8.599 C35.59,5.494 34.394,32.482 20.064,38.453 C5.7330000000000005,44.425000000000004 -11.702000000000002,44.187000000000005 -21.257,42.99 C-30.810000000000002,41.797000000000004 -38.691,36.782 -38.691,36.782 C-38.691,36.782 -45.141,50.155 -11.94,49.202 C21.257000000000005,48.245999999999995 37.499,43.47 41.319,16.241 C45.141000000000005,-10.986 35.828,-50.155 35.828,-50.155 C35.828,-50.155 31.29,-37.497 31.29,-37.497z"></path></g><g opacity="1" transform="matrix(1,0,0,1,259.453,413.422)"><path fill="rgb(234,223,226)" fill-opacity="1" d="M0 0 M13.588,-2.868 C13.893999999999998,-4.341 13.964,-5.872 13.964,-7.418 C13.964,-8.053 13.935,-8.675999999999998 13.891,-9.29 C13.122,-8.922999999999998 5.648999999999999,-5.599 -13.963,-4.889 C-13.508,2.343 -12.463,8.498 -12.325,9.29 C-0.25399999999999956,8.472 6.295999999999999,6.2989999999999995 9.84,3.38 C11.961,0.895 13.074,-1.513 13.588,-2.868z"></path></g><g opacity="1" transform="matrix(1,0,0,1,289.562,413.516)"><path fill="rgb(234,223,226)" fill-opacity="1" d="M0 0 M14.262,-6.316 C-3.2079999999999984,-5.527 -12.125,-7.958 -15.038,-8.984 C-15.203,-6.529999999999999 -15.153,-3.8920000000000003 -14.936,-1.143 C-14.86,-0.18000000000000005 -14.626,0.688 -14.277,1.486 C-13.380999999999998,2.981 -12.066,4.513999999999999 -10.096,5.725 C-7.04,7.372 -2.715,8.242 2.41,8.618 C8.54,8.984 12.275,8.093 12.275,8.093 C12.275,8.093 15.203000000000001,1.3079999999999998 14.262,-6.316z"></path></g><g opacity="1" transform="matrix(1,0,0,1,265.454,202.684)"><path fill="rgb(248,174,198)" fill-opacity="1" d="M0 0 M65.92,64.795 C65.92,64.795 65.437,66.149 65.437,66.149 C65.437,66.149 65.105,64.985 65.105,64.985 C67.485,62.025999999999996 69.48299999999999,58.785 71.014,55.242 C91.395,8.111999999999995 69.741,-32.653000000000006 69.103,-58.764 C68.835,-69.79 65.141,-80.128 57.194,-88.4 C51.597,-87.39500000000001 48.35,-85.721 50.95,-82.967 C59.071000000000005,-74.37 57.639,-58.128 57.639,-41.411 C57.639,-24.691000000000003 59.550000000000004,-7.0169999999999995 58.115,29.764 C56.685,66.54599999999999 13.692,79.922 -1.592,79.922 C-16.879,79.922 -47.449000000000005,68.456 -55.569,36.93 C-63.691,5.404 -53.183,-23.736 -54.616,-40.454 C-56.048,-57.173 -46.018,-85.834 -46.018,-85.834 C-46.018,-85.834 -54.476,-88.995 -54.476,-88.995 C-62.791,-80.97 -68.224,-70.022 -68.468,-55.579 C-69.104,-18.002000000000002 -91.394,11.933999999999997 -71.016,54.605 C-69.024,58.772 -66.256,62.574999999999996 -62.872,66.011 C-62.872,66.011 -63.782,67.092 -63.782,67.092 C-63.782,67.092 -64.168,66.066 -64.168,66.066 C-64.168,66.066 -64.444,66.345 -64.915,66.867 C-53.205000000000005,77.055 -32.83,88.995 -1.592,88.995 C33.762,88.995 55.813,75.108 66.941,65.363 C66.299,64.96 65.92,64.795 65.92,64.795z"></path></g><g opacity="1" transform="matrix(1,0,0,1,263.676,205.019)"><path fill="rgb(255,210,217)" fill-opacity="1" d="M0 0 M67.698,62.46 C67.698,62.46 67.215,63.814 67.215,63.814 C67.215,63.814 66.884,62.65 66.884,62.65 C69.264,59.690999999999995 71.261,56.449999999999996 72.792,52.907 C89.616,14 77.80499999999999,-20.556 72.806,-46.124 C72.88499999999999,-32.182 73.30499999999999,-13.404 74.065,-3.138 C75.342,14.059 72.792,34.757000000000005 62.284,54.82 C51.772999999999996,74.882 14.832999999999998,81.569 -3.32,81.25 C-21.471,80.933 -42.806,72.972 -58.412,56.412 C-74.014,39.851 -72.42,8.323 -69.555,-6.006 C-66.69000000000001,-20.336 -61.596,-45.176 -61.913,-60.461 C-62.230999999999995,-75.748 -50.449,-85.299 -50.449,-85.299 C-50.449,-85.299 -57.188,-86.348 -57.188,-86.348 C-62.924,-78.945 -66.492,-69.562 -66.69,-57.913 C-67.326,-20.336 -89.616,9.600000000000001 -69.238,52.271 C-68.957,52.856 -68.62700000000001,53.415 -68.319,53.985 C-57.929,67.809 -37.71,86.348 -3.956,86.348 C34.187999999999995,86.348 58.556,71.958 69.527,63.571 C68.403,62.763 67.698,62.46 67.698,62.46z"></path></g><g opacity="1" transform="matrix(1,0,0,1,265.454,200.286)"><path stroke-linecap="round" stroke-linejoin="round" fill-opacity="0" stroke="rgb(62,9,39)" stroke-opacity="1" stroke-width="3.757" d="M0 0 M-1.591,-104.771 C-32.163,-104.771 -67.831,-90.759 -68.467,-53.18 C-69.104,-15.603000000000002 -91.39500000000001,14.332999999999998 -71.016,57.003 C-50.635000000000005,99.674 50.634,104.771 71.013,57.64 C91.394,10.509999999999998 69.74199999999999,-30.255 69.103,-56.366 C68.467,-82.479 48.722,-104.771 -1.591,-104.771z"></path></g><g opacity="1" transform="matrix(1,0,0,1,286.039,415.876)"><path fill="rgb(255,255,255)" fill-opacity="1" d="M0 0 M6.481,-0.479 C-3.072000000000001,-1.6720000000000002 -10.954,-6.686 -10.954,-6.686 C-10.954,-6.686 -17.403000000000002,6.686 15.797,5.733 C15.797,5.733 16.755,3.518 17.403,0.202 C13.213999999999999,0.17500000000000002 9.463000000000001,-0.10399999999999998 6.481,-0.479z"></path></g><g opacity="1" transform="matrix(1,0,0,1,326.916,112.872)"><path fill="rgb(146,244,69)" fill-opacity="1" d="M0 0 M-25.158,-35.188 C-25.158,-35.188 4.138999999999999,-35.188 14.648,-11.306 C25.158,12.579000000000002 16.56,35.188 16.56,35.188 C16.56,35.188 -7.768,27.544 -15.731,9.075"></path></g><g opacity="1" transform="matrix(1,0,0,1,259.833,415.757)"><path fill="rgb(255,255,255)" fill-opacity="1" d="M0 0 M13.582,-7.046 C13.582,-7.046 7.373,-3.942 1.639,-2.032 C-4.091,-0.121 -13.169,0.836 -13.169,0.836 C-13.169,0.836 -13.318000000000001,0.854 -13.582,0.888 C-13.129000000000001,4.578 -12.69,7.046 -12.69,7.046 C-12.69,7.046 -6.74,7.04 -1.068,6.063 C11.454,2.0869999999999997 13.582,-7.046 13.582,-7.046z"></path></g><g opacity="1" transform="matrix(1,0,0,1,332.726,167.244)"><path fill="rgb(255,210,217)" fill-opacity="1" d="M0 0 M21.199,-1.554 C22.059,10.154 13.264,20.342000000000002 1.553,21.202 C-10.155000000000001,22.059 -20.342,13.263000000000002 -21.2,1.553 C-22.058999999999997,-10.152999999999999 -13.263,-20.339000000000002 -1.555,-21.199 C10.153,-22.059 20.339000000000002,-13.262 21.199,-1.554z"></path></g><g opacity="1" transform="matrix(1,0,0,1,202.479,167.245)"><path fill="rgb(255,210,217)" fill-opacity="1" d="M0 0 M21.257,-0.001 C21.257,11.74 11.74,21.256 0,21.256 C-11.741,21.256 -21.257,11.74 -21.257,-0.001 C-21.257,-11.741999999999999 -11.741,-21.256 0,-21.256 C11.74,-21.256 21.257,-11.741999999999999 21.257,-0.001z"></path></g><g opacity="1" transform="matrix(1,0,0,1,222.145,108.414)"><path fill="rgb(37,223,237)" fill-opacity="1" d="M0 0 M12.101,-34.234 C12.101,-34.234 -15.925999999999998,-34.87 -17.197,-7.484 C-18.47,19.901000000000003 13.693,34.869 13.693,34.869 C13.693,34.869 17.834,27.863 18.469,21.494"></path></g><g opacity="1" transform="matrix(1,0,0,1,203.176,171.089)"><path fill="rgb(248,174,198)" fill-opacity="1" d="M0 0 M15.664,-17.413 C16.55,-15.073 17.058,-12.544 17.058,-9.893 C17.058,1.847999999999999 7.5409999999999995,11.363 -4.2,11.363 C-10.781,11.363 -16.657999999999998,8.370000000000001 -20.56,3.676 C-17.52,11.699 -9.785,17.413 -0.696,17.413 C11.043000000000001,17.413 20.56,7.897 20.56,-3.844 C20.56,-9.002 18.72,-13.732 15.664,-17.413z"></path></g><g opacity="1" transform="matrix(1,0,0,1,329.901,169.295)"><path fill="rgb(248,174,198)" fill-opacity="1" d="M0 0 M9.154,15.011 C-2.553000000000001,15.869 -12.74,7.074 -13.598,-4.635 C-14.027000000000001,-10.457 -12.065,-15.896999999999998 -8.548,-20.008 C-14.95,-15.947 -18.972,-8.586 -18.376,-0.497 C-17.518,11.213000000000001 -7.33,20.009 4.378,19.152 C10.268,18.719 15.415,15.925 18.971,11.77 C16.11,13.584 12.773,14.742999999999999 9.154,15.011z"></path></g><g opacity="1" transform="matrix(1,0,0,1,202.479,167.245)"><path stroke-linecap="round" stroke-linejoin="round" fill-opacity="0" stroke="rgb(62,9,39)" stroke-opacity="1" stroke-width="3.757" d="M0 0 M21.257,-0.001 C21.257,11.74 11.74,21.256 0,21.256 C-11.741,21.256 -21.257,11.74 -21.257,-0.001 C-21.257,-11.741999999999999 -11.741,-21.256 0,-21.256 C11.74,-21.256 21.257,-11.741999999999999 21.257,-0.001z"></path></g><g opacity="1" transform="matrix(1,0,0,1,202.717,169.873)"><path stroke-linecap="round" stroke-linejoin="round" fill-opacity="0" stroke="rgb(62,9,39)" stroke-opacity="1" stroke-width="3.757" d="M0 0 M-20.382,-7.484 C-14.648000000000001,-1.1129999999999995 7.960000000000001,7.484000000000001 20.382,-5.89"></path></g><g opacity="1" transform="matrix(1,0,0,1,332.726,167.244)"><path stroke-linecap="round" stroke-linejoin="round" fill-opacity="0" stroke="rgb(62,9,39)" stroke-opacity="1" stroke-width="3.757" d="M0 0 M21.199,-1.554 C22.059,10.154 13.264,20.342000000000002 1.553,21.202 C-10.155000000000001,22.059 -20.342,13.263000000000002 -21.2,1.553 C-22.058999999999997,-10.152999999999999 -13.263,-20.339000000000002 -1.555,-21.199 C10.153,-22.059 20.339000000000002,-13.262 21.199,-1.554z"></path></g><g opacity="1" transform="matrix(1,0,0,1,332.665,169.605)"><path stroke-linecap="round" stroke-linejoin="round" fill-opacity="0" stroke="rgb(62,9,39)" stroke-opacity="1" stroke-width="3.757" d="M0 0 M-20.383,-5.73 C-14.200999999999999,0.20399999999999974 8.978,7.124 20.384,-7.124"></path></g><g opacity="1" transform="matrix(1,0,0,1,261.473,270.502)"><path stroke-linecap="round" stroke-linejoin="round" fill-opacity="0" stroke="rgb(62,9,39)" stroke-opacity="1" stroke-width="3.757" d="M0 0 M-21.176,-5.254 C-18.311,-1.7509999999999994 -10.352,5.254 -0.478,5.254 C14.809000000000001,5.254 21.176,-3.98 21.176,-3.98"></path></g><g opacity="1" transform="matrix(1,0,0,1,228.766,105.626)"><path fill="rgb(16,206,221)" fill-opacity="1" d="M0 0 M5.046,-31.444 C0.12700000000000067,-28.808 -11.849,-20.306 -8.534,-1.193 C-5.487,16.378999999999998 4.781,27.034 10.003,31.447 C10.849,29.250999999999998 11.605,26.718999999999998 11.848,24.281 C11.848,24.281 5.48,-31.445 5.48,-31.445 C5.48,-31.445 5.319,-31.447 5.046,-31.444z"></path></g><g opacity="1" transform="matrix(1,0,0,1,219.235,108.51)"><path fill="rgb(66,137,239)" fill-opacity="1" d="M0 0 M-5.05,-4.715 C-8.553,-27.004 12.145,-32.737 12.145,-32.737 C12.145,-32.737 12.053,-34.173 12.053,-34.173 C4.822000000000001,-33.452000000000005 -13.269,-29.463 -14.285,-7.58 C-15.41,16.654000000000003 9.628,31.156000000000002 15.411,34.173 C9.283,27.055 -2.4869999999999997,11.602 -5.05,-4.715z"></path></g><g opacity="1" transform="matrix(1,0,0,1,250.645,234.359)"><path fill="rgb(62,9,39)" fill-opacity="1" d="M0 0 M2.389,-0.001 C2.389,1.756 1.3199999999999998,3.185 0.001,3.185 C-1.32,3.185 -2.389,1.756 -2.389,-0.001 C-2.389,-1.7599999999999998 -1.32,-3.185 0.001,-3.185 C1.3199999999999998,-3.185 2.389,-1.7599999999999998 2.389,-0.001z"></path></g><g opacity="1" transform="matrix(1,0,0,1,271.026,234.994)"><path fill="rgb(62,9,39)" fill-opacity="1" d="M0 0 M2.389,0.001 C2.389,1.7579999999999998 1.32,3.184 0,3.184 C-1.318,3.184 -2.389,1.7579999999999998 -2.389,0.001 C-2.389,-1.758 -1.318,-3.184 0,-3.184 C1.32,-3.184 2.389,-1.758 2.389,0.001z"></path></g><g opacity="1" transform="matrix(1,0,0,1,222.145,108.414)"><path stroke-linecap="round" stroke-linejoin="round" fill-opacity="0" stroke="rgb(13,88,126)" stroke-opacity="1" stroke-width="3.757" d="M0 0 M12.101,-34.234 C12.101,-34.234 -15.925999999999998,-34.87 -17.197,-7.484 C-18.47,19.901000000000003 13.693,34.869 13.693,34.869 C13.693,34.869 17.834,27.863 18.469,21.494"></path></g><g opacity="1" transform="matrix(1,0,0,1,326.916,112.872)"><path fill="rgb(255,221,47)" fill-opacity="1" d="M0 0 M14.647,-11.306 C4.138,-35.188 -25.159,-35.188 -25.159,-35.188 C-25.159,-35.188 -24.647,-32.787 -24.647,-32.787 C-21.197,-31.58 -0.9879999999999995,-23.972 5.41,-9.716 C11.186,3.1470000000000002 15.221,23.552999999999997 15.929,34.977 C16.334,35.117999999999995 16.559,35.188 16.559,35.188 C16.559,35.188 25.158,12.578000000000001 14.647,-11.306z"></path></g><g opacity="1" transform="matrix(1,0,0,1,324.074,115.418)"><path fill="rgb(121,213,39)" fill-opacity="1" d="M0 0 M19.895,31.167 C-6.960000000000001,7.646000000000001 -16.586,-32.642 -16.586,-32.642 C-16.586,-32.642 -19.895,-26.357 -19.895,-26.357 C-19.895,-26.357 -12.89,6.529 -12.89,6.529 C-4.9270000000000005,24.999 19.401,32.642 19.401,32.642 C19.401,32.642 19.599,32.119 19.895,31.167z"></path></g><g opacity="1" transform="matrix(1,0,0,1,326.916,112.872)"><path stroke-linecap="round" stroke-linejoin="round" fill-opacity="0" stroke="rgb(13,88,126)" stroke-opacity="1" stroke-width="3.757" d="M0 0 M-25.158,-35.188 C-25.158,-35.188 4.138999999999999,-35.188 14.648,-11.306 C25.158,12.579000000000002 16.56,35.188 16.56,35.188 C16.56,35.188 -7.768,27.544 -15.731,9.075"></path></g><g opacity="1" transform="matrix(1,0,0,1,268.162,102.899)"><path fill="rgb(37,223,237)" fill-opacity="1" d="M0 0 M-21.814,-37.954 C-40.283,-29.676000000000002 -51.111000000000004,-2.607999999999997 -30.094,22.234 C-9.077000000000002,47.072 38.373,43.57 38.373,43.57 C38.373,43.57 51.111,0.8960000000000008 36.461,-19.804 C21.811999999999998,-40.5 -1.4699999999999989,-47.072 -21.814,-37.954z"></path></g><g opacity="1" transform="matrix(1,0,0,1,261.83,105.987)"><path fill="rgb(0,185,199)" fill-opacity="1" d="M0 0 M44.706,40.482 C44.706,40.482 44.736000000000004,40.378 44.779,40.229 C14.150000000000002,32.602 -16.939,11.873 -20.896,-9.676 C-25.195,-33.081 -4.178,-43.115 -4.178,-43.115 C-4.178,-43.115 -5.611,-43.592 -5.611,-43.592 C-5.611,-43.592 -6.493,-43.983 -6.493,-43.983 C-9.529,-43.317 -12.54,-42.365 -15.482,-41.042 C-33.951,-32.765 -44.778999999999996,-5.695999999999998 -23.762,19.146 C-2.745000000000001,43.983000000000004 44.706,40.482 44.706,40.482z"></path></g><g opacity="1" transform="matrix(1,0,0,1,292.002,103.737)"><path fill="rgb(120,249,190)" fill-opacity="1" d="M0 0 M14.533,42.732 C14.533,42.732 27.271,0.05799999999999983 12.621,-20.642 C2.2720000000000002,-35.262 -12.386000000000001,-42.796 -27.271,-42.768 C-19.005000000000003,-36.653 -3.8600000000000003,-23.368000000000002 2.909,-4.082 C9.638,15.099 12.337,33.55799999999999 13.344,42.797 C14.116,42.763999999999996 14.533,42.732 14.533,42.732z"></path></g><g opacity="1" transform="matrix(1,0,0,1,268.162,102.899)"><path stroke-linecap="round" stroke-linejoin="round" fill-opacity="0" stroke="rgb(13,88,126)" stroke-opacity="1" stroke-width="3.757" d="M0 0 M-21.814,-37.954 C-40.283,-29.676000000000002 -51.111000000000004,-2.607999999999997 -30.094,22.234 C-9.077000000000002,47.072 38.373,43.57 38.373,43.57 C38.373,43.57 51.111,0.8960000000000008 36.461,-19.804 C21.811999999999998,-40.5 -1.4699999999999989,-47.072 -21.814,-37.954z"></path></g><g opacity="1" transform="matrix(1,0,0,1,266.55,342.437)"><path fill="rgb(234,223,226)" fill-opacity="1" d="M0 0 M-0.779,-9.199 C-0.779,-9.199 -9.105,-5.6000000000000005 -20.808,-3.744 C-19.821,3.281 -17.143,8.147 -16.523,9.199 C-7.930999999999999,7.429 -4.117,4.024 -2.433,1.31 C-2.049,0.55 -1.721,-0.16700000000000004 -1.445,-0.805 C-1.082,-1.928 -1.096,-2.671 -1.096,-2.671 C-1.096,-2.671 -1.045,-2.444 -0.923,-2.067 C-0.625,-2.8230000000000004 -0.462,-3.307 -0.462,-3.307 C-0.462,-3.307 0.819,4.019 6.867,6.565 C8.198,7.127000000000001 9.496,7.509 10.714,7.779 C11.743,7.966 12.861,8.13 14.089,8.272 C16.636,8.453 18.328,8.156 18.328,8.156 C18.328,8.156 20.357999999999997,2.723 20.807,-3.559 C6.972999999999999,-4.479 -0.779,-9.199 -0.779,-9.199z"></path></g><g opacity="1" transform="matrix(1,0,0,1,266.37,345.499)"><path fill="rgb(255,255,255)" fill-opacity="1" d="M0 0 M-19.466,0.399 C-19.466,0.399 -15.169,0.15900000000000003 -9.673,-1.75 C-4.181,-3.6630000000000003 -0.281,-6.37 -0.281,-6.37 C-0.281,-6.37 4.418,-2.468 9.673,-1.512 C14.927,-0.559 19.465,-0.319 19.465,-0.319 C19.465,-0.319 16.597,6.37 16.597,6.37 C16.597,6.37 7.045,5.414 3.939,1.832 C0.8359999999999999,-1.7499999999999998 -0.599,-3.424 -0.599,-3.424 C-0.599,-3.424 -3.9430000000000005,2.787 -10.39,4.458 C-16.84,6.131 -18.51,6.37 -18.51,6.37 C-18.51,6.37 -19.466,0.399 -19.466,0.399z"></path></g><g opacity="1" transform="matrix(1,0,0,1,221.031,313.685)"><path stroke-linecap="round" stroke-linejoin="round" fill-opacity="0" stroke="rgb(62,9,39)" stroke-opacity="1" stroke-width="3.757" d="M0 0 M-19.745,-44.934 C-19.745,-44.934 -28.344,-36.334 -36.465,-18.662 C-44.585,-0.9869999999999983 -44.741,15.730999999999998 -28.502,29.586 C-10.508,44.935 27.068,38.662 35.667,35.795 C44.262,32.927 44.741,25.762999999999998 44.741,19.552 C44.741,13.343 42.352000000000004,8.567 29.933,6.178 C17.512999999999998,3.789 2.705,2.358 -3.981,-3.376"></path></g><g opacity="1" transform="matrix(1,0,0,1,308.763,310.789)"><path stroke-linecap="round" stroke-linejoin="round" fill-opacity="0" stroke="rgb(62,9,39)" stroke-opacity="1" stroke-width="3.757" d="M0 0 M22.611,-43.31 C22.611,-43.31 33.757,-38.536 38.214,-15.924 C42.671,6.685000000000002 41.297,27.826999999999998 20.383,35.729 C0.3200000000000003,43.31 -25.943999999999996,42.301 -35.346,38.212 C-42.669999999999995,35.028000000000006 -42.036,29.296 -41.716,22.608 C-41.397,15.920000000000002 -37.893,10.19 -28.34,10.827 C-18.787,11.463 -0.3180000000000005,5.414 7.007,0.318"></path></g><g opacity="1" transform="matrix(1,0,0,1,245.235,335.627)"><path stroke-linecap="round" stroke-linejoin="round" fill-opacity="0" stroke="rgb(62,9,39)" stroke-opacity="1" stroke-width="3.757" d="M0 0 M3.661,15.285 C-3.661,0.9559999999999995 1.113,-9.872 3.342,-15.285"></path></g><g opacity="1" transform="matrix(1,0,0,1,286.315,337.378)"><path stroke-linecap="round" stroke-linejoin="round" fill-opacity="0" stroke="rgb(62,9,39)" stroke-opacity="1" stroke-width="3.757" d="M0 0 M-2.07,-14.171 C1.7510000000000003,-8.120999999999999 2.3880000000000003,3.978999999999999 -2.387,14.171"></path></g><g opacity="1" transform="matrix(1,0,0,1,225.967,376.85)"><path stroke-linecap="round" stroke-linejoin="round" fill-opacity="0" stroke="rgb(62,9,39)" stroke-opacity="1" stroke-width="3.757" d="M0 0 M-44.585,-47.624 C-44.585,-40.619 -45.538999999999994,-20.524 -46.495,-2.372 C-47.449999999999996,15.777000000000001 -45.538999999999994,44.43899999999999 -0.318,46.032 C44.904,47.623999999999995 47.45,38.706 47.45,29.155 C47.45,19.601 42.674,11.957 23.566,11.957 C4.457999999999998,11.957 -11.779000000000002,9.729 -21.972,4.95"></path></g><g opacity="1" transform="matrix(1,0,0,1,316.215,371.562)"><path stroke-linecap="round" stroke-linejoin="round" fill-opacity="0" stroke="rgb(62,9,39)" stroke-opacity="1" stroke-width="3.757" d="M0 0 M33.024,-52.911 C33.024,-52.911 42.544999999999995,-18.421 39.998,5.78 C37.452,29.985 29.171999999999997,48.135999999999996 5.926,49.729 C-17.323999999999998,51.32 -40.633,52.912 -41.588,40.812 C-42.544000000000004,28.708999999999996 -40.604,18.423 -28.821,18.743 C-17.037,19.061 2.74,17.243 12.612,13.106"></path></g><g opacity="1" transform="matrix(1,0,0,1,302.556,406.323)"><path stroke-linecap="round" stroke-linejoin="round" fill-opacity="0" stroke="rgb(62,9,39)" stroke-opacity="1" stroke-width="3.757" d="M0 0 M-0.161,15.286 C2.708,-2.8660000000000014 -2.707,-15.286 -2.707,-15.286"></path></g><g opacity="1" transform="matrix(1,0,0,1,246.029,406.005)"><path stroke-linecap="round" stroke-linejoin="round" fill-opacity="0" stroke="rgb(62,9,39)" stroke-opacity="1" stroke-width="3.757" d="M0 0 M0.957,-15.604 C-1.592,-7.642999999999999 -1.592,3.1850000000000005 1.592,15.605"></path></g></g><g transform="matrix(1,0,0,1,0,0)" opacity="1" style="user-select: none;"><g opacity="1" transform="matrix(1,0,0,1,194.017,204.455)"><path fill="rgb(240,134,159)" fill-opacity="1" d="M0 0 M-16.828,2.048 C-19.473,-1.7069999999999999 -9.188,-10.152 3.288,-7.294 C15.765,-4.433999999999999 19.474,1.811 14.257,5.003 C9.039,8.198 -11.108999999999998,10.152 -16.828,2.048z"></path></g></g><g transform="matrix(1,0,0,1,0,0)" opacity="1" style="user-select: none;"><g opacity="1" transform="matrix(1,0,0,1,336.986,202.291)"><path fill="rgb(240,134,159)" fill-opacity="1" d="M0 0 M-18.02,0.034 C-17.537,-5.282 2.965,-9.255 10.84,-4.384 C18.711,0.4870000000000001 12.254,8.219 3.892,8.738 C-4.4670000000000005,9.254999999999999 -18.71,7.646 -18.02,0.034z"></path></g></g><g transform="matrix(1,0,0,1,0,0)" opacity="1" style="user-select: none;"><g opacity="1" transform="matrix(1,0,0,1,267.505,70.241)"><path fill="rgb(255,255,255)" fill-opacity="1" d="M0 0 M-4.484,40.232 C4.2330000000000005,40.728 17.745,38.614999999999995 14.374,20.583 C10.995000000000001,2.5529999999999973 6.151999999999999,-19.775 4.042,-29.442 C1.9289999999999998,-39.108000000000004 -5.017,-40.728 -7.2,-29.587 C-9.384,-18.453 -15.695999999999998,14.488999999999997 -16.72,20.83 C-17.744999999999997,27.183999999999997 -15.495,39.601 -4.484,40.232z"></path></g><g opacity="1" transform="matrix(1,0,0,1,266.37,78.18)"><path fill="rgb(215,213,213)" fill-opacity="1" d="M0 0 M-1.751,32.212 C1.6520000000000001,32.608000000000004 6.929,30.919 5.612,16.48 C4.295,2.045 2.402,-15.833000000000002 1.579,-23.574 C0.753,-31.316000000000003 -1.96,-32.609 -2.811,-23.689 C-3.662,-14.777 -6.127,11.599999999999998 -6.527,16.679 C-6.929,21.766 -6.050000000000001,31.706000000000003 -1.751,32.212z"></path></g><g opacity="1" transform="matrix(1,0,0,1,265.164,53.5)"><path stroke-linecap="round" stroke-linejoin="round" fill-opacity="0" stroke="rgb(62,9,39)" stroke-opacity="1" stroke-width="3.757" d="M0 0 M-8.19,4.374 C-8.19,4.374 1.584999999999999,3.617 8.19,-4.374"></path></g><g opacity="1" transform="matrix(1,0,0,1,264.923,73.057)"><path stroke-linecap="round" stroke-linejoin="round" fill-opacity="0" stroke="rgb(62,9,39)" stroke-opacity="1" stroke-width="3.757" d="M0 0 M-11.529,3.691 C-11.529,3.691 1.1199999999999992,6.566 11.529,-6.566"></path></g><g opacity="1" transform="matrix(1,0,0,1,265.607,91.624)"><path stroke-linecap="round" stroke-linejoin="round" fill-opacity="0" stroke="rgb(62,9,39)" stroke-opacity="1" stroke-width="3.757" d="M0 0 M-14.965,4.273 C-14.965,4.273 4.225,7.613 14.965,-7.613"></path></g><g opacity="1" transform="matrix(1,0,0,1,267.505,70.241)"><path stroke-linecap="round" stroke-linejoin="round" fill-opacity="0" stroke="rgb(62,9,39)" stroke-opacity="1" stroke-width="3.757" d="M0 0 M-4.484,40.232 C4.2330000000000005,40.728 17.745,38.614999999999995 14.374,20.583 C10.995000000000001,2.5529999999999973 6.151999999999999,-19.775 4.042,-29.442 C1.9289999999999998,-39.108000000000004 -5.017,-40.728 -7.2,-29.587 C-9.384,-18.453 -15.695999999999998,14.488999999999997 -16.72,20.83 C-17.744999999999997,27.183999999999997 -15.495,39.601 -4.484,40.232z"></path></g></g><g transform="matrix(1,0,0,1,0,0)" opacity="1" style="user-select: none;"><g opacity="1" transform="matrix(1,0,0,1,118.888,341.468)"><path stroke-linecap="round" stroke-linejoin="round" fill-opacity="0" stroke="rgb(255,233,31)" stroke-opacity="1" stroke-width="11.27" d="M0 0 M13.135,-3.932 C13.135,-3.932 -13.136,3.932 -13.136,3.932"></path></g><g opacity="1" transform="matrix(1,0,0,1,400.795,332.443)"><path stroke-linecap="round" stroke-linejoin="round" fill-opacity="0" stroke="rgb(255,233,31)" stroke-opacity="1" stroke-width="11.27" d="M0 0 M-11.465,-2.549 C-11.465,-2.549 11.464,2.549 11.464,2.549"></path></g><g opacity="1" transform="matrix(1,0,0,1,113.296,274.631)"><path stroke-linecap="round" stroke-linejoin="round" fill-opacity="0" stroke="rgb(255,233,31)" stroke-opacity="1" stroke-width="11.27" d="M0 0 M13.122,-0.811 C13.122,-0.811 -13.123,0.812 -13.123,0.812"></path></g><g opacity="1" transform="matrix(1,0,0,1,121.45,206.91)"><path stroke-linecap="round" stroke-linejoin="round" fill-opacity="0" stroke="rgb(255,233,31)" stroke-opacity="1" stroke-width="11.27" d="M0 0 M11.844,1.02 C11.844,1.02 -11.844,-1.02 -11.844,-1.02"></path></g><g opacity="1" transform="matrix(1,0,0,1,417.018,258.4)"><path stroke-linecap="round" stroke-linejoin="round" fill-opacity="0" stroke="rgb(255,233,31)" stroke-opacity="1" stroke-width="11.27" d="M0 0 M-14.026,-0.161 C-14.026,-0.161 14.025,0.161 14.025,0.161"></path></g><g opacity="1" transform="matrix(1,0,0,1,412.991,195.385)"><path stroke-linecap="round" stroke-linejoin="round" fill-opacity="0" stroke="rgb(255,233,31)" stroke-opacity="1" stroke-width="11.27" d="M0 0 M-11.465,1.274 C-11.465,1.274 11.464,-1.274 11.464,-1.274"></path></g><g opacity="1" transform="matrix(1,0,0,1,408.642,121.15)"><path stroke-linecap="round" stroke-linejoin="round" fill-opacity="0" stroke="rgb(255,233,31)" stroke-opacity="1" stroke-width="11.27" d="M0 0 M-10.397,4.934 C-10.397,4.934 10.396,-4.934 10.396,-4.934"></path></g><g opacity="1" transform="matrix(1,0,0,1,132.818,132.359)"><path stroke-linecap="round" stroke-linejoin="round" fill-opacity="0" stroke="rgb(255,233,31)" stroke-opacity="1" stroke-width="11.27" d="M0 0 M11.941,2.644 C11.941,2.644 -11.941,-2.644 -11.941,-2.644"></path></g><g opacity="1" transform="matrix(1,0,0,1,204.453,36.283)"><path stroke-linecap="round" stroke-linejoin="round" fill-opacity="0" stroke="rgb(255,233,31)" stroke-opacity="1" stroke-width="11.27" d="M0 0 M7.469,7.005 C7.469,7.005 -7.47,-7.005 -7.47,-7.005"></path></g><g opacity="1" transform="matrix(0.9816,-0.1908,0.1908,0.9816,327.87,41.406)"><path stroke-linecap="round" stroke-linejoin="round" fill-opacity="0" stroke="rgb(255,233,31)" stroke-opacity="1" stroke-width="11.27" d="M0 0 M-7.006,7.007 C-7.006,7.007 7.006,-7.007 7.006,-7.007"></path></g></g></g></svg>