<svg xmlns="http://www.w3.org/2000/svg" viewBox="0 0 512 512" width="512" height="512" class="svg_sticker_animation" preserveAspectRatio="xMidYMid meet" style="width: 100%; height: 100%;"><defs><clipPath id="animationMask_sIZ6Wq8G28"><rect width="512" height="512" x="0" y="0"></rect></clipPath><clipPath id="cp_kQobabpd"><path d="M0,0 L512,0 L512,512 L0,512z"></path></clipPath></defs><g clip-path="url(#animationMask_sIZ6Wq8G28)"><g clip-path="url(#cp_kQobabpd)" transform="matrix(1,0,0,1,-0.05,4.8985)" opacity="1"><g transform="matrix(1,0,0,1,0,0)" opacity="1" style="user-select: none;"><g opacity="1" transform="matrix(1,0,0,1,228.177,57.526)"><path fill="rgb(255,210,217)" fill-opacity="1" d="M0 0 M21.62,0.001 C18.127000000000002,-5.231999999999999 4.880000000000001,-22.665 -8.369,-14.99 C-21.619999999999997,-7.324 -9.067,18.479 8.367,22.665"></path></g><g opacity="1" transform="matrix(1,0,0,1,233.123,49.058)"><path fill="rgb(248,174,198)" fill-opacity="1" d="M0 0 M-13.314,-6.523 C-14.723,-5.710999999999999 -15.823,-4.68 -16.674,-3.501 C-10.29,-3.3979999999999997 -2.2110000000000003,-1.7089999999999999 1.676,1.494 C5.233,4.429 10.039,10.111999999999998 13.322,14.197 C13.322,14.197 16.674,8.469 16.674,8.469 C13.181,3.2349999999999994 -0.0649999999999995,-14.198 -13.314,-6.523z"></path></g><g opacity="1" transform="matrix(1,0,0,1,233.754,61.012)"><path fill="rgb(241,150,168)" fill-opacity="1" d="M0 0 M10.81,2.443 C10.81,2.443 0.34699999999999953,-10.111 -5.229,-6.974 C-10.809000000000001,-3.834 -2.7910000000000004,6.973000000000001 5.228,10.111"></path></g><g opacity="1" transform="matrix(1,0,0,1,228.177,57.526)"><path stroke-linecap="round" stroke-linejoin="round" fill-opacity="0" stroke="rgb(62,9,39)" stroke-opacity="1" stroke-width="3.757" d="M0 0 M21.62,0.001 C18.127000000000002,-5.231999999999999 4.880000000000001,-22.665 -8.369,-14.99 C-21.619999999999997,-7.324 -9.067,18.479 8.367,22.665"></path></g></g><g transform="matrix(1,0,0,1,-4,-4)" opacity="1" style="user-select: none;"><g opacity="1" transform="matrix(1,0,0,1,273.985,286.469)"><path fill="rgb(244,73,130)" fill-opacity="1" d="M0 0 M-196.21892540515395,172.3134681081538 C-186.74792540515395,164.98146810815382 -164.198,161.77939351330778 -151.291,161.77939351330778 C-136.492,161.77939351330778 -121.43154270299988,168.64732972961545 -111.41554270299987,178.02632972961544 C-108.985,168.25691459400025 -101.2859891888463,159.13005297253864 -84.6169891888463,157.70105297253863 C-76.0389891888463,156.96505297253864 -69.74171243176951,161.66245729700015 -65.63271243176952,163.04345729700015 C-55.62271243176952,151.14345729700014 -40.39031891846173,134.03 -22.660318918461734,131.757 C-10.055318918461733,130.141 6.7494681081538275,130.30953189184618 16.278468108153827,137.26253189184618 C63.74446810815383,89.41653189184618 121.08793228962897,46.71746258146668 181.5412767570768,14.568201072238082 C180.8222767570768,10.768201072238085 180.50361189226908,6.3919210895697605 180.50361189226908,2.379921089569761 C180.50361189226908,-22.90307891043024 185.19888324376902,-43.19026594592309 209.8200691892692,-57.00060108111537 C193.88629549831174,-68.32588402158001 179.65140432446148,-84.28393621630765 179.65140432446148,-105.22593621630766 C179.65140432446148,-119.48593621630766 181.84207459484605,-135.44026594592307 194.90640432446148,-147.41132972961543 C180.08493449518892,-154.23581459009023 174.54309939835855,-162.15876607982068 169.84052108069247,-179.02732972961542 C14.033521080692491,-113.54732972961541 -120.519,-4.637167567596136 -213.591,134.08783243240387 C-206.2785247651506,143.44014368857958 -198.66392540515395,156.6854681081538 -196.21892540515395,172.3134681081538z"></path></g><g opacity="1" transform="matrix(1,0,0,1,281.235,295.386)"><path fill="rgb(255,144,33)" fill-opacity="1" d="M0 0 M-204.3797232429232,163.45593621630763 C-192.48226054034623,157.71432972961543 -174.15339891888465,152.11239351330778 -161.24639891888464,152.11239351330778 C-146.44739891888463,152.11239351330778 -133.795,157.37900000000002 -123.779,166.758 C-117.407,152.39000000000001 -103.293,139.849 -86.563,139.849 C-81.991,139.849 -75.604,140.132 -71.495,141.513 C-61.715,123.541 -45.908,116.34 -24.005,116.34 C-11.296999999999999,116.34 0.4399999999999995,120.452 9.969,127.405 C57.435,79.559 111.969,38.751999999999995 171.875,6.654 C171.156,2.854 170.763,-1.0660000000000007 170.763,-5.078 C170.763,-30.361 181.697,-57.146 203.216,-67.123 C183.75037477207286,-72.75332354622758 173.70953729742305,-91.4940691892692 172.13653729742305,-112.37706918926919 C170.67853729742305,-131.74006918926918 175.22373698629863,-144.09495604753525 187.1861383785384,-155.38779783776926 C177.1111383785384,-158.72079783776925 177.2737232429232,-161.3808616214616 170.8607232429232,-169.5508616214616 C16.87072324292319,-105.1768616214616 -115.921,4.576999999999998 -207.216,141.995 C-206.94996935761873,149.09551637620277 -205.72172324292322,154.87293621630764 -204.3797232429232,163.45593621630763z"></path></g><g opacity="1" transform="matrix(1,0,0,1,290.724,304.142)"><path fill="rgb(255,233,31)" fill-opacity="1" d="M0 0 M-168.94079783776925,144.06279243219242 C-154.14179783776925,144.06279243219242 -143.034,148.624 -133.019,158.003 C-126.647,143.635 -114.03200000000001,131.094 -97.302,131.094 C-92.73100000000001,131.094 -84.593,131.627 -80.485,133.008 C-70.704,115.036 -55.397999999999996,107.585 -33.495,107.585 C-20.787,107.585 -9.049999999999999,111.697 0.48,118.65 C47.946,70.804 102.47999999999999,29.996 162.386,-2.102 C161.666,-5.901999999999999 161.274,-9.822 161.274,-13.834 C161.274,-39.117000000000004 171.3408032433461,-64.96046810815382 192.8608032433461,-74.93746810815382 C175.51137477207286,-84.56505219472763 163.5459267373672,-101.85656968649768 163.10293621630765,-122.79386702703846 C162.6721726098421,-142.79393316297566 169.56334054076913,-154.9487340540769 169.32134054076914,-155.0327340540769 C12.36234054076913,-92.9977340540769 -102.738,7.218999999999994 -194.227,146.411 C-186.772,142.733 -177.81679783776926,144.06279243219242 -168.94079783776925,144.06279243219242z"></path></g><g opacity="1" transform="matrix(1,0,0,1,307.604,320.134)"><path fill="rgb(21,219,58)" fill-opacity="1" d="M0 0 M-150.898,141.51 C-144.526,127.142 -128.912,115.102 -112.181,115.102 C-107.61,115.102 -101.973,116.135 -97.864,117.516 C-88.084,99.54400000000001 -72.277,91.59205946810815 -50.374,91.59205946810815 C-37.666000000000004,91.59205946810815 -25.929000000000002,95.70405946810814 -16.399,102.65705946810814 C31.066000000000003,54.811059468108155 85.601,14.003 145.507,-18.094 C144.787,-21.895000000000003 144.394,-25.815 144.394,-29.827 C144.394,-55.11 153.93206918926919,-80.95246810815382 175.4520691892692,-90.92946810815383 C159.7080691892692,-102.35346810815383 145.79727135149994,-114.15433513519227 145.79727135149994,-135.09633513519228 C145.79727135149994,-137.20433513519228 143.24353162405097,-136.53665463363086 146.12540432446147,-139.59920216223074 C10.150404324461487,-81.26520216223072 -96.35072864850008,8.765393513307767 -180.15472864850008,128.61039351330777 C-168.95572864850007,130.43539351330776 -158.822,134.09 -150.898,141.51z"></path></g><g opacity="1" transform="matrix(1,0,0,1,319.471,333.193)"><path fill="rgb(10,227,244)" fill-opacity="1" d="M0 0 M-157.4819416218845,131.1931967566539 C-151.10994162188447,116.8251967566539 -141.1749308107308,111.57331891846174 -124.4439308107308,111.57331891846174 C-119.87293081073081,111.57331891846174 -116.83119675665388,113.87724972919253 -112.72219675665389,115.25824972919253 C-102.94219675665389,97.28624972919252 -84.144,78.534 -62.241,78.534 C-49.533,78.534 -37.796,82.646 -28.266,89.599 C19.199000000000005,41.75300000000001 73.73399999999998,0.9450000000000003 133.64,-31.152 C132.92,-34.953 132.527,-38.873 132.527,-42.885 C132.527,-68.168 142.56506918926917,-93.49660108111537 164.08506918926918,-103.47360108111538 C153.56706918926918,-111.10360108111537 143.8196702703846,-115.18346810815382 139.62167027038458,-127.76146810815382 C12.671670270384578,-71.78346810815381 -87.925,12.698999999999998 -167.356,124.581 C-165.439,125.96600000000001 -159.20094162188448,129.57719675665388 -157.4819416218845,131.1931967566539z"></path></g><g opacity="1" transform="matrix(1,0,0,1,343.555,333.609)"><path fill="rgb(31,197,255)" fill-opacity="1" d="M0 0 M-135.2027124317695,116.13859026996168 C-114.62540631337544,84.12727072037384 -96.47800000000001,84.617 -74.575,84.617 C-61.867000000000004,84.617 -61.879999999999995,82.22900000000001 -52.351,89.183 C-4.884999999999998,41.336000000000006 49.649,0.5280000000000022 109.556,-31.569 C108.836,-35.37 111.41874486523061,-44.36159567553852 111.41874486523061,-48.37359567553852 C111.41874486523061,-73.65659567553853 118.86127675707678,-90.54953189184619 141.646,-105.096 C138.40099999999998,-107.45100000000001 138.65800000000002,-105.372 135.918,-108.29 C25.661,-60.26500000000001 -74.544654053654,18.389052972538657 -148.87565405365402,110.93905297253865 C-145.034654053654,110.32605297253865 -137.7117124317695,115.29659026996168 -135.2027124317695,116.13859026996168z"></path></g><g opacity="1" transform="matrix(1,0,0,1,358.734,345.289)"><path fill="rgb(164,28,244)" fill-opacity="1" d="M0 0 M-67.529,77.503 C-30.052999999999997,40.031 11.378,6.734999999999999 56.389,-21.271 C67.685,-28.301000000000002 79.18599999999999,-34.981 90.865,-41.347 C92.03,-41.983000000000004 95.66274486523061,-44.3621383785384 96.8527448652306,-44.957138378538396 C96.51474486523061,-46.74513837853839 94.6200108111537,-59.414 94.8250108111537,-62.795 C95.2110108111537,-69.194 95.0730108111537,-72.69740432446149 97.3720108111537,-78.68140432446148 C54.1050108111537,-56.96540432446148 13.131000000000004,-29.618 -24.816,0.44 C-50.507,20.789 -80.285,49.409000000000006 -102.926,73.099 C-90.73400000000001,71.711 -76.23311893621631,74.49929353497238 -67.529,77.503 C-67.523,77.498 -76.92650529725387,76.62435103974119 -67.529,77.503z"></path></g><g opacity="1" transform="matrix(1,0,0,1,256.342,264.635)"><path stroke-linecap="round" stroke-linejoin="round" fill-opacity="0" stroke="rgb(62,9,39)" stroke-opacity="1" stroke-width="3.757" d="M0 0 M187.64165405365404,-157.81602918905773 C31.755654053654027,-92.25102918905775 -102.504,15.948999999999984 -195.744,154.682M0 0 M35.301527576261975,158.5599654053654 C82.78610426834497,110.70570304836473 138.2038889171411,69.362104051699 197.74488891714108,37.39210405169901"></path></g><g opacity="1" transform="matrix(1,0,0,1,276.352,267.311)"><path fill="rgb(13,89,127)" fill-opacity="0.33" d="M0 0 M-186.953,114.495 C-186.953,114.495 -172.31,133.32100000000003 -147.204,143.086 C-122.099,152.851 -97.692,159.823 -11.913,127.045 C73.86500000000001,94.271 124.072,29.412 133.139,15.466 C142.20600000000002,1.520999999999999 170.95499999999998,-28.467000000000002 174.444,-45.902 C177.92999999999998,-63.337 184.338,-108.955 171.786,-120.113 C159.234,-131.271 143.6,-151.206 143.6,-151.206 C143.6,-151.206 -186.953,114.495 -186.953,114.495z"></path></g></g><g transform="matrix(1,0,0,1,-4,-4)" opacity="1" style="user-select: none;"><g opacity="1" transform="matrix(1,0,0,1,463.549,218.106)"><path stroke-linecap="round" stroke-linejoin="round" fill-opacity="0" stroke="rgb(62,9,39)" stroke-opacity="1" stroke-width="3.757" d="M0 0 M-18.78954270299987,-124.321 C-19.292351351922832,-108.04653189184617 -17.657548108576723,-89.02792540515395 6.30180324334611,-77.82806378369234 C-7.265526486269323,-68.82526594592309 -12.305251182516079,-52.660472787068905 -9.882861621461606,-33.21326594592309 C-7.06956600203959,-10.6599732842974 4.099670270384563,4.21559567553852 20.49220216223074,11.56879783776926 C4.629404324461478,24.572404324461477 -5.311187035492849,29.430640207980133 -8.603989188846302,54.73621297338444 C-12.368938351906534,83.2398422746752 0.6304043244614794,114.62739351330778 16.16,124.321"></path></g></g><g transform="matrix(1,0,0,1,-4,-4)" opacity="1" style="user-select: none;"><g opacity="1" transform="matrix(1,0,0,1,171.538,440.59)"><path stroke-linecap="round" stroke-linejoin="round" fill-opacity="0" stroke="rgb(62,9,39)" stroke-opacity="1" stroke-width="3.757" d="M0 0 M143.422,28.864 C143.422,-3.0189999999999984 125.83116436757922,-18.53759380773485 94.192,-22.364 C69.34854270299986,-25.41159567553852 45.183489730461226,-8.51880864892296 35.403489730461224,9.45219135107704 C30.913489730461222,4.05319135107704 20.291154353048356,2.5384064600603597 11.359744865230613,5.4759837832694505 C1.485846711369684,8.707503238378848 -6.667164730910112,16.301998062235274 -8.968542702999873,24.816127567384694 C-16.77724216244219,17.67819135107704 -28.076050473608884,9.839509128396877 -46.10886702703846,7.424260540346237 C-61.011659554766545,5.44537959767284 -82.44742810794239,10.585664864807717 -93.30165945923088,18.693468108153827 C-97.49465945923087,-8.088531891846173 -113.538,-34.09 -143.422,-27.14"></path></g></g><g transform="matrix(1,0,0,1,0,0)" opacity="1" style="user-select: none;"><g opacity="1" transform="matrix(1,0,0,1,0,0)"><path fill="rgb(255,210,217)" fill-opacity="1" d="M0 0 M91.125,318.375 C91.125,318.375 68.375,319.125 71.125,356.125 C72.523,374.938 87.875,384.375 95.875,379.25 C103.875,374.125 104.875,361.5 99.25,345.5 C93.625,329.5 91.125,318.375 91.125,318.375z"></path></g><g opacity="1" transform="matrix(1,0,0,1,89.397,367.508)"><path fill="rgb(255,255,255)" fill-opacity="1" d="M0 0 M-14.645,-1.397 C-14.645,-1.397 -8.716,12.204 1.047,11.157 C10.808,10.111 14.645,0.696 14.645,0.696 C14.645,0.696 10.461,-5.231 10.461,-5.231 C10.461,-5.231 7.324,-12.205 -0.349,-9.763 C-8.02,-7.324 -14.645,-1.397 -14.645,-1.397z"></path></g><g opacity="1" transform="matrix(1,0,0,1,95.564,349.947)"><path fill="rgb(219,38,120)" fill-opacity="0.15" d="M0 0 M10.569,14.076 C10.569,14.076 -7.215,-11.029 -5.122,-29.51 C-5.122,-29.51 -13.84,-21.486 -11.747,-7.19 C-10.008,4.6770000000000005 -3.7190000000000003,20.386000000000003 -10.609,28.172 C-8.019,29.322 -5.316000000000001,29.509 -2.68,29.068 C5.6899999999999995,27.672 7.779,19.302 7.779,19.302 C7.779,19.302 6.99,15.901 6.99,15.901 C8.964,19.04 11.259,22.047 13.84,24.917 C13.84,24.917 10.569,14.076 10.569,14.076z"></path></g><g opacity="1" transform="matrix(1,0,0,1,85.212,349.725)"><path stroke-linecap="round" stroke-linejoin="round" fill-opacity="0" stroke="rgb(62,9,39)" stroke-opacity="1" stroke-width="3.757" d="M0 0 M6.487,-30.686 C-7.459,-30.686 -18.131,-18.829 -13.947,3.488 C-9.762999999999998,25.799 -0.6960000000000006,30.685 7.672,29.29 C16.041999999999998,27.893 18.131,19.522 18.131,19.522"></path></g><g opacity="1" transform="matrix(1,0,0,1,86.712,360.187)"><path stroke-linecap="round" stroke-linejoin="round" fill-opacity="0" stroke="rgb(62,9,39)" stroke-opacity="1" stroke-width="3.757" d="M0 0 M11.263,-1.396 C-0.5899999999999999,-5.5809999999999995 -9.169,5.58 -11.262,4.878"></path></g></g><g transform="matrix(1,0,0,1,0,0)" opacity="1" style="user-select: none;"><g opacity="1" transform="matrix(1,0,0,1,257.988,255.256)"><path fill="rgb(255,210,217)" fill-opacity="1" d="M0 0 M157.015,-109.298 C157.015,-109.298 105.65,-145.776 105.65,-145.776 C105.65,-145.776 -19.631,-163.383 -19.631,-163.383 C-19.631,-163.383 -25.677,-153.551 -35.672,-141.064 C-46.550999999999995,-127.46799999999999 -62.764,-117.007 -75.03,-97.711 C-88.694,-76.22999999999999 -93.039,-43.262 -71.657,-19.202 C-71.657,-19.202 -112.988,-16.256 -141.394,11.484 C-177.52800000000002,46.77 -161.80200000000002,104.24199999999999 -154.645,113.993 C-147.488,123.744 -137.59,132.017 -121.865,138.405 C-59.48799999999999,163.744 35.51199999999999,120.744 78.279,75.639 C124.14099999999999,27.269 128.491,12.876 128.491,12.876 C128.491,12.876 170.036,-10.293 179.397,-42.912 C190.90699999999998,-83.011 157.015,-109.298 157.015,-109.298zM0 0 M154.555,-61.568 C149.323,-47.964999999999996 138.864,-40.382 138.864,-40.382 C138.864,-40.382 144.877,-49.797 146.448,-62.349 C148.01600000000002,-74.90299999999999 147.49,-80.397 147.49,-80.397 C147.49,-80.397 150.371,-84.056 150.371,-84.056 C150.371,-84.056 158.374,-71.503 154.555,-61.568z"></path></g><g opacity="1" transform="matrix(1,0,0,1,316.306,263.903)"><path fill="rgb(248,174,198)" fill-opacity="1" d="M0 0 M98.697,-117.945 C98.697,-117.945 54.24,-149.515 54.24,-149.515 C54.24,-149.515 42.1,-152.855 42.1,-152.855 C42.1,-152.855 43.671,-125.132 43.671,-125.132 C43.671,-125.132 64.591,-102.643 67.729,-95.321 C70.867,-87.995 74.53,-57.135999999999996 53.086,-25.235 C31.641,6.673000000000002 -10.113,56.111000000000004 -45.943,81.293 C-58.839999999999996,90.35900000000001 -74.881,99.184 -82.902,102.913 C-97.407,109.646 -106.409,113.441 -114.828,114.116 C-127.90700000000001,115.162 -144.089,116.786 -139.382,128.815 C-136.898,135.163 -138.235,132.505 -138.221,137.855 C-131.056,134.959 -124.306,136.097 -112.232,136.424 C-62.458999999999996,129.139 -10.057000000000002,100.292 19.961,66.992 C64.59100000000001,17.483000000000004 70.173,4.229 70.173,4.229 C70.173,4.229 111.71799999999999,-18.939999999999998 121.079,-51.559 C132.589,-91.65799999999999 98.697,-117.945 98.697,-117.945zM0 0 M96.237,-70.215 C91.005,-56.612 80.546,-49.029 80.546,-49.029 C80.546,-49.029 86.559,-58.443999999999996 88.13,-70.996 C89.698,-83.55 89.172,-89.044 89.172,-89.044 C89.172,-89.044 92.053,-92.703 92.053,-92.703 C92.053,-92.703 100.056,-80.15 96.237,-70.215z"></path></g><g opacity="1" transform="matrix(1,0,0,1,270.191,154.639)"><path fill="rgb(248,174,198)" fill-opacity="1" d="M0 0 M-82.117,-6.452 C-82.117,-6.452 -80.02199999999999,7.148999999999999 -66.076,10.635 C-52.129999999999995,14.121 -33.302,7.147 -25.278,-2.267 C-17.261,-11.68 -8.193999999999999,-14.82 -2.266,-13.426 C3.6609999999999996,-12.034 8.194,-6.451 8.194,4.008 C8.194,14.469000000000001 17.96,30.51 31.556,33.298 C45.154,36.09 60.498000000000005,34.343 71.307,22.837 C82.117,11.331 51.085,-20.747 51.085,-20.747 C51.085,-20.747 -38.527,-36.09 -38.527,-36.09 C-38.527,-36.09 -82.117,-6.452 -82.117,-6.452z"></path></g><g opacity="1" transform="matrix(1,0,0,1,310.812,150.801)"><path fill="rgb(248,174,198)" fill-opacity="1" d="M0 0 M-84.731,-42.892 C-84.731,-42.892 -85.77600000000001,-27.721 -49.689,-22.491 C-13.597999999999999,-17.262 39.751,-9.413 47.073,-3.137 C54.394,3.14 77.40599999999999,16.215000000000003 75.838,39.749 C74.268,63.286 85.776,-10.984 85.776,-10.984 C85.776,-10.984 -69.561,-63.285 -69.561,-63.285 C-69.561,-63.285 -84.731,-42.892 -84.731,-42.892z"></path></g><g opacity="1" transform="matrix(1,0,0,1,274.339,218.761)"><path fill="rgb(248,174,198)" fill-opacity="1" d="M0 0 M-92.715,9.448 C-92.715,9.448 -79.65299999999999,24.069000000000003 -23.15,20.954 C43.273,17.293 92.715,-41.356 92.715,-41.356 C92.715,-41.356 61.056000000000004,32.984 -14.784,37.168 C-90.622,41.356 -92.715,9.448 -92.715,9.448z"></path></g><g opacity="1" transform="matrix(1,0,0,1,146.754,365.941)"><path fill="rgb(248,174,198)" fill-opacity="1" d="M0 0 M-54.218,-36.09 C-54.218,-36.09 -38.51,-3.806 -15.514,6.104 C8.747,16.559 43.401,15.808 54.905,12.321 C66.415,8.833 111.92,-4.771 111.92,-4.771 C111.92,-4.771 71.93499999999999,4.317 68.448,23.495 C64.957,42.676 21.448,36.089 21.448,36.089 C21.448,36.089 -17.260999999999996,29.117 -32.251,14.124 C-47.244,-0.8729999999999993 -54.919000000000004,-24.232000000000003 -54.218,-36.09z"></path></g><g opacity="1" transform="matrix(1,0,0,1,277.688,231.533)"><path fill="rgb(248,174,198)" fill-opacity="1" d="M0 0 M92.752,-53.359 C92.752,-53.359 54.568999999999996,33.289 -12.376,42.704 C-88.141,53.359 -92.752,1.732 -92.752,1.732 C-92.752,1.732 -67.81899999999999,33.289 2.266,18.119 C62.446,5.095000000000001 92.752,-53.359 92.752,-53.359z"></path></g><g opacity="1" transform="matrix(1,0,0,1,267.343,180.002)"><path stroke-linecap="round" stroke-linejoin="round" fill-opacity="0" stroke="rgb(62,9,39)" stroke-opacity="1" stroke-width="3.757" d="M0 0 M102.395,-4.619 C56.37,88.13 -53.118,87.434 -81.012,56.051 C-102.395,31.991000000000003 -98.049,-0.9759999999999991 -84.385,-22.457 C-72.12,-41.754000000000005 -55.906,-52.215 -45.027,-65.811 C-35.032000000000004,-78.298 -28.986,-88.13 -28.986,-88.13"></path></g><g opacity="1" transform="matrix(1,0,0,1,326.508,273.156)"><path stroke-linecap="round" stroke-linejoin="round" fill-opacity="0" stroke="rgb(62,9,39)" stroke-opacity="1" stroke-width="3.757" d="M0 0 M-122.386,127.198 C-72.62899999999999,119.901 -20.246,91.02799999999999 9.759,57.739 C54.389,8.229999999999997 59.97,-5.024 59.97,-5.024 C59.97,-5.024 101.516,-28.192999999999998 110.876,-60.812 C122.38600000000001,-100.911 88.495,-127.198 88.495,-127.198"></path></g><g opacity="1" transform="matrix(1,0,0,1,130.542,318.859)"><path stroke-linecap="round" stroke-linejoin="round" fill-opacity="0" stroke="rgb(62,9,39)" stroke-opacity="1" stroke-width="3.757" d="M0 0 M56.79,-81.805 C56.79,-81.805 16.733,-78.621 -13.947,-52.119 C-44.631,-25.621 -55.79,48.29900000000001 5.581,74.801 C15.86,79.241 46.458999999999996,86.64099999999999 73.553,81.431"></path></g><g opacity="1" transform="matrix(1,0,0,1,405.083,193.602)"><path stroke-linecap="round" stroke-linejoin="round" fill-opacity="0" stroke="rgb(62,9,39)" stroke-opacity="1" stroke-width="3.757" d="M0 0 M1.445,-18.219 C1.445,-18.219 -0.121,-9.503 -1.868,0.958 C-3.502,10.744 -9.538,23.971 -9.538,23.971 C-9.538,23.971 5.452999999999999,12.463000000000001 7.895,-2.18 C9.538,-12.036999999999999 3.016,-23.971 3.016,-23.971"></path></g><g opacity="1" transform="matrix(1,0,0,1,186.389,216.402)"><path stroke-linecap="round" stroke-linejoin="round" fill-opacity="0" stroke="rgb(255,249,250)" stroke-opacity="1" stroke-width="3.757" d="M0 0 M-1.373,-2.916 C-0.64,-0.9100000000000001 0.2669999999999999,1.0519999999999998 1.373,2.916"></path></g><g opacity="1" transform="matrix(1,0,0,1,182.057,194.983)"><path stroke-linecap="round" stroke-linejoin="round" fill-opacity="0" stroke="rgb(255,249,250)" stroke-opacity="1" stroke-width="3.757" d="M0 0 M0.477,-9.487 C0.251,-7.473000000000001 -0.69,0.572000000000001 0.69,9.487"></path></g><g opacity="1" transform="matrix(1,0,0,1,125.146,278.547)"><path stroke-linecap="round" stroke-linejoin="round" fill-opacity="0" stroke="rgb(255,249,250)" stroke-opacity="1" stroke-width="3.757" d="M0 0 M13.778,-14.69 C2.1029999999999998,-7.6419999999999995 -9.978000000000002,2.3089999999999993 -13.778,14.69"></path></g><g opacity="1" transform="matrix(1,0,0,1,157.251,254.787)"><path stroke-linecap="round" stroke-linejoin="round" fill-opacity="0" stroke="rgb(255,249,250)" stroke-opacity="1" stroke-width="3.757" d="M0 0 M7.115,-3.01 C7.115,-3.01 1.0030000000000001,-0.9280000000000004 -7.115,3.01"></path></g></g><g transform="matrix(0.8754,-0.4833,0.4833,0.8754,-159.1492,152.6488)" opacity="1" style="user-select: none;"><g opacity="1" transform="matrix(0.8746,-0.4848,0.4848,0.8746,197.6979,393.9166)"><path fill="rgb(255,210,217)" fill-opacity="1" d="M0 0 M34.171,-20.923 C34.171,-20.923 4.881,-37.658 -14.646,-20.222 C-34.17,-2.7870000000000026 -20.296917043177864,36.2082070409277 -6.355873586187716,36.93442828303658 C7.59044556085675,37.65953104325388 16.68055841390579,23.033597353649583 12.524427713924188,13.962744886901678 C8.363688909438938,4.892769056351895 16.733,1.3940000000000001 24.404,5.581"></path></g><g opacity="1" transform="matrix(1,0,0,1,0,0)"><path fill="rgb(255,255,255)" fill-opacity="1" d="M0 0 M215.67412719639734,401.37782096111795 C215.67412719639734,401.37782096111795 207.93182155685892,399.60990811519946 198.15909041756456,404.35396858328 C188.38668705091047,409.09799023617944 183.45723315781632,417.40102482747255 183.45723315781632,417.40102482747255 C183.45723315781632,417.40102482747255 204.43680972103724,437.0308085295553 214.94632390439205,425.95649067192693 C225.43993680189604,414.8869168919866 215.67412719639734,401.37782096111795 215.67412719639734,401.37782096111795z"></path></g><g opacity="1" transform="matrix(1,0,0,1,0,0)"><path fill="rgb(248,175,199)" fill-opacity="1" d="M0 0 M221.40082512272457,376.38983530446626 C210.15447683540964,371.1776796258208 197.6761791011634,380.2331616987805 199.65044918900372,393.87507544282255 C201.67848638575757,407.88439776444017 209.4996590754934,409.4261123728466 207.62565907549342,416.4341123728466 C205.75165907549342,423.44211237284657 195.23987869917505,426.1829556448863 195.23987869917505,426.1829556448863 C195.23987869917505,426.1829556448863 209.69554945929883,433.08415460270203 216.47954945929882,422.59115460270203 C223.26354945929882,412.09815460270204 218.58462268795316,404.56812408410553 213.0202378619067,399.3028941274909 C207.10537114072045,393.7080917069806 223.149,386.417 223.149,386.417 C223.149,386.417 228.11779232767853,379.4971082378686 221.40082512272457,376.38983530446626z"></path></g><g opacity="1" transform="matrix(1,0,0,1,0,0)"><path fill="rgb(255,255,255)" fill-opacity="0.58" d="M0 0 M215.67412719639734,401.37782096111795 C215.67412719639734,401.37782096111795 207.93182155685892,399.60990811519946 198.15909041756456,404.35396858328 C188.38668705091047,409.09799023617944 183.45723315781632,417.40102482747255 183.45723315781632,417.40102482747255 C183.45723315781632,417.40102482747255 204.43680972103724,437.0308085295553 214.94632390439205,425.95649067192693 C225.43993680189604,414.8869168919866 215.67412719639734,401.37782096111795 215.67412719639734,401.37782096111795z"></path></g><g opacity="1" transform="matrix(0.8746,-0.4848,0.4848,0.8746,197.6979,393.9166)"><path stroke-linecap="round" stroke-linejoin="round" fill-opacity="0" stroke="rgb(62,9,39)" stroke-opacity="1" stroke-width="3.757" d="M0 0 M34.171,-20.923 C34.171,-20.923 4.881,-37.658 -14.646,-20.222 C-34.17,-2.7870000000000026 -20.296917043177864,36.2082070409277 -6.355873586187716,36.93442828303658 C7.59044556085675,37.65953104325388 16.68055841390579,23.033597353649583 12.524427713924188,13.962744886901678 C8.363688909438938,4.892769056351895 16.733,1.3940000000000001 24.404,5.581"></path></g><g opacity="1" transform="matrix(1,0,0,1,0,0)"><path stroke-linecap="butt" stroke-linejoin="miter" fill-opacity="0" stroke-miterlimit="4" stroke="rgb(62,10,39)" stroke-opacity="1" stroke-width="3.757" d="M0 0 M183.86060031475006,416.40266051610075 C183.86060031475006,416.40266051610075 196.7378972397827,397.01708583803685 214.631099852374,400.2480492103954"></path></g></g><g transform="matrix(1,0,0,1,0,0)" opacity="1" style="user-select: none;"><g opacity="1" transform="matrix(1,0,0,1,246.653,225.943)"><path stroke-linecap="round" stroke-linejoin="round" fill-opacity="0" stroke="rgb(62,9,39)" stroke-opacity="1" stroke-width="3.757" d="M0 0 M-13.6,-9.414 C-13.6,-9.414 -15.691,3.8339999999999996 -3.137,6.624 C9.415,9.414 15.69,-3.137 15.69,-3.137"></path></g></g><g transform="matrix(1,0,0,1,0,0)" opacity="1" style="user-select: none;"><g opacity="1" transform="matrix(1,0,0,1,202.286,184.797)"><path fill="rgb(62,9,39)" fill-opacity="1" d="M0 0 M2.354,-0.001 C2.354,1.7320000000000002 1.298,3.137 -0.002,3.137 C-1.301,3.137 -2.354,1.7320000000000002 -2.354,-0.001 C-2.354,-1.7349999999999999 -1.301,-3.137 -0.002,-3.137 C1.298,-3.137 2.354,-1.7349999999999999 2.354,-0.001z"></path></g><g opacity="1" transform="matrix(1,0,0,1,220.852,186.89)"><path fill="rgb(62,9,39)" fill-opacity="1" d="M0 0 M2.354,-0.001 C2.354,1.7280000000000002 1.2990000000000002,3.137 -0.001,3.137 C-1.2999999999999998,3.137 -2.354,1.7280000000000002 -2.354,-0.001 C-2.354,-1.734 -1.2999999999999998,-3.137 -0.001,-3.137 C1.2990000000000002,-3.137 2.354,-1.734 2.354,-0.001z"></path></g></g><g transform="matrix(1,0,0,1,2,8)" opacity="1" style="user-select: none;"><g opacity="1" transform="matrix(1,0,0,1,317.183,200.932)"><path fill="rgb(240,134,159)" fill-opacity="1" d="M0 0 M-12.697,-2.556 C-10.834,-9.596 15.91,-6.636 15.048,1.019 C14.184,8.671999999999999 -15.911,9.596 -12.697,-2.556z"></path></g></g><g transform="matrix(1,0,0,1,2,8)" opacity="1" style="user-select: none;"><g opacity="1" transform="matrix(1,0,0,1,181.482,166.486)"><path fill="rgb(240,134,159)" fill-opacity="1" d="M0 0 M-9.619,-4.574 C-7.209,-8.334 12.832,-6.181 12.736,0.929 C12.641,8.04 4.021,8.334 -2.117,7.017 C-8.254,5.704000000000001 -12.832,0.44099999999999984 -9.619,-4.574z"></path></g></g><g transform="matrix(1,0,0,1,0,0)" opacity="1" style="user-select: none;"><g opacity="1" transform="matrix(1,0,0,1,281.686,89.345)"><path fill="rgb(37,223,237)" fill-opacity="1" d="M0 0 M-281.686,-89.345 C-281.686,-89.345 230.314,-89.345 230.314,-89.345 C230.314,-89.345 230.314,422.655 230.314,422.655 C230.314,422.655 -281.686,422.655 -281.686,422.655 C-281.686,422.655 -281.686,-89.345 -281.686,-89.345zM0 0 M-281.686,422.655 C-281.686,422.655 230.314,422.655 230.314,422.655 C230.314,422.655 230.314,-89.345 230.314,-89.345 C230.314,-89.345 -281.686,-89.345 -281.686,-89.345 C-281.686,-89.345 -281.686,422.655 -281.686,422.655zM0 0 M-11.669,-40.535 C-11.669,-40.535 -24.744,-36.875 -35.728,-24.845 C-46.711,-12.815 -50.989000000000004,16.326 -16.374,32.167 C14.484000000000002,46.289 45.861,45.239 45.861,45.239 C45.861,45.239 50.989,4.1910000000000025 40.11,-16.476 C24.418,-46.289 -11.669,-40.535 -11.669,-40.535z"></path><g opacity="1" transform="matrix(1,0,0,1,0,0)"></g></g><g opacity="1" transform="matrix(1,0,0,1,333.302,92.221)"><path fill="rgb(121,213,39)" fill-opacity="1" d="M0 0 M-333.302,-92.221 C-333.302,-92.221 178.698,-92.221 178.698,-92.221 C178.698,-92.221 178.698,419.779 178.698,419.779 C178.698,419.779 -333.302,419.779 -333.302,419.779 C-333.302,419.779 -333.302,-92.221 -333.302,-92.221zM0 0 M-333.302,419.779 C-333.302,419.779 178.698,419.779 178.698,419.779 C178.698,419.779 178.698,-92.221 178.698,-92.221 C178.698,-92.221 -333.302,-92.221 -333.302,-92.221 C-333.302,-92.221 -333.302,419.779 -333.302,419.779zM0 0 M-33.474,-40.797 C-31.903999999999996,-40.273999999999994 -20.92,-44.980999999999995 0,-39.227 C20.922,-33.474 33.475,-5.23 30.861,17.783 C28.244,40.794 27.723,44.981 27.723,44.981 C27.723,44.981 2.0939999999999994,43.413 -5.23,36.089"></path><g opacity="1" transform="matrix(1,0,0,1,0,0)"></g></g><g opacity="1" transform="matrix(1,0,0,1,333.302,92.222)"><path fill="rgb(146,244,69)" fill-opacity="1" d="M0 0 M-333.302,-92.222 C-333.302,-92.222 178.698,-92.222 178.698,-92.222 C178.698,-92.222 178.698,419.778 178.698,419.778 C178.698,419.778 -333.302,419.778 -333.302,419.778 C-333.302,419.778 -333.302,-92.222 -333.302,-92.222zM0 0 M-333.302,419.778 C-333.302,419.778 178.698,419.778 178.698,419.778 C178.698,419.778 178.698,-92.222 178.698,-92.222 C178.698,-92.222 -333.302,-92.222 -333.302,-92.222 C-333.302,-92.222 -333.302,419.778 -333.302,419.778zM0 0 M-0.001,-39.227 C-20.921000000000003,-44.980999999999995 -31.904,-40.273999999999994 -33.475,-40.797 C-33.475,-40.797 -30.189,-31.861 -30.189,-31.861 C-30.189,-31.861 -23.535,-33.475 -23.535,-33.475 C-23.535,-33.475 -1.045,-19.352 3.138,5.232 C6.2669999999999995,23.591 6.766,36.402 6.817,41.714 C16.524,44.293 27.723,44.981 27.723,44.981 C27.723,44.981 28.243,40.794 30.86,17.782 C33.475,-5.23 20.921,-33.474999999999994 -0.001,-39.227z"></path><g opacity="1" transform="matrix(1,0,0,1,0,0)"></g></g><g opacity="1" transform="matrix(1,0,0,1,333.302,92.222)"><path fill="rgb(255,221,47)" fill-opacity="1" d="M0 0 M-333.302,-92.222 C-333.302,-92.222 178.698,-92.222 178.698,-92.222 C178.698,-92.222 178.698,419.778 178.698,419.778 C178.698,419.778 -333.302,419.778 -333.302,419.778 C-333.302,419.778 -333.302,-92.222 -333.302,-92.222zM0 0 M-333.302,419.778 C-333.302,419.778 178.698,419.778 178.698,419.778 C178.698,419.778 178.698,-92.222 178.698,-92.222 C178.698,-92.222 -333.302,-92.222 -333.302,-92.222 C-333.302,-92.222 -333.302,419.778 -333.302,419.778zM0 0 M30.861,17.782 C33.475,-5.231000000000002 20.922,-33.474999999999994 0,-39.227 C-20.92,-44.980999999999995 -31.903999999999996,-40.275 -33.474,-40.798 C-33.474,-40.798 -32.883,-39.189 -32.883,-39.189 C-32.883,-39.189 -4.180999999999999,-34.521 7.846,-8.892 C16.829,10.241 20.564,33.744 21.877,44.427 C25.362,44.833999999999996 27.723,44.981 27.723,44.981 C27.723,44.981 28.244,40.793 30.861,17.782z"></path><g opacity="1" transform="matrix(1,0,0,1,0,0)"></g></g><g opacity="1" transform="matrix(1,0,0,1,279.214,97.288)"><path fill="rgb(0,185,199)" fill-opacity="1" d="M0 0 M-279.214,-97.288 C-279.214,-97.288 232.786,-97.288 232.786,-97.288 C232.786,-97.288 232.786,414.711 232.786,414.711 C232.786,414.711 -279.214,414.711 -279.214,414.711 C-279.214,414.711 -279.214,-97.288 -279.214,-97.288zM0 0 M-279.214,414.711 C-279.214,414.711 232.786,414.711 232.786,414.711 C232.786,414.711 232.786,-97.288 232.786,-97.288 C232.786,-97.288 -279.214,-97.288 -279.214,-97.288 C-279.214,-97.288 -279.214,414.711 -279.214,414.711zM0 0 M48.333,37.296 C48.333,37.296 48.406000000000006,36.716 48.517,35.697 C33.758,31.338 9.123000000000001,22.557000000000002 -9.197,8.356 C-27.316,-5.6850000000000005 -28.661,-25.895999999999997 -27.381,-38.346 C-29.349,-36.727999999999994 -31.335,-34.891999999999996 -33.256,-32.787 C-44.24,-20.758 -48.517,8.382 -13.902,24.223 C16.956000000000003,38.345 48.333,37.296 48.333,37.296z"></path><g opacity="1" transform="matrix(1,0,0,1,0,0)"></g></g><g opacity="1" transform="matrix(1,0,0,1,294.626,88.832)"><path fill="rgb(120,249,190)" fill-opacity="1" d="M0 0 M-294.626,-88.832 C-294.626,-88.832 217.374,-88.832 217.374,-88.832 C217.374,-88.832 217.374,423.168 217.374,423.168 C217.374,423.168 -294.626,423.168 -294.626,423.168 C-294.626,423.168 -294.626,-88.832 -294.626,-88.832zM0 0 M-294.626,423.168 C-294.626,423.168 217.374,423.168 217.374,423.168 C217.374,423.168 217.374,-88.832 217.374,-88.832 C217.374,-88.832 -294.626,-88.832 -294.626,-88.832 C-294.626,-88.832 -294.626,423.168 -294.626,423.168zM0 0 M32.921,45.753 C32.921,45.753 38.048,4.705000000000002 27.169,-15.962 C11.477,-45.774 -24.609,-40.021 -24.609,-40.021 C-24.609,-40.021 -30.698,-38.312 -38.049,-33.413 C-22.805999999999997,-32.544999999999995 -3.8089999999999993,-28.573999999999998 6.077,-15.264 C20.843,4.616 29.137,35.134 31.701,45.775 C32.489,45.769 32.921,45.753 32.921,45.753z"></path><g opacity="1" transform="matrix(1,0,0,1,0,0)"></g></g><g opacity="1" transform="matrix(1,0,0,1,281.686,89.345)"><path stroke-linecap="round" stroke-linejoin="round" fill-opacity="0" stroke="rgb(13,88,126)" stroke-opacity="1" stroke-width="3.757" d="M0 0 M-11.669,-40.535 C-11.669,-40.535 -24.744,-36.875 -35.728,-24.845 C-46.711,-12.815 -50.989000000000004,16.326 -16.374,32.167 C14.484000000000002,46.289 45.861,45.239 45.861,45.239 C45.861,45.239 50.989,4.1910000000000025 40.11,-16.476 C24.418,-46.289 -11.669,-40.535 -11.669,-40.535z"></path></g><g opacity="1" transform="matrix(1,0,0,1,390.836,125.957)"><path fill="rgb(37,223,237)" fill-opacity="1" d="M0 0 M-390.836,-125.957 C-390.836,-125.957 121.164,-125.957 121.164,-125.957 C121.164,-125.957 121.164,386.043 121.164,386.043 C121.164,386.043 -390.836,386.043 -390.836,386.043 C-390.836,386.043 -390.836,-125.957 -390.836,-125.957zM0 0 M-390.836,386.043 C-390.836,386.043 121.164,386.043 121.164,386.043 C121.164,386.043 121.164,-125.957 121.164,-125.957 C121.164,-125.957 -390.836,-125.957 -390.836,-125.957 C-390.836,-125.957 -390.836,386.043 -390.836,386.043zM0 0 M-35.568,-57.794 C-35.568,-57.794 -3.1370000000000005,-58.839999999999996 16.214,-26.412 C35.568,6.015000000000001 10.462,58.84 10.462,58.84 C10.462,58.84 11.509,40.536 3.661,29.55 C-4.1850000000000005,18.568 -23.535,12.814 -28.244,2.353"></path><g opacity="1" transform="matrix(1,0,0,1,0,0)"></g></g><g opacity="1" transform="matrix(1,0,0,1,390.208,125.629)"><path fill="rgb(66,137,239)" fill-opacity="1" d="M0 0 M-390.208,-125.629 C-390.208,-125.629 121.792,-125.629 121.792,-125.629 C121.792,-125.629 121.792,386.371 121.792,386.371 C121.792,386.371 -390.208,386.371 -390.208,386.371 C-390.208,386.371 -390.208,-125.629 -390.208,-125.629zM0 0 M-390.208,386.371 C-390.208,386.371 121.792,386.371 121.792,386.371 C121.792,386.371 121.792,-125.629 121.792,-125.629 C121.792,-125.629 -390.208,-125.629 -390.208,-125.629 C-390.208,-125.629 -390.208,386.371 -390.208,386.371zM0 0 M16.841,-26.085 C-2.5109999999999992,-58.513 -34.941,-57.467 -34.941,-57.467 C-34.941,-57.467 -34.227,-51.649 -34.227,-51.649 C-33.903999999999996,-51.246 -33.718,-51.015 -33.718,-51.015 C-33.718,-51.015 -21.512999999999998,-19.982 -13.144,-5.686 C-5.275,7.759 14.317,32.933 11.391,58.512 C14.158999999999999,52.4 34.94,4.239000000000001 16.841,-26.085z"></path><g opacity="1" transform="matrix(1,0,0,1,0,0)"></g></g><g opacity="1" transform="matrix(1,0,0,1,381.64,138.001)"><path fill="rgb(16,206,221)" fill-opacity="1" d="M0 0 M-381.64,-138.001 C-381.64,-138.001 130.36,-138.001 130.36,-138.001 C130.36,-138.001 130.36,373.999 130.36,373.999 C130.36,373.999 -381.64,373.999 -381.64,373.999 C-381.64,373.999 -381.64,-138.001 -381.64,-138.001zM0 0 M-381.64,373.999 C-381.64,373.999 130.36,373.999 130.36,373.999 C130.36,373.999 130.36,-138.001 130.36,-138.001 C130.36,-138.001 -381.64,-138.001 -381.64,-138.001 C-381.64,-138.001 -381.64,373.999 -381.64,373.999zM0 0 M19.658,39.996 C21.751,18.027 5.011,1.2909999999999995 -4.403,-6.03 C-13.817999999999998,-13.350000000000001 -17.478,-40.547 -17.478,-40.547 C-17.478,-40.547 -21.751,-31.892 -21.751,-31.892 C-21.751,-31.892 -19.048,-9.69 -19.048,-9.69 C-14.338999999999999,0.7710000000000008 5.011,6.525000000000002 12.856,17.507 C17.794,24.418 19.208000000000002,34.218999999999994 19.579,40.547 C19.604,40.367999999999995 19.641000000000002,40.192 19.658,39.996z"></path><g opacity="1" transform="matrix(1,0,0,1,0,0)"></g></g><g opacity="1" transform="matrix(1,0,0,1,390.836,125.957)"><path fill="rgb(199,87,253)" fill-opacity="1" d="M0 0 M-390.836,-125.957 C-390.836,-125.957 121.164,-125.957 121.164,-125.957 C121.164,-125.957 121.164,386.043 121.164,386.043 C121.164,386.043 -390.836,386.043 -390.836,386.043 C-390.836,386.043 -390.836,-125.957 -390.836,-125.957zM0 0 M-390.836,386.043 C-390.836,386.043 121.164,386.043 121.164,386.043 C121.164,386.043 121.164,-125.957 121.164,-125.957 C121.164,-125.957 -390.836,-125.957 -390.836,-125.957 C-390.836,-125.957 -390.836,386.043 -390.836,386.043zM0 0 M16.214,-26.412 C-3.1380000000000017,-58.839999999999996 -35.568,-57.794 -35.568,-57.794 C-35.568,-57.794 -35.387,-56.331 -35.387,-56.331 C-26.954,-51.466 -11.704,-40.457 -4.355,-21.353 C2.0379999999999994,-4.720000000000002 7.126999999999999,20.9 8.921,42.131 C10.907,50.769 10.462,58.84 10.462,58.84 C10.462,58.84 35.568,6.014000000000003 16.214,-26.412z"></path><g opacity="1" transform="matrix(1,0,0,1,0,0)"></g></g><g opacity="1" transform="matrix(1,0,0,1,391.802,125.92)"><path fill="rgb(232,68,121)" fill-opacity="1" d="M0 0 M-391.802,-125.92 C-391.802,-125.92 120.198,-125.92 120.198,-125.92 C120.198,-125.92 120.198,386.08 120.198,386.08 C120.198,386.08 -391.802,386.08 -391.802,386.08 C-391.802,386.08 -391.802,-125.92 -391.802,-125.92zM0 0 M-391.802,386.08 C-391.802,386.08 120.198,386.08 120.198,386.08 C120.198,386.08 120.198,-125.92 120.198,-125.92 C120.198,-125.92 -391.802,-125.92 -391.802,-125.92 C-391.802,-125.92 -391.802,386.08 -391.802,386.08zM0 0 M15.247,-26.375 C-0.13899999999999935,-52.156 -23.771,-56.774 -32.822,-57.587 C-20.949000000000005,-52.447 -1.1720000000000006,-41.108 6.881,-20.272 C16.441000000000003,4.481000000000002 13.299,36.715 10.076,57.587 C13.735,49.335 32.821,3.071999999999999 15.247,-26.375z"></path><g opacity="1" transform="matrix(1,0,0,1,0,0)"></g></g><g opacity="1" transform="matrix(1,0,0,1,390.836,125.957)"><path stroke-linecap="round" stroke-linejoin="round" fill-opacity="0" stroke="rgb(13,88,126)" stroke-opacity="1" stroke-width="3.757" d="M0 0 M-35.568,-57.794 C-35.568,-57.794 -3.1370000000000005,-58.839999999999996 16.214,-26.412 C35.568,6.015000000000001 10.462,58.84 10.462,58.84 C10.462,58.84 11.509,40.536 3.661,29.55 C-4.1850000000000005,18.568 -23.535,12.814 -28.244,2.353"></path></g><g opacity="1" transform="matrix(1,0,0,1,333.302,92.222)"><path fill="rgb(234,162,49)" fill-opacity="1" d="M0 0 M-333.302,-92.222 C-333.302,-92.222 178.698,-92.222 178.698,-92.222 C178.698,-92.222 178.698,419.778 178.698,419.778 C178.698,419.778 -333.302,419.778 -333.302,419.778 C-333.302,419.778 -333.302,-92.222 -333.302,-92.222zM0 0 M-333.302,419.778 C-333.302,419.778 178.698,419.778 178.698,419.778 C178.698,419.778 178.698,-92.222 178.698,-92.222 C178.698,-92.222 -333.302,-92.222 -333.302,-92.222 C-333.302,-92.222 -333.302,419.778 -333.302,419.778zM0 0 M-0.001,-39.227 C-20.921000000000003,-44.980999999999995 -31.904,-40.273999999999994 -33.475,-40.797 C-33.475,-40.797 -32.884,-39.188 -32.884,-39.188 C-27.733,-38.832 7.448,-34.252 17.782,-11.507 C25.627,5.755000000000001 24.346999999999998,30.726999999999997 24.58,44.721 C26.522,44.906 27.723,44.981 27.723,44.981 C27.723,44.981 28.243,40.794 30.86,17.782 C33.475,-5.23 20.921,-33.474999999999994 -0.001,-39.227z"></path><g opacity="1" transform="matrix(1,0,0,1,0,0)"></g></g><g opacity="1" transform="matrix(1,0,0,1,333.302,92.221)"><path stroke-linecap="round" stroke-linejoin="round" fill-opacity="0" stroke="rgb(13,88,126)" stroke-opacity="1" stroke-width="3.757" d="M0 0 M-33.474,-40.797 C-31.903999999999996,-40.273999999999994 -20.92,-44.980999999999995 0,-39.227 C20.922,-33.474 33.475,-5.23 30.861,17.783 C28.244,40.794 27.723,44.981 27.723,44.981 C27.723,44.981 2.0939999999999994,43.413 -5.23,36.089"></path></g></g><g transform="matrix(1,0,0,1,0,0)" opacity="1" style="user-select: none;"><g opacity="1" transform="matrix(1,0,0,1,276.395,145.993)"><path fill="rgb(62,9,39)" fill-opacity="1" d="M0 0 M-92.862,-44.513 C-94.152,-42.492 -95.053,-40.658 -95.893,-38.453 C-96.73,-36.25 -97.383,-33.374 -95.098,-32.195 C-94.568,-31.923000000000002 -93.895,-31.634 -92.901,-31.263 C-91.472,-30.735000000000003 -90.674,-29.09 -91.429,-27.146 C-94.10000000000001,-20.278 -98.574,-3.4659999999999993 -84.309,7.948 C-66.003,22.59 -44.036,13.174 -34.618,3.76 C-25.205000000000002,-5.652000000000001 -25.335,-6.7 -23.637,-9.314 C-21.94,-11.928 -15.792000000000002,-14.021999999999998 -7.424,-11.408 C0.9449999999999994,-8.79 7.614000000000001,-3.69 7.746,-0.423 C7.8740000000000006,2.847 4.556999999999999,33.392999999999994 29.708,39.849 C60.852999999999994,47.845 75.066,23.337 79.43,13.454 C80.492,11.051 82.71300000000001,10.319 84.539,10.659 C85.97800000000001,10.924000000000001 87.783,11.638 89.363,12.199 C91.866,13.084999999999999 94.42500000000001,12.105 95.284,9.983 C96.138,7.859 97.167,4.85 97.871,2.215 C98.57499999999999,-0.42300000000000004 97.648,-3.0730000000000004 94.533,-4.783 C87.022,-8.909 70.858,-16.706 48.014,-21.866 C15.589000000000006,-29.188 5.6530000000000005,-23.959 -3.238,-26.048 C-12.133,-28.142999999999997 -29.912999999999997,-37.033 -51.358,-41.742 C-65.67999999999999,-44.885999999999996 -78.60300000000001,-46.631 -85.608,-47.441 C-89.089,-47.845000000000006 -91.041,-47.367 -92.862,-44.513z"></path></g></g><g transform="matrix(1,0,0,1,0,0)" opacity="0.720983846218618" style="user-select: none;"><g opacity="1" transform="matrix(1,0,0,1,213.714,128.563)"><path fill="rgb(255,255,255)" fill-opacity="1" d="M0 0 M23.916,-16.451 C21.984,-17.069 19.994,-17.667 17.945,-18.242 C17.945,-18.242 -23.917,14.157 -23.917,14.157 C-23.263,15.548 -22.433,16.914 -21.389,18.242 C-21.389,18.242 23.916,-16.451 23.916,-16.451z"></path></g><g opacity="1" transform="matrix(1,0,0,1,223.673,134.557)"><path fill="rgb(255,255,255)" fill-opacity="1" d="M0 0 M-25.278,17.716 C-24.279999999999998,18.384 -23.276999999999997,18.973999999999997 -22.258,19.49 C-22.258,19.49 25.279,-18.487 25.279,-18.487 C24.394,-18.819 23.491,-19.155 22.564,-19.491 C22.564,-19.491 -25.278,17.716 -25.278,17.716z"></path></g><g opacity="1" transform="matrix(1,0,0,1,315.243,147.621)"><path fill="rgb(255,255,255)" fill-opacity="1" d="M0 0 M-26.042,8.052 C-25.743000000000002,11.347999999999999 -25.075,15.137999999999998 -23.663,18.819 C-23.663,18.819 26.042,-14.849 26.042,-14.849 C21.942,-16.240000000000002 17.436,-17.595 12.521,-18.82 C12.521,-18.82 -26.042,8.052 -26.042,8.052z"></path></g><g opacity="1" transform="matrix(1,0,0,1,323.823,155.472)"><path fill="rgb(255,255,255)" fill-opacity="1" d="M0 0 M23.547,-20.506 C23.547,-20.506 -28.85,17.276 -28.85,17.276 C-28.009,18.421 -27.040000000000003,19.499 -25.952,20.505 C-25.952,20.505 28.851,-18.36 28.851,-18.36 C27.198999999999998,-19.063 25.433,-19.78 23.547,-20.506z"></path></g></g><g transform="matrix(1,0,0,1,0,0)" opacity="1" style="user-select: none;"><g opacity="1" transform="matrix(1,0,0,1,402.692,83.678)"><path fill="rgb(255,210,217)" fill-opacity="1" d="M0 0 M-26.326,4.182 C-26.326,4.182 -17.26,-3.8369999999999997 -10.284,-12.555 C-3.3130000000000006,-21.268 12.377000000000002,-23.712000000000003 19.353,-14.992 C26.326,-6.279000000000002 16.216,12.203000000000001 1.568,17.783 C-13.208,23.411 -21.792,23.712 -21.792,23.712"></path></g><g opacity="1" transform="matrix(1,0,0,1,400.159,75.46)"><path fill="rgb(248,174,198)" fill-opacity="1" d="M0 0 M23.793,-2.687 C23.448,-4.193 22.842,-5.58 21.886,-6.773 C14.91,-15.494 -0.7800000000000002,-13.049 -7.751,-4.337 C-14.727,4.382 -23.793,12.4 -23.793,12.4 C-23.793,12.4 -23.076,15.493 -23.076,15.493 C-19.239,13.053 -12.867999999999999,8.7 -7.058,3.335 C0.6429999999999998,-3.771 15.116999999999999,-7.329000000000001 23.793,-2.687z"></path></g><g opacity="1" transform="matrix(1,0,0,1,394.673,89.604)"><path fill="rgb(241,150,168)" fill-opacity="1" d="M0 0 M-15.863,4.188 C-15.863,4.188 -7.501,1.0500000000000007 0.173,-5.576 C7.844,-12.204999999999998 15.863,-10.11 14.818,-4.534 C13.774,1.0499999999999998 -2.963000000000001,12.203999999999999 -14.816,11.857"></path></g><g opacity="1" transform="matrix(1,0,0,1,402.692,83.678)"><path stroke-linecap="round" stroke-linejoin="round" fill-opacity="0" stroke="rgb(62,9,39)" stroke-opacity="1" stroke-width="3.757" d="M0 0 M-26.326,4.182 C-26.326,4.182 -17.26,-3.8369999999999997 -10.284,-12.555 C-3.3130000000000006,-21.268 12.377000000000002,-23.712000000000003 19.353,-14.992 C26.326,-6.279000000000002 16.216,12.203000000000001 1.568,17.783 C-13.208,23.411 -21.792,23.712 -21.792,23.712"></path></g></g><g transform="matrix(1,0,0,1,0,0)" opacity="1" style="user-select: none;"><g opacity="1" transform="matrix(1,0,0,1,377.412,99.37)"><path stroke-linecap="round" stroke-linejoin="round" fill-opacity="0" stroke="rgb(13,88,126)" stroke-opacity="1" stroke-width="3.757" d="M0 0 M-4.88,-14.993 C-4.88,-14.993 4.88,2.4410000000000007 3.141,14.993"></path></g></g><g transform="matrix(1,0,0,1,0,0)" opacity="1" style="user-select: none;"><g opacity="1" transform="matrix(1,0,0,1,288.755,51.942)"><path fill="rgb(255,255,255)" fill-opacity="1" d="M0 0 M9.865,41.06 C0.6470000000000002,44.285000000000004 -14.54,46.178 -16.479,25.744 C-18.407999999999998,5.314 -20.089000000000002,-20.192 -20.806,-31.243 C-21.514,-42.293 -14.543999999999999,-46.178000000000004 -8.758,-34.868 C-2.9749999999999988,-23.565 13.983,9.913 17.039,16.418 C20.102,22.933999999999997 21.514,36.986000000000004 9.865,41.06z"></path></g><g opacity="1" transform="matrix(1,0,0,1,292.752,53.945)"><path fill="rgb(215,213,213)" fill-opacity="1" d="M0 0 M-15.331,37.027 C-2.0969999999999995,37.718 8.391,27.54 5.331,17.56 C2.4850000000000003,8.238999999999999 -11.717,-28.114 -17.518,-42.856 C-15.96,-41.86 -14.314,-39.923 -12.755,-36.871 C-6.972,-25.568 9.986,7.91 13.042,14.416 C16.106,20.931 17.518,34.984 5.868,39.057 C-0.4579999999999993,41.27 -9.593,42.856 -15.331,37.027z"></path></g><g opacity="1" transform="matrix(1,0,0,1,278.737,33.49)"><path stroke-linecap="round" stroke-linejoin="round" fill-opacity="0" stroke="rgb(62,9,39)" stroke-opacity="1" stroke-width="3.757" d="M0 0 M10.158,1.075 C10.158,1.075 -0.5919999999999987,3.278 -10.158,-3.278"></path></g><g opacity="1" transform="matrix(1,0,0,1,284.588,55.302)"><path stroke-linecap="round" stroke-linejoin="round" fill-opacity="0" stroke="rgb(62,9,39)" stroke-opacity="1" stroke-width="3.757" d="M0 0 M13.983,-1.541 C13.983,-1.541 1.263,5.457 -13.983,-5.457"></path></g><g opacity="1" transform="matrix(1,0,0,1,289.51,76.489)"><path stroke-linecap="round" stroke-linejoin="round" fill-opacity="0" stroke="rgb(62,9,39)" stroke-opacity="1" stroke-width="3.757" d="M0 0 M17.93,-2.987 C17.93,-2.987 -1.6759999999999984,6.529 -17.93,-6.529"></path></g><g opacity="1" transform="matrix(1,0,0,1,288.755,51.942)"><path stroke-linecap="round" stroke-linejoin="round" fill-opacity="0" stroke="rgb(62,9,39)" stroke-opacity="1" stroke-width="3.757" d="M0 0 M9.865,41.06 C0.6470000000000002,44.285000000000004 -14.54,46.178 -16.479,25.744 C-18.407999999999998,5.314 -20.089000000000002,-20.192 -20.806,-31.243 C-21.514,-42.293 -14.543999999999999,-46.178000000000004 -8.758,-34.868 C-2.9749999999999988,-23.565 13.983,9.913 17.039,16.418 C20.102,22.933999999999997 21.514,36.986000000000004 9.865,41.06z"></path></g></g></g></g></svg>