<svg xmlns="http://www.w3.org/2000/svg" viewBox="0 0 512 512" width="512" height="512" class="svg_sticker_animation" preserveAspectRatio="xMidYMid meet" style="width: 100%; height: 100%;"><defs><clipPath id="animationMask_SAeTBrk0v6"><rect width="512" height="512" x="0" y="0"></rect></clipPath><clipPath id="cp_RhR3LIo1"><path d="M0,0 L512,0 L512,512 L0,512z"></path></clipPath><clipPath id="cp_KvUr6uqF"><path d="M0,0 L512,0 L512,512 L0,512z"></path></clipPath></defs><g clip-path="url(#animationMask_SAeTBrk0v6)"><g clip-path="url(#cp_KvUr6uqF)" transform="matrix(1,0,0,1,0,0)" opacity="1" style="display: none;"><g transform="matrix(0.9986,0.0523,-0.0523,0.9986,21.0776,-20.9205)" opacity="1" style="user-select: none; display: none;"><g opacity="1" transform="matrix(1,0,0,1,118.508,136.491)"><path fill="rgb(255,210,217)" fill-opacity="1" d="M0 0 M39.632,10.64 C44.39,-1.4499999999999993 18.69,-18.52 2.818,-24.601 C-13.311000000000002,-30.784 -35.053,-25.581 -39.717,-8.178 C-44.388999999999996,9.227999999999998 -24.103,24.058999999999997 -4.743,27.423 C14.613999999999999,30.784999999999997 35.19,21.91 39.632,10.64z" style="display: none;"></path></g><g opacity="1" transform="matrix(1,0,0,1,123.828,141.965)"><path fill="rgb(241,150,168)" fill-opacity="1" d="M0 0 M18.929,0.228 C18.929,0.228 2.9179999999999993,-2.6659999999999995 -8.297,-8.638 C-19.514000000000003,-14.61 -34.744,-6.4399999999999995 -26.031,2.698 C-17.316,11.834 4.103,14.610000000000001 19.421,10.492 C34.744,6.369000000000001 18.929,0.228 18.929,0.228z" style="display: none;"></path></g><g opacity="1" transform="matrix(1,0,0,1,119.463,125.226)"><path fill="rgb(250,184,203)" fill-opacity="1" d="M0 0 M1.863,-13.336 C-13.341000000000001,-19.164 -33.519,-14.863999999999999 -39.693,0.223 C-23.940999999999995,-5.704 1.7000000000000028,-8.598 30.469,13.6 C33.978,16.304 36.867,18.105 39.232,19.164 C39.692,7.367000000000001 16.567,-7.698 1.863,-13.336z" style="display: none;"></path></g><g opacity="1" transform="matrix(1,0,0,1,118.508,136.491)"><path stroke-linecap="round" stroke-linejoin="round" fill-opacity="0" stroke="rgb(62,9,39)" stroke-opacity="1" stroke-width="3.757" d="M0 0 M39.632,10.64 C44.39,-1.4499999999999993 18.69,-18.52 2.818,-24.601 C-13.311000000000002,-30.784 -35.053,-25.581 -39.717,-8.178 C-44.388999999999996,9.227999999999998 -24.103,24.058999999999997 -4.743,27.423 C14.613999999999999,30.784999999999997 35.19,21.91 39.632,10.64z" style="display: none;"></path></g></g><g transform="matrix(0.9986,0.0523,-0.0523,0.9986,21.0776,-20.9205)" opacity="1" style="user-select: none; display: none;"><g opacity="1" transform="matrix(1,0,0,1,282.541,341.955)"><path fill="rgb(255,210,217)" fill-opacity="1" d="M0 0 M138.298,-125.607 C138.298,-125.607 7.108,-166.045 7.108,-166.045 C7.108,-166.045 -136.997,-161.598 -136.997,-161.598 C-136.997,-161.598 -146.119,-106.652 -175.498,-57.158 C-204.882,-7.658000000000001 -218.147,81.95599999999999 -152.755,120.817 C-117.138,141.981 -75.89699999999999,137.839 -38.838,119.273 C-38.838,119.273 -38.842,119.276 -38.842,119.276 C-38.842,119.276 60.601,175.254 141.69,74.059 C218.147,-21.348 138.298,-125.607 138.298,-125.607z" style="display: none;"></path></g><g opacity="1" transform="matrix(1,0,0,1,300.376,333.99)"><path fill="rgb(250,184,203)" fill-opacity="1" d="M0 0 M120.462,-113.641 C120.462,-113.641 3.803,-170.05 3.803,-170.05 C3.803,-170.05 -150.443,-159.151 -150.443,-159.151 C-150.443,-159.151 -158.268,-137.351 -158.268,-137.351 C-158.268,-137.351 -156.542,-119.82000000000001 -117.361,-111.287 C-78.18,-102.756 -61.592,-105.601 -61.592,-105.601 C-61.592,-105.601 -61.592,-116.5 -61.592,-116.5 C-61.592,-116.5 -54.486999999999995,-109.429 -27.947,-105.145 C-1.4100000000000001,-100.86099999999999 25.128,-90.83699999999999 32.235,-86.371 C39.345,-81.90599999999999 45.034,-79.063 45.034,-79.063 C45.034,-79.063 46.93300000000001,-85.59899999999999 47.404,-89.96 C47.86000000000001,-94.223 47.404,-100.39 47.404,-100.39 C47.404,-100.39 64.814,-87.28800000000001 78.678,-67.215 C92.422,-47.313 95.419,-30.728 95.419,-30.728 C95.419,-30.728 103.23,-74.944 103.23,-74.944 C109.81400000000001,-59.477000000000004 129.018,-10.817 121.286,42.016 C110.517,88.69800000000001 85.304,101.333 66.704,100.067 C49.044,98.86699999999999 42.69799999999999,73.307 49.035,51.683 C49.41,50.546 49.789,49.412 50.151,48.253 C68.696,-11.142000000000003 56.629,-75.589 56.629,-75.589 C56.498999999999995,-73.42999999999999 56.358999999999995,-71.02 56.199,-68.417 C56.21,-70.604 56.169,-71.79 56.169,-71.79 C56.169,-71.79 44.644999999999996,-8.195 1.906,48.992 C-19.985,78.294 -53.062999999999995,112.39 -105.689,120.916 C-152.171,128.454 -192.072,111.443 -192.072,111.443 C-192.072,111.443 -144.511,170.05 -55.473,127.367 C-54.591,128.345 -48.234,134.989 -36.478,137.15 C-30.977,138.165 23.949,152.333 54.954,136.004 C85.959,119.67999999999999 118.92600000000002,91.958 134.669,70.855 C192.072,-20.102999999999994 120.462,-113.641 120.462,-113.641zM0 0 M18.79,63.001 C30.991999999999997,44.214 39.221000000000004,24.321 44.773,5.747 C40.142,22.129 33.59,38.946 24.19,54.68 C22.493000000000002,57.522 20.686,60.296 18.79,63.001z" style="display: none;"></path></g><g opacity="1" transform="matrix(1,0,0,1,214.615,342.608)"><path stroke-linecap="round" stroke-linejoin="round" fill-opacity="0" stroke="rgb(62,9,39)" stroke-opacity="1" stroke-width="3.757" d="M0 0 M141.695,-82.907 C141.695,-82.907 150.222,-14.701 107.574,49.746 C64.922,114.196 -19.429999999999993,160.635 -84.829,121.777 C-150.221,82.91900000000001 -136.95600000000002,-6.700000000000003 -107.572,-56.194 C-78.193,-105.691 -69.072,-160.635 -69.072,-160.635" style="display: none;"></path></g><g opacity="1" transform="matrix(1,0,0,1,372.193,368.395)"><path stroke-linecap="round" stroke-linejoin="round" fill-opacity="0" stroke="rgb(62,9,39)" stroke-opacity="1" stroke-width="3.757" d="M0 0 M-128.494,94.452 C-128.494,94.452 -29.052,150.432 52.037,49.237 C128.494,-46.174 48.646,-150.431 48.646,-150.431" style="display: none;"></path></g></g><g transform="matrix(0.9986,0.0523,-0.0523,0.9986,21.0776,-20.9205)" opacity="1" style="user-select: none; display: none;"><g opacity="1" transform="matrix(1,0,0,1,101.074,395.828)"><path stroke-linecap="round" stroke-linejoin="round" fill-opacity="0" stroke="rgb(255,249,250)" stroke-opacity="1" stroke-width="3.757" d="M0 0 M-4.544,-23.062 C-4.3999999999999995,-8.042000000000002 -2.011,8.549000000000001 4.545,23.062" style="display: none;"></path></g><g opacity="1" transform="matrix(1,0,0,1,99.276,344.92)"><path stroke-linecap="round" stroke-linejoin="round" fill-opacity="0" stroke="rgb(255,249,250)" stroke-opacity="1" stroke-width="3.757" d="M0 0 M1.82,-9.434 C0.3780000000000001,-4.744999999999999 -0.9680000000000001,1.7959999999999994 -1.82,9.434" style="display: none;"></path></g></g><g transform="matrix(0.9986,0.0523,-0.0523,0.9986,21.4439,-27.9109)" opacity="1" style="user-select: none; display: none;"><g opacity="1" transform="matrix(1,0,0,1,146.796,339.431)"><path fill="rgb(62,9,39)" fill-opacity="1" d="M0 0 M2.643,-0.511 C3.0279999999999996,1.4609999999999999 2.153,3.29 0.699,3.576 C-0.7600000000000001,3.858 -2.259,2.49 -2.641,0.516 C-3.028,-1.457 -2.155,-3.284 -0.695,-3.574 C0.7620000000000001,-3.8569999999999998 2.256,-2.487 2.643,-0.511z" style="display: none;"></path></g><g opacity="1" transform="matrix(1,0,0,1,185.181,340.381)"><path fill="rgb(62,9,39)" fill-opacity="1" d="M0 0 M2.687,0.172 C2.5589999999999997,2.177 1.2510000000000001,3.728 -0.23,3.636 C-1.711,3.5380000000000003 -2.8120000000000003,1.832 -2.684,-0.167 C-2.559,-2.178 -1.253,-3.729 0.233,-3.634 C1.713,-3.538 2.812,-1.836 2.687,0.172z" style="display: none;"></path></g></g><g transform="matrix(0.9986,0.0523,-0.0523,0.9986,21.7056,-32.9041)" opacity="1" style="user-select: none; display: none;"><g opacity="1" transform="matrix(1,0,0,1,222.017,372.742)"><path stroke-linecap="round" stroke-linejoin="round" fill-opacity="0" stroke="rgb(62,9,39)" stroke-opacity="1" stroke-width="3.757" d="M0 0 M-8.636,-28.402 C-8.636,-28.402 -17.144,-13.568000000000001 -7.784,5.904 C0.9189999999999996,24.008 18.438,24.829 18.438,24.829" style="display: none;"></path></g><g opacity="1" transform="matrix(1,0,0,1,181.522,389.043)"><path stroke-linecap="round" stroke-linejoin="round" fill-opacity="0" stroke="rgb(62,9,39)" stroke-opacity="1" stroke-width="3.757" d="M0 0 M-29.461,-18.842 C-32.336999999999996,11.34 -7.808,18.842 6.023,17.11 C16.343,15.815 29.018000000000004,9.447 32.337,-10.224" style="display: none;"></path></g></g><g transform="matrix(0.9986,0.0523,-0.0523,0.9986,21.0776,-20.9205)" opacity="1" style="user-select: none; display: none;"><g opacity="1" transform="matrix(1,0,0,1,302.668,288.304)"><path fill="rgb(219,37,119)" fill-opacity="0.15" d="M0 0 M36.648,-0.003 C36.648,20.24 20.238999999999997,36.648 -0.004,36.648 C-20.240000000000002,36.648 -36.648,20.24 -36.648,-0.003 C-36.648,-20.242 -20.240000000000002,-36.648 -0.004,-36.648 C20.238999999999997,-36.648 36.648,-20.242 36.648,-0.003z" style="display: none;"></path></g><g opacity="1" transform="matrix(1,0,0,1,293.501,284.152)"><path fill="rgb(255,255,255)" fill-opacity="1" d="M0 0 M35.069,0 C35.069,19.366 19.37,35.07 0,35.07 C-19.365,35.07 -35.069,19.366 -35.069,0 C-35.069,-19.365 -19.365,-35.069 0,-35.069 C19.37,-35.069 35.069,-19.365 35.069,0z" style="display: none;"></path></g><g opacity="1" transform="matrix(1,0,0,1,295.54,288.061)"><path fill="rgb(219,38,120)" fill-opacity="0.15" d="M0 0 M20.01,-31.161 C22.606,-26.267000000000003 24.089,-20.693 24.089,-14.768 C24.089,4.596 8.39,20.3 -10.98,20.3 C-19.337,20.3 -27.006,17.365 -33.03,12.482 C-27.141000000000002,23.587 -15.479,31.161 -2.04,31.161 C17.330000000000002,31.161 33.03,15.458000000000002 33.03,-3.909 C33.03,-14.916 27.946,-24.732 20.01,-31.161z" style="display: none;"></path></g><g opacity="1" transform="matrix(0.9945,0.1045,-0.1045,0.9945,293.501,284.152)"><path stroke-linecap="round" stroke-linejoin="round" fill-opacity="0" stroke="rgb(62,9,39)" stroke-opacity="1" stroke-width="3.757" d="M0 0 M35.069,0 C35.069,19.366 19.37,35.07 0,35.07 C-19.365,35.07 -35.069,19.366 -35.069,0 C-35.069,-19.365 -19.365,-35.069 0,-35.069 C19.37,-35.069 35.069,-19.365 35.069,0z" style="display: none;"></path></g><g opacity="1" transform="matrix(1,0,0,1,290.978,285.416)"><path fill="rgb(0,0,0)" fill-opacity="1" d="M0 0 M-6.404,0 C-6.404,3.536 -3.539,6.405 0.001,6.405 C3.538,6.405 6.404,3.536 6.404,0 C6.404,-3.535 3.538,-6.405 0.001,-6.405 C-3.539,-6.405 -6.404,-3.535 -6.404,0z" style="display: none;"></path></g></g><g transform="matrix(0.9986,0.0523,-0.0523,0.9986,21.1642,-22.5738)" opacity="1" style="user-select: none; display: none;"><g opacity="1" transform="matrix(1,0,0,1,307.498,237.155)"><path stroke-linecap="round" stroke-linejoin="round" fill-opacity="0" stroke="rgb(62,9,39)" stroke-opacity="1" stroke-width="3.757" d="M0 0 M-11.375,-6.874 C-9.953,-6.396999999999999 2.84,-2.607 11.375,6.874" style="display: none;"></path></g></g><g transform="matrix(0.9986,0.0523,-0.0523,0.9986,21.0776,-20.9205)" opacity="1" style="user-select: none; display: none;"><g opacity="1" transform="matrix(1,0,0,1,137.858,255.307)"><path fill="rgb(250,184,203)" fill-opacity="1" d="M0 0 M36.646,-0.001 C36.646,20.24 20.238,36.648 -0.003,36.648 C-20.242,36.648 -36.646,20.24 -36.646,-0.001 C-36.646,-20.237000000000002 -20.242,-36.648 -0.003,-36.648 C20.238,-36.648 36.646,-20.237000000000002 36.646,-0.001z" style="display: none;"></path></g><g opacity="1" transform="matrix(1,0,0,1,128.839,250.078)"><path fill="rgb(255,255,255)" fill-opacity="1" d="M0 0 M33.803,-0.003 C33.803,18.668 18.669,33.803 -0.001,33.803 C-18.668000000000003,33.803 -33.804,18.668 -33.804,-0.003 C-33.804,-18.67 -18.668000000000003,-33.803 -0.001,-33.803 C18.669,-33.803 33.803,-18.67 33.803,-0.003z" style="display: none;"></path></g><g opacity="1" transform="matrix(1,0,0,1,131.52,252.76)"><path fill="rgb(250,223,235)" fill-opacity="1" d="M0 0 M15.543,-31.122 C18.922,-25.865000000000002 20.904,-19.619 20.904,-12.903 C20.904,5.769999999999998 5.772,20.9 -12.899,20.9 C-19.616,20.9 -25.857,18.92 -31.123,15.541 C-25.108,24.905 -14.631,31.122 -2.681,31.122 C15.989,31.122 31.123,15.986999999999998 31.123,-2.684 C31.123,-14.635000000000002 24.907,-25.113 15.543,-31.122z" style="display: none;"></path></g><g opacity="1" transform="matrix(1,0,0,1,128.839,250.078)"><path stroke-linecap="round" stroke-linejoin="round" fill-opacity="0" stroke="rgb(62,9,39)" stroke-opacity="1" stroke-width="3.757" d="M0 0 M33.803,-0.003 C33.803,18.668 18.669,33.803 -0.001,33.803 C-18.668000000000003,33.803 -33.804,18.668 -33.804,-0.003 C-33.804,-18.67 -18.668000000000003,-33.803 -0.001,-33.803 C18.669,-33.803 33.803,-18.67 33.803,-0.003z" style="display: none;"></path></g><g opacity="1" transform="matrix(1,0,0,1,124.274,246.136)"><path fill="rgb(0,0,0)" fill-opacity="1" d="M0 0 M-6.402,-0.001 C-6.402,3.537 -3.535,6.404 0.002,6.404 C3.5359999999999996,6.404 6.402,3.537 6.402,-0.001 C6.402,-3.536 3.5359999999999996,-6.404 0.002,-6.404 C-3.535,-6.404 -6.402,-3.536 -6.402,-0.001z" style="display: none;"></path></g></g><g transform="matrix(0.9986,0.0523,-0.0523,0.9986,21.1642,-22.5738)" opacity="1" style="user-select: none; display: none;"><g opacity="1" transform="matrix(1,0,0,1,110.832,201.949)"><path stroke-linecap="round" stroke-linejoin="round" fill-opacity="0" stroke="rgb(62,9,39)" stroke-opacity="1" stroke-width="3.757" d="M0 0 M-12.321,6.062 C-12.321,6.062 -2.843,-5.390000000000001 12.321,-6.062" style="display: none;"></path></g></g><g transform="matrix(0.9986,0.0523,-0.0523,0.9986,21.4439,-27.9109)" opacity="1" style="user-select: none; display: none;"><g opacity="1" transform="matrix(1,0,0,1,101.309,307.513)"><path fill="rgb(240,134,159)" fill-opacity="1" d="M0 0 M1.107,-12.707 C-11.287,-13.379000000000001 -24.982,-7.845000000000001 -24.982,1.44 C-24.982,10.728 -12.600999999999999,12.647 0.663,13.017 C13.929,13.379999999999999 24.982,7.630999999999999 24.54,1.002 C24.096,-5.634 17.465,-11.823 1.107,-12.707z" style="display: none;"></path></g></g><g transform="matrix(0.9986,0.0523,-0.0523,0.9986,21.4439,-27.9109)" opacity="1" style="user-select: none; display: none;"><g opacity="1" transform="matrix(1,0,0,1,288.145,344.426)"><path fill="rgb(240,134,159)" fill-opacity="1" d="M0 0 M1.188,-13.617 C-12.097999999999999,-14.340000000000002 -26.776,-8.405 -26.776,1.544 C-26.776,11.499 -13.508,13.558 0.71,13.948 C14.925999999999998,14.341000000000001 26.776,8.183 26.3,1.07 C25.828,-6.037 18.72,-12.669 1.188,-13.617z" style="display: none;"></path></g></g><g transform="matrix(0.9986,0.0523,-0.0523,0.9986,21.0776,-20.9205)" opacity="1" style="user-select: none; display: none;"><g opacity="1" transform="matrix(1,0,0,1,178.757,161.413)"><path fill="rgb(255,221,47)" fill-opacity="1" d="M0 0 M22.587,-61.448 C22.587,-61.448 -12.951999999999998,-61.605999999999995 -31.278,-36.333 C-49.601,-11.058 -42.653,25.031 -7.013,44.674 C23.692999999999998,61.605999999999995 49.601,57.815 49.601,57.815 C49.601,57.815 48.25,43.159 48.25,43.159" style="display: none;"></path></g><g opacity="1" transform="matrix(1,0,0,1,195.732,159.596)"><path fill="rgb(146,244,69)" fill-opacity="1" d="M0 0 M5.613,-59.631 C5.613,-59.631 3.178,-59.64 -0.727,-59.204 C-9.73,-50.126000000000005 -32.626,-33.436 -27.4,0.866 C-22.346999999999998,34.042 13.283000000000001,48.969 32.578,59.64 C32.6,59.636 32.626,59.632 32.626,59.632 C32.626,59.632 31.275,44.976 31.275,44.976 C31.275,44.976 5.613,-59.631 5.613,-59.631z" style="display: none;"></path></g><g opacity="1" transform="matrix(1,0,0,1,201.646,157.218)"><path fill="rgb(121,213,39)" fill-opacity="1" d="M0 0 M26.207,56.527 C26.207,56.527 25.361,47.354 25.361,47.354 C25.361,47.354 -0.122,-56.527 -0.122,-56.527 C-9.341,-51.884 -26.206,-37.977 -22.258,1.033 C-19.244,30.812 5.2669999999999995,47.559 26.207,56.527z" style="display: none;"></path></g><g opacity="1" transform="matrix(1,0,0,1,362.146,190.793)"><path fill="rgb(37,223,237)" fill-opacity="1" d="M0 0 M-83.572,-101.744 C-83.572,-101.744 1.426000000000002,-112.469 42.499,-38.54 C83.57300000000001,35.38400000000001 33.651,112.468 33.651,112.468 C33.651,112.468 35.455,87.386 26.704,71.402 C12.169,44.862 -15.626,34.769 -22.898,24.019" style="display: none;"></path></g><g opacity="1" transform="matrix(1,0,0,1,259.392,156.358)"><path fill="rgb(37,223,237)" fill-opacity="1" d="M0 0 M-34.193,-69.191 C-65.75,-61.874 -87.756,-26.294 -63.303,18.395 C-44.982,51.884 -14.605999999999998,53.39 23.935,60.973 C62.480999999999995,68.556 78.278,79.298 78.278,79.298 C78.278,79.298 87.756,18.011000000000003 61.216,-24.957 C34.681,-67.92699999999999 9.404000000000003,-79.299 -34.193,-69.191z" style="display: none;"></path></g><g opacity="1" transform="matrix(1,0,0,1,347.286,206.325)"><path fill="rgb(16,206,221)" fill-opacity="1" d="M0 0 M-6.457,-40.807 C-11.197,-75.03800000000001 -43.105,-95.463 -43.105,-95.463 C-43.105,-95.463 -54.475,-96.937 -54.475,-96.937 C-54.475,-96.937 -54.126,-87.038 -54.126,-87.038 C-54.126,-87.038 -8.039,8.486 -8.039,8.486 C-0.7669999999999995,19.236 27.029,29.330999999999996 41.564,55.87 C50.315,71.85499999999999 48.51,96.937 48.51,96.937 C48.51,96.937 48.888,96.36 49.531,95.278 C54.475,63.641000000000005 35.472,32.549 12.496,8.477 C-0.770999999999999,-5.4239999999999995 -4.949,-29.908 -6.457,-40.807z" style="display: none;"></path></g><g opacity="1" transform="matrix(1,0,0,1,363.819,195.154)"><path fill="rgb(66,137,239)" fill-opacity="1" d="M0 0 M40.825,-42.901 C4.6030000000000015,-108.108 -65.783,-107.457 -81.898,-106.393 C-81.898,-106.393 -75.904,-95.189 -75.904,-95.189 C-75.904,-95.189 -47.001999999999995,-83.34100000000001 -14.776,-29.634 C14.318999999999999,18.859 34.138,62.715999999999994 32.129,103.338 C32.105999999999995,106.291 31.976,108.108 31.976,108.108 C31.976,108.108 81.898,31.023999999999994 40.825,-42.901z" style="display: none;"></path></g><g opacity="1" transform="matrix(1,0,0,1,285.041,156.358)"><path fill="rgb(120,249,190)" fill-opacity="1" d="M0 0 M-59.842,-69.191 C-60.225,-69.101 -60.595,-68.988 -60.975,-68.893 C-60.975,-68.893 -62.107,-65.129 -62.107,-65.129 C-62.107,-65.129 -14.221,-47.071 8.459,-14.219 C27.842,13.852000000000002 46.425,50.90899999999999 52.381,79.136 C52.541,79.241 52.629,79.298 52.629,79.298 C52.629,79.298 62.107,18.011000000000003 35.567,-24.957 C9.032,-67.92699999999999 -16.244999999999997,-79.299 -59.842,-69.191z" style="display: none;"></path></g><g opacity="1" transform="matrix(1,0,0,1,360.854,192.821)"><path fill="rgb(199,87,253)" fill-opacity="1" d="M0 0 M43.79,-40.568 C6.738999999999997,-107.262 -66.05199999999999,-105.061 -79.952,-103.992 C-56.044,-93.524 0.23499999999999943,-66.22800000000001 15.357,-28.031 C31.155,11.872 43.161,71.435 36.848,107.262 C45.586,92.041 79.951,24.519000000000005 43.79,-40.568z" style="display: none;"></path></g><g opacity="1" transform="matrix(1,0,0,1,259.042,170.318)"><path fill="rgb(16,206,221)" fill-opacity="1" d="M0 0 M78.668,65.053 C64.337,41.403999999999996 17.418000000000003,36.831 -28.157,11.654 C-63.06699999999999,-7.635000000000002 -65.136,-42.965999999999994 -62.314,-65.338 C-75.18,-49.227999999999994 -78.669,-24.287 -62.953,4.434 C-44.632000000000005,37.922999999999995 -14.255999999999997,39.43 24.285,47.013 C62.831,54.596 78.628,65.338 78.628,65.338 C78.628,65.338 78.644,65.224 78.668,65.053z" style="display: none;"></path></g><g opacity="1" transform="matrix(1,0,0,1,178.757,161.663)"><path fill="rgb(234,162,49)" fill-opacity="1" d="M0 0 M49.601,57.565 C49.601,57.565 49.498,56.488 49.498,56.488 C13.201999999999998,46.902 -22.11,25.557000000000002 -26.219,-2.06 C-30.698,-32.166000000000004 3.9529999999999994,-54.198 17.02,-61.357 C6.295,-60.268 -17.412999999999997,-55.705 -31.278,-36.582 C-49.601,-11.308 -42.652,24.781 -7.012,44.424 C23.692999999999998,61.355999999999995 49.601,57.565 49.601,57.565z" style="display: none;"></path></g><g opacity="1" transform="matrix(1,0,0,1,362.146,190.793)"><path fill="rgb(232,68,121)" fill-opacity="1" d="M0 0 M42.499,-38.54 C1.426000000000002,-112.469 -83.572,-101.744 -83.572,-101.744 C-83.572,-101.744 -83.026,-100.604 -83.026,-100.604 C-49.687,-95.188 7.085000000000001,-75.525 28.599,-29.697 C56.06,28.798 42.829,66.808 33.75,110.376 C33.705,111.70400000000001 33.65,112.469 33.65,112.469 C33.65,112.469 83.572,35.385 42.499,-38.54z" style="display: none;"></path></g><g opacity="1" transform="matrix(1,0,0,1,260.901,156.358)"><path stroke-linecap="round" stroke-linejoin="round" fill-opacity="0" stroke="rgb(13,88,126)" stroke-opacity="1" stroke-width="3.757" d="M0 0 M-35.702,-69.191 C-67.259,-61.874 -86.247,-29.378 -67.295,13.585 C-53.261,45.403000000000006 -16.115,53.39 22.426,60.973 C60.971999999999994,68.556 76.769,79.298 76.769,79.298 C76.769,79.298 86.247,18.011000000000003 59.707,-24.957 C33.172,-67.92699999999999 7.895000000000003,-79.299 -35.702,-69.191z" style="display: none;"></path></g><g opacity="1" transform="matrix(1,0,0,1,178.757,161.413)"><path stroke-linecap="round" stroke-linejoin="round" fill-opacity="0" stroke="rgb(13,88,126)" stroke-opacity="1" stroke-width="3.757" d="M0 0 M22.587,-61.448 C22.587,-61.448 -12.951999999999998,-61.605999999999995 -31.278,-36.333 C-49.601,-11.058 -42.653,25.031 -7.013,44.674 C23.692999999999998,61.605999999999995 49.601,57.815 49.601,57.815 C49.601,57.815 48.25,40.473 48.25,40.473" style="display: none;"></path></g><g opacity="1" transform="matrix(1,0,0,1,362.146,190.793)"><path stroke-linecap="round" stroke-linejoin="round" fill-opacity="0" stroke="rgb(13,88,126)" stroke-opacity="1" stroke-width="3.757" d="M0 0 M-83.572,-101.744 C-83.572,-101.744 1.426000000000002,-112.469 42.499,-38.54 C83.57300000000001,35.38400000000001 33.651,112.468 33.651,112.468 C33.651,112.468 35.455,87.386 26.704,71.402 C12.169,44.862 -15.626,34.769 -22.898,24.019" style="display: none;"></path></g><g opacity="1" transform="matrix(1,0,0,1,397.5,182.833)"><path fill="rgb(13,88,126)" fill-opacity="0.33" d="M0 0 M-18.167,0.167 C-18.167,0.167 -10.833,4.167 0.833,5.834 C12.5,7.5 20.5,7.5 20.5,7.5 C20.5,7.5 17.5,-7.5 17.5,-7.5 C17.5,-7.5 -20.5,-3.833 -20.5,-3.833 C-20.5,-3.833 -18.167,0.167 -18.167,0.167z" style="display: none;"></path></g></g><g transform="matrix(0.9986,0.0523,-0.0523,0.9986,21.0776,-20.9205)" opacity="1" style="user-select: none; display: none;"><g opacity="1" transform="matrix(1,0,0,1,418.885,141.51)"><path fill="rgb(255,210,217)" fill-opacity="1" d="M0 0 M-51.804,4.637 C-51.804,4.637 -28.524,-16.358 -13.714,-27.751 C3.1979999999999986,-40.763000000000005 29.385999999999996,-40.692 39.815,-26.478 C51.805,-10.14 43.748000000000005,19.733 17.847,30.247 C-8.049,40.763 -40.141,40.227 -40.141,40.227 C-40.141,40.227 -41.245,29.06 -44.046,21.29 C-46.531,14.395 -51.804,4.637 -51.804,4.637z" style="display: none;"></path></g><g opacity="1" transform="matrix(1,0,0,1,408.464,145.929)"><path fill="rgb(241,150,168)" fill-opacity="1" d="M0 0 M-32.234,21.466 C-32.234,21.466 -35.479,12.281 -35.479,12.281 C-35.479,12.281 -1.7970000000000006,-7.479000000000001 7.324,-12.694 C22.656,-21.466 35.478,-11.405999999999999 28.906,-0.94 C22.333,9.532 -12.91,21.424 -32.234,21.466z" style="display: none;"></path></g><g opacity="1" transform="matrix(1,0,0,1,421.974,154.335)"><path fill="rgb(250,184,203)" fill-opacity="1" d="M0 0 M-44.689,17.778 C-43.666,22.988999999999997 -43.229,27.402 -43.229,27.402 C-43.229,27.402 -11.138000000000002,27.938000000000002 14.758,17.422 C35.396,9.043000000000001 44.690000000000005,-11.617999999999999 41.557,-27.938 C28.891000000000002,12.622000000000003 -24.145,17.456999999999997 -44.689,17.778z" style="display: none;"></path></g><g opacity="1" transform="matrix(1,0,0,1,418.885,141.51)"><path stroke-linecap="round" stroke-linejoin="round" fill-opacity="0" stroke="rgb(62,9,39)" stroke-opacity="1" stroke-width="3.757" d="M0 0 M-51.804,4.637 C-51.804,4.637 -28.524,-16.358 -13.714,-27.751 C3.1979999999999986,-40.763000000000005 29.385999999999996,-40.692 39.815,-26.478 C51.805,-10.14 43.748000000000005,19.733 17.847,30.247 C-8.049,40.763 -39.6,40.227 -39.6,40.227" style="display: none;"></path></g></g><g transform="matrix(0.9986,0.0523,-0.0523,0.9986,21.0776,-20.9205)" opacity="1" style="user-select: none; display: none;"><g opacity="1" transform="matrix(1,0,0,1,372.178,164.789)"><path stroke-linecap="round" stroke-linejoin="round" fill-opacity="0" stroke="rgb(13,88,126)" stroke-opacity="1" stroke-width="3.757" d="M0 0 M-7.471,-22.044 C-7.471,-22.044 4.8580000000000005,0.33000000000000185 7.471,22.044" style="display: none;"></path></g></g><g transform="matrix(0.9986,0.0523,-0.0523,0.9986,21.0776,-20.9205)" opacity="1" style="user-select: none; display: none;"><g opacity="1" transform="matrix(1,0,0,1,224.34,90.772)"><path fill="rgb(255,255,255)" fill-opacity="1" d="M0 0 M21.179,64.43 C6.449999999999999,70.768 -18.203,75.61699999999999 -23.717,42.379 C-29.226999999999997,9.141999999999996 -34.903999999999996,-32.431 -37.342,-50.445 C-39.778999999999996,-68.458 -28.806,-75.617 -18.035,-57.768 C-7.268000000000001,-39.918 24.342000000000002,12.956999999999999 30.097,23.258 C35.857,33.574 39.78,56.42200000000001 21.179,64.43z" style="display: none;"></path></g><g opacity="1" transform="matrix(1,0,0,1,230.971,93.475)"><path fill="rgb(215,213,213)" fill-opacity="1" d="M0 0 M-20.406,60.836 C1.3450000000000024,60.451 17.342,42.577 11.197,26.586 C5.462999999999999,11.658999999999999 -21.967,-46.239999999999995 -33.149,-69.719 C-30.485,-68.264 -27.563,-65.282 -24.665,-60.471 C-13.898,-42.620999999999995 17.711,10.254 23.467,20.555 C29.226,30.871000000000002 33.149,53.718999999999994 14.548,61.727 C4.438000000000001,66.076 -10.342999999999998,69.719 -20.406,60.836z" style="display: none;"></path></g><g opacity="1" transform="matrix(1,0,0,1,205.994,60.657)"><path stroke-linecap="round" stroke-linejoin="round" fill-opacity="0" stroke="rgb(62,9,39)" stroke-opacity="1" stroke-width="3.757" d="M0 0 M16.878,-0.027 C16.878,-0.027 -0.45500000000000185,4.819 -16.878,-4.819" style="display: none;"></path></g><g opacity="1" transform="matrix(1,0,0,1,217.804,95.809)"><path stroke-linecap="round" stroke-linejoin="round" fill-opacity="0" stroke="rgb(62,9,39)" stroke-opacity="1" stroke-width="3.757" d="M0 0 M23.117,-4.858 C23.117,-4.858 3.105999999999998,8.061 -23.117,-8.061" style="display: none;"></path></g><g opacity="1" transform="matrix(1,0,0,1,228.155,130.332)"><path stroke-linecap="round" stroke-linejoin="round" fill-opacity="0" stroke="rgb(62,9,39)" stroke-opacity="1" stroke-width="3.757" d="M0 0 M29.562,-8.07 C29.562,-8.07 -1.461000000000002,9.761 -29.562,-9.761" style="display: none;"></path></g><g opacity="1" transform="matrix(1,0,0,1,224.34,90.772)"><path stroke-linecap="round" stroke-linejoin="round" fill-opacity="0" stroke="rgb(62,9,39)" stroke-opacity="1" stroke-width="3.757" d="M0 0 M21.179,64.43 C6.449999999999999,70.768 -18.203,75.61699999999999 -23.717,42.379 C-29.226999999999997,9.141999999999996 -34.903999999999996,-32.431 -37.342,-50.445 C-39.778999999999996,-68.458 -28.806,-75.617 -18.035,-57.768 C-7.268000000000001,-39.918 24.342000000000002,12.956999999999999 30.097,23.258 C35.857,33.574 39.78,56.42200000000001 21.179,64.43z" style="display: none;"></path></g></g><g transform="matrix(0.6226,0.4359,-0.4359,0.6226,26.769,-104.5584)" opacity="1" style="user-select: none; display: none;"><g opacity="1" transform="matrix(1,0,0,1,251.667,37.763)"><path fill="rgb(255,230,51)" fill-opacity="1" d="M0 0 M-3.103,-20.663 C-3.103,-20.663 5.854,-9.249 5.854,-9.249 C5.854,-9.249 20.336,-10.158 20.336,-10.158 C20.336,-10.158 12.251,1.889 12.251,1.889 C12.251,1.889 17.595,15.382 17.595,15.382 C17.595,15.382 3.636,11.415 3.636,11.415 C3.636,11.415 -7.547,20.663 -7.547,20.663 C-7.547,20.663 -8.087,6.163 -8.087,6.163 C-8.087,6.163 -20.336,-1.612 -20.336,-1.612 C-20.336,-1.612 -6.713,-6.607 -6.713,-6.607 C-6.713,-6.607 -3.103,-20.663 -3.103,-20.663z" style="display: none;"></path></g></g><g transform="matrix(0.9986,0.0523,-0.0523,0.9986,23.2018,-14.2552)" opacity="1" style="user-select: none; display: none;"><g opacity="1" transform="matrix(1,0,0,1,251.667,37.763)"><path fill="rgb(255,230,51)" fill-opacity="1" d="M0 0 M-3.103,-20.663 C-3.103,-20.663 5.854,-9.249 5.854,-9.249 C5.854,-9.249 20.336,-10.158 20.336,-10.158 C20.336,-10.158 12.251,1.889 12.251,1.889 C12.251,1.889 17.595,15.382 17.595,15.382 C17.595,15.382 3.636,11.415 3.636,11.415 C3.636,11.415 -7.547,20.663 -7.547,20.663 C-7.547,20.663 -8.087,6.163 -8.087,6.163 C-8.087,6.163 -20.336,-1.612 -20.336,-1.612 C-20.336,-1.612 -6.713,-6.607 -6.713,-6.607 C-6.713,-6.607 -3.103,-20.663 -3.103,-20.663z" style="display: none;"></path></g></g></g><g clip-path="url(#cp_RhR3LIo1)" transform="matrix(1,0,0,1,0,0)" opacity="1" style="display: block;"><g transform="matrix(0.9986,0.0523,-0.0523,0.9986,21.0776,-20.9205)" opacity="1" style="user-select: none; display: block;"><g opacity="1" transform="matrix(1,0,0,1,118.508,136.491)"><path fill="rgb(255,210,217)" fill-opacity="1" d="M0 0 M39.632,10.64 C44.39,-1.4499999999999993 18.69,-18.52 2.818,-24.601 C-13.311000000000002,-30.784 -35.053,-25.581 -39.717,-8.178 C-44.388999999999996,9.227999999999998 -24.103,24.058999999999997 -4.743,27.423 C14.613999999999999,30.784999999999997 35.19,21.91 39.632,10.64z" style="display: block;"></path></g><g opacity="1" transform="matrix(1,0,0,1,123.828,141.965)"><path fill="rgb(241,150,168)" fill-opacity="1" d="M0 0 M18.929,0.228 C18.929,0.228 2.9179999999999993,-2.6659999999999995 -8.297,-8.638 C-19.514000000000003,-14.61 -34.744,-6.4399999999999995 -26.031,2.698 C-17.316,11.834 4.103,14.610000000000001 19.421,10.492 C34.744,6.369000000000001 18.929,0.228 18.929,0.228z" style="display: block;"></path></g><g opacity="1" transform="matrix(1,0,0,1,119.463,125.226)"><path fill="rgb(250,184,203)" fill-opacity="1" d="M0 0 M1.863,-13.336 C-13.341000000000001,-19.164 -33.519,-14.863999999999999 -39.693,0.223 C-23.940999999999995,-5.704 1.7000000000000028,-8.598 30.469,13.6 C33.978,16.304 36.867,18.105 39.232,19.164 C39.692,7.367000000000001 16.567,-7.698 1.863,-13.336z" style="display: block;"></path></g><g opacity="1" transform="matrix(1,0,0,1,118.508,136.491)"><path stroke-linecap="round" stroke-linejoin="round" fill-opacity="0" stroke="rgb(62,9,39)" stroke-opacity="1" stroke-width="3.757" d="M0 0 M39.632,10.64 C44.39,-1.4499999999999993 18.69,-18.52 2.818,-24.601 C-13.311000000000002,-30.784 -35.053,-25.581 -39.717,-8.178 C-44.388999999999996,9.227999999999998 -24.103,24.058999999999997 -4.743,27.423 C14.613999999999999,30.784999999999997 35.19,21.91 39.632,10.64z" style="display: block;"></path></g></g><g transform="matrix(0.9986,0.0523,-0.0523,0.9986,21.0776,-20.9205)" opacity="1" style="user-select: none; display: block;"><g opacity="1" transform="matrix(1,0,0,1,282.541,341.955)"><path fill="rgb(255,210,217)" fill-opacity="1" d="M0 0 M138.298,-125.607 C138.298,-125.607 7.108,-166.045 7.108,-166.045 C7.108,-166.045 -136.997,-161.598 -136.997,-161.598 C-136.997,-161.598 -146.119,-106.652 -175.498,-57.158 C-204.882,-7.658000000000001 -218.147,81.95599999999999 -152.755,120.817 C-117.138,141.981 -75.89699999999999,137.839 -38.838,119.273 C-38.838,119.273 -38.842,119.276 -38.842,119.276 C-38.842,119.276 60.601,175.254 141.69,74.059 C218.147,-21.348 138.298,-125.607 138.298,-125.607z" style="display: block;"></path></g><g opacity="1" transform="matrix(1,0,0,1,300.376,333.99)"><path fill="rgb(250,184,203)" fill-opacity="1" d="M0 0 M120.462,-113.641 C120.462,-113.641 3.803,-170.05 3.803,-170.05 C3.803,-170.05 -150.443,-159.151 -150.443,-159.151 C-150.443,-159.151 -158.268,-137.351 -158.268,-137.351 C-158.268,-137.351 -156.542,-119.82000000000001 -117.361,-111.287 C-78.18,-102.756 -61.592,-105.601 -61.592,-105.601 C-61.592,-105.601 -61.592,-116.5 -61.592,-116.5 C-61.592,-116.5 -54.486999999999995,-109.429 -27.947,-105.145 C-1.4100000000000001,-100.86099999999999 25.128,-90.83699999999999 32.235,-86.371 C39.345,-81.90599999999999 45.034,-79.063 45.034,-79.063 C45.034,-79.063 46.93300000000001,-85.59899999999999 47.404,-89.96 C47.86000000000001,-94.223 47.404,-100.39 47.404,-100.39 C47.404,-100.39 64.814,-87.28800000000001 78.678,-67.215 C92.422,-47.313 95.419,-30.728 95.419,-30.728 C95.419,-30.728 103.23,-74.944 103.23,-74.944 C109.81400000000001,-59.477000000000004 129.018,-10.817 121.286,42.016 C110.517,88.69800000000001 85.304,101.333 66.704,100.067 C49.044,98.86699999999999 42.69799999999999,73.307 49.035,51.683 C49.41,50.546 49.789,49.412 50.151,48.253 C68.696,-11.142000000000003 56.629,-75.589 56.629,-75.589 C56.498999999999995,-73.42999999999999 56.358999999999995,-71.02 56.199,-68.417 C56.21,-70.604 56.169,-71.79 56.169,-71.79 C56.169,-71.79 44.644999999999996,-8.195 1.906,48.992 C-19.985,78.294 -53.062999999999995,112.39 -105.689,120.916 C-152.171,128.454 -192.072,111.443 -192.072,111.443 C-192.072,111.443 -144.511,170.05 -55.473,127.367 C-54.591,128.345 -48.234,134.989 -36.478,137.15 C-30.977,138.165 23.949,152.333 54.954,136.004 C85.959,119.67999999999999 118.92600000000002,91.958 134.669,70.855 C192.072,-20.102999999999994 120.462,-113.641 120.462,-113.641zM0 0 M18.79,63.001 C30.991999999999997,44.214 39.221000000000004,24.321 44.773,5.747 C40.142,22.129 33.59,38.946 24.19,54.68 C22.493000000000002,57.522 20.686,60.296 18.79,63.001z" style="display: block;"></path></g><g opacity="1" transform="matrix(1,0,0,1,214.615,342.608)"><path stroke-linecap="round" stroke-linejoin="round" fill-opacity="0" stroke="rgb(62,9,39)" stroke-opacity="1" stroke-width="3.757" d="M0 0 M141.695,-82.907 C141.695,-82.907 150.222,-14.701 107.574,49.746 C64.922,114.196 -19.429999999999993,160.635 -84.829,121.777 C-150.221,82.91900000000001 -136.95600000000002,-6.700000000000003 -107.572,-56.194 C-78.193,-105.691 -69.072,-160.635 -69.072,-160.635" style="display: block;"></path></g><g opacity="1" transform="matrix(1,0,0,1,372.193,368.395)"><path stroke-linecap="round" stroke-linejoin="round" fill-opacity="0" stroke="rgb(62,9,39)" stroke-opacity="1" stroke-width="3.757" d="M0 0 M-128.494,94.452 C-128.494,94.452 -29.052,150.432 52.037,49.237 C128.494,-46.174 48.646,-150.431 48.646,-150.431" style="display: block;"></path></g></g><g transform="matrix(0.9986,0.0523,-0.0523,0.9986,21.0776,-20.9205)" opacity="1" style="user-select: none; display: block;"><g opacity="1" transform="matrix(1,0,0,1,101.074,395.828)"><path stroke-linecap="round" stroke-linejoin="round" fill-opacity="0" stroke="rgb(255,249,250)" stroke-opacity="1" stroke-width="3.757" d="M0 0 M-4.544,-23.062 C-4.3999999999999995,-8.042000000000002 -2.011,8.549000000000001 4.545,23.062" style="display: block;"></path></g><g opacity="1" transform="matrix(1,0,0,1,99.276,344.92)"><path stroke-linecap="round" stroke-linejoin="round" fill-opacity="0" stroke="rgb(255,249,250)" stroke-opacity="1" stroke-width="3.757" d="M0 0 M1.82,-9.434 C0.3780000000000001,-4.744999999999999 -0.9680000000000001,1.7959999999999994 -1.82,9.434" style="display: block;"></path></g></g><g transform="matrix(0.9986,0.0523,-0.0523,0.9986,21.4439,-27.9109)" opacity="1" style="user-select: none; display: block;"><g opacity="1" transform="matrix(1,0,0,1,146.796,339.431)"><path fill="rgb(62,9,39)" fill-opacity="1" d="M0 0 M2.643,-0.511 C3.0279999999999996,1.4609999999999999 2.153,3.29 0.699,3.576 C-0.7600000000000001,3.858 -2.259,2.49 -2.641,0.516 C-3.028,-1.457 -2.155,-3.284 -0.695,-3.574 C0.7620000000000001,-3.8569999999999998 2.256,-2.487 2.643,-0.511z" style="display: block;"></path></g><g opacity="1" transform="matrix(1,0,0,1,185.181,340.381)"><path fill="rgb(62,9,39)" fill-opacity="1" d="M0 0 M2.687,0.172 C2.5589999999999997,2.177 1.2510000000000001,3.728 -0.23,3.636 C-1.711,3.5380000000000003 -2.8120000000000003,1.832 -2.684,-0.167 C-2.559,-2.178 -1.253,-3.729 0.233,-3.634 C1.713,-3.538 2.812,-1.836 2.687,0.172z" style="display: block;"></path></g></g><g transform="matrix(0.9986,0.0523,-0.0523,0.9986,21.7056,-32.9041)" opacity="1" style="user-select: none; display: block;"><g opacity="1" transform="matrix(1,0,0,1,222.017,372.742)"><path stroke-linecap="round" stroke-linejoin="round" fill-opacity="0" stroke="rgb(62,9,39)" stroke-opacity="1" stroke-width="3.757" d="M0 0 M-8.636,-28.402 C-8.636,-28.402 -17.144,-13.568000000000001 -7.784,5.904 C0.9189999999999996,24.008 18.438,24.829 18.438,24.829" style="display: block;"></path></g><g opacity="1" transform="matrix(1,0,0,1,181.522,389.043)"><path stroke-linecap="round" stroke-linejoin="round" fill-opacity="0" stroke="rgb(62,9,39)" stroke-opacity="1" stroke-width="3.757" d="M0 0 M-29.461,-18.842 C-32.336999999999996,11.34 -7.808,18.842 6.023,17.11 C16.343,15.815 29.018000000000004,9.447 32.337,-10.224" style="display: block;"></path></g></g><g transform="matrix(0.9986,0.0523,-0.0523,0.9986,21.0776,-20.9205)" opacity="1" style="user-select: none; display: block;"><g opacity="1" transform="matrix(1,0,0,1,302.668,288.304)"><path fill="rgb(219,37,119)" fill-opacity="0.15" d="M0 0 M36.648,-0.003 C36.648,20.24 20.238999999999997,36.648 -0.004,36.648 C-20.240000000000002,36.648 -36.648,20.24 -36.648,-0.003 C-36.648,-20.242 -20.240000000000002,-36.648 -0.004,-36.648 C20.238999999999997,-36.648 36.648,-20.242 36.648,-0.003z" style="display: block;"></path></g><g opacity="1" transform="matrix(1,0,0,1,293.501,284.152)"><path fill="rgb(255,255,255)" fill-opacity="1" d="M0 0 M35.069,0 C35.069,19.366 19.37,35.07 0,35.07 C-19.365,35.07 -35.069,19.366 -35.069,0 C-35.069,-19.365 -19.365,-35.069 0,-35.069 C19.37,-35.069 35.069,-19.365 35.069,0z" style="display: block;"></path></g><g opacity="1" transform="matrix(1,0,0,1,295.54,288.061)"><path fill="rgb(219,38,120)" fill-opacity="0.15" d="M0 0 M20.01,-31.161 C22.606,-26.267000000000003 24.089,-20.693 24.089,-14.768 C24.089,4.596 8.39,20.3 -10.98,20.3 C-19.337,20.3 -27.006,17.365 -33.03,12.482 C-27.141000000000002,23.587 -15.479,31.161 -2.04,31.161 C17.330000000000002,31.161 33.03,15.458000000000002 33.03,-3.909 C33.03,-14.916 27.946,-24.732 20.01,-31.161z" style="display: block;"></path></g><g opacity="1" transform="matrix(0.9945,0.1045,-0.1045,0.9945,293.501,284.152)"><path stroke-linecap="round" stroke-linejoin="round" fill-opacity="0" stroke="rgb(62,9,39)" stroke-opacity="1" stroke-width="3.757" d="M0 0 M35.069,0 C35.069,19.366 19.37,35.07 0,35.07 C-19.365,35.07 -35.069,19.366 -35.069,0 C-35.069,-19.365 -19.365,-35.069 0,-35.069 C19.37,-35.069 35.069,-19.365 35.069,0z" style="display: block;"></path></g><g opacity="1" transform="matrix(1,0,0,1,290.978,285.416)"><path fill="rgb(0,0,0)" fill-opacity="1" d="M0 0 M-6.404,0 C-6.404,3.536 -3.539,6.405 0.001,6.405 C3.538,6.405 6.404,3.536 6.404,0 C6.404,-3.535 3.538,-6.405 0.001,-6.405 C-3.539,-6.405 -6.404,-3.535 -6.404,0z" style="display: block;"></path></g></g><g transform="matrix(0.9986,0.0523,-0.0523,0.9986,21.1642,-22.5741)" opacity="1" style="user-select: none; display: block;"><g opacity="1" transform="matrix(1,0,0,1,307.498,237.155)"><path stroke-linecap="round" stroke-linejoin="round" fill-opacity="0" stroke="rgb(62,9,39)" stroke-opacity="1" stroke-width="3.757" d="M0 0 M-11.375,-6.874 C-9.953,-6.396999999999999 2.84,-2.607 11.375,6.874" style="display: block;"></path></g></g><g transform="matrix(0.9986,0.0523,-0.0523,0.9986,21.0776,-20.9205)" opacity="1" style="user-select: none; display: block;"><g opacity="1" transform="matrix(1,0,0,1,137.858,255.307)"><path fill="rgb(250,184,203)" fill-opacity="1" d="M0 0 M36.646,-0.001 C36.646,20.24 20.238,36.648 -0.003,36.648 C-20.242,36.648 -36.646,20.24 -36.646,-0.001 C-36.646,-20.237000000000002 -20.242,-36.648 -0.003,-36.648 C20.238,-36.648 36.646,-20.237000000000002 36.646,-0.001z" style="display: block;"></path></g><g opacity="1" transform="matrix(1,0,0,1,128.839,250.078)"><path fill="rgb(255,255,255)" fill-opacity="1" d="M0 0 M33.803,-0.003 C33.803,18.668 18.669,33.803 -0.001,33.803 C-18.668000000000003,33.803 -33.804,18.668 -33.804,-0.003 C-33.804,-18.67 -18.668000000000003,-33.803 -0.001,-33.803 C18.669,-33.803 33.803,-18.67 33.803,-0.003z" style="display: block;"></path></g><g opacity="1" transform="matrix(1,0,0,1,131.52,252.76)"><path fill="rgb(250,223,235)" fill-opacity="1" d="M0 0 M15.543,-31.122 C18.922,-25.865000000000002 20.904,-19.619 20.904,-12.903 C20.904,5.769999999999998 5.772,20.9 -12.899,20.9 C-19.616,20.9 -25.857,18.92 -31.123,15.541 C-25.108,24.905 -14.631,31.122 -2.681,31.122 C15.989,31.122 31.123,15.986999999999998 31.123,-2.684 C31.123,-14.635000000000002 24.907,-25.113 15.543,-31.122z" style="display: block;"></path></g><g opacity="1" transform="matrix(1,0,0,1,128.839,250.078)"><path stroke-linecap="round" stroke-linejoin="round" fill-opacity="0" stroke="rgb(62,9,39)" stroke-opacity="1" stroke-width="3.757" d="M0 0 M33.803,-0.003 C33.803,18.668 18.669,33.803 -0.001,33.803 C-18.668000000000003,33.803 -33.804,18.668 -33.804,-0.003 C-33.804,-18.67 -18.668000000000003,-33.803 -0.001,-33.803 C18.669,-33.803 33.803,-18.67 33.803,-0.003z" style="display: block;"></path></g><g opacity="1" transform="matrix(1,0,0,1,124.274,246.136)"><path fill="rgb(0,0,0)" fill-opacity="1" d="M0 0 M-6.402,-0.001 C-6.402,3.537 -3.535,6.404 0.002,6.404 C3.5359999999999996,6.404 6.402,3.537 6.402,-0.001 C6.402,-3.536 3.5359999999999996,-6.404 0.002,-6.404 C-3.535,-6.404 -6.402,-3.536 -6.402,-0.001z" style="display: block;"></path></g></g><g transform="matrix(0.9986,0.0523,-0.0523,0.9986,21.1642,-22.5741)" opacity="1" style="user-select: none; display: block;"><g opacity="1" transform="matrix(1,0,0,1,110.832,201.949)"><path stroke-linecap="round" stroke-linejoin="round" fill-opacity="0" stroke="rgb(62,9,39)" stroke-opacity="1" stroke-width="3.757" d="M0 0 M-12.321,6.062 C-12.321,6.062 -2.843,-5.390000000000001 12.321,-6.062" style="display: block;"></path></g></g><g transform="matrix(0.9986,0.0523,-0.0523,0.9986,21.4439,-27.9109)" opacity="1" style="user-select: none; display: block;"><g opacity="1" transform="matrix(1,0,0,1,101.309,307.513)"><path fill="rgb(240,134,159)" fill-opacity="1" d="M0 0 M1.107,-12.707 C-11.287,-13.379000000000001 -24.982,-7.845000000000001 -24.982,1.44 C-24.982,10.728 -12.600999999999999,12.647 0.663,13.017 C13.929,13.379999999999999 24.982,7.630999999999999 24.54,1.002 C24.096,-5.634 17.465,-11.823 1.107,-12.707z" style="display: block;"></path></g></g><g transform="matrix(0.9986,0.0523,-0.0523,0.9986,21.4439,-27.9109)" opacity="1" style="user-select: none; display: block;"><g opacity="1" transform="matrix(1,0,0,1,288.145,344.426)"><path fill="rgb(240,134,159)" fill-opacity="1" d="M0 0 M1.188,-13.617 C-12.097999999999999,-14.340000000000002 -26.776,-8.405 -26.776,1.544 C-26.776,11.499 -13.508,13.558 0.71,13.948 C14.925999999999998,14.341000000000001 26.776,8.183 26.3,1.07 C25.828,-6.037 18.72,-12.669 1.188,-13.617z" style="display: block;"></path></g></g><g transform="matrix(0.9986,0.0523,-0.0523,0.9986,21.0776,-20.9205)" opacity="1" style="user-select: none; display: block;"><g opacity="1" transform="matrix(1,0,0,1,178.757,161.413)"><path fill="rgb(255,221,47)" fill-opacity="1" d="M0 0 M22.587,-61.448 C22.587,-61.448 -12.951999999999998,-61.605999999999995 -31.278,-36.333 C-49.601,-11.058 -42.653,25.031 -7.013,44.674 C23.692999999999998,61.605999999999995 49.601,57.815 49.601,57.815 C49.601,57.815 48.25,43.159 48.25,43.159" style="display: block;"></path></g><g opacity="1" transform="matrix(1,0,0,1,195.732,159.596)"><path fill="rgb(146,244,69)" fill-opacity="1" d="M0 0 M5.613,-59.631 C5.613,-59.631 3.178,-59.64 -0.727,-59.204 C-9.73,-50.126000000000005 -32.626,-33.436 -27.4,0.866 C-22.346999999999998,34.042 13.283000000000001,48.969 32.578,59.64 C32.6,59.636 32.626,59.632 32.626,59.632 C32.626,59.632 31.275,44.976 31.275,44.976 C31.275,44.976 5.613,-59.631 5.613,-59.631z" style="display: block;"></path></g><g opacity="1" transform="matrix(1,0,0,1,201.646,157.218)"><path fill="rgb(121,213,39)" fill-opacity="1" d="M0 0 M26.207,56.527 C26.207,56.527 25.361,47.354 25.361,47.354 C25.361,47.354 -0.122,-56.527 -0.122,-56.527 C-9.341,-51.884 -26.206,-37.977 -22.258,1.033 C-19.244,30.812 5.2669999999999995,47.559 26.207,56.527z" style="display: block;"></path></g><g opacity="1" transform="matrix(1,0,0,1,362.146,190.793)"><path fill="rgb(37,223,237)" fill-opacity="1" d="M0 0 M-83.572,-101.744 C-83.572,-101.744 1.426000000000002,-112.469 42.499,-38.54 C83.57300000000001,35.38400000000001 33.651,112.468 33.651,112.468 C33.651,112.468 35.455,87.386 26.704,71.402 C12.169,44.862 -15.626,34.769 -22.898,24.019" style="display: block;"></path></g><g opacity="1" transform="matrix(1,0,0,1,259.392,156.358)"><path fill="rgb(37,223,237)" fill-opacity="1" d="M0 0 M-34.193,-69.191 C-65.75,-61.874 -87.756,-26.294 -63.303,18.395 C-44.982,51.884 -14.605999999999998,53.39 23.935,60.973 C62.480999999999995,68.556 78.278,79.298 78.278,79.298 C78.278,79.298 87.756,18.011000000000003 61.216,-24.957 C34.681,-67.92699999999999 9.404000000000003,-79.299 -34.193,-69.191z" style="display: block;"></path></g><g opacity="1" transform="matrix(1,0,0,1,347.286,206.325)"><path fill="rgb(16,206,221)" fill-opacity="1" d="M0 0 M-6.457,-40.807 C-11.197,-75.03800000000001 -43.105,-95.463 -43.105,-95.463 C-43.105,-95.463 -54.475,-96.937 -54.475,-96.937 C-54.475,-96.937 -54.126,-87.038 -54.126,-87.038 C-54.126,-87.038 -8.039,8.486 -8.039,8.486 C-0.7669999999999995,19.236 27.029,29.330999999999996 41.564,55.87 C50.315,71.85499999999999 48.51,96.937 48.51,96.937 C48.51,96.937 48.888,96.36 49.531,95.278 C54.475,63.641000000000005 35.472,32.549 12.496,8.477 C-0.770999999999999,-5.4239999999999995 -4.949,-29.908 -6.457,-40.807z" style="display: block;"></path></g><g opacity="1" transform="matrix(1,0,0,1,363.819,195.154)"><path fill="rgb(66,137,239)" fill-opacity="1" d="M0 0 M40.825,-42.901 C4.6030000000000015,-108.108 -65.783,-107.457 -81.898,-106.393 C-81.898,-106.393 -75.904,-95.189 -75.904,-95.189 C-75.904,-95.189 -47.001999999999995,-83.34100000000001 -14.776,-29.634 C14.318999999999999,18.859 34.138,62.715999999999994 32.129,103.338 C32.105999999999995,106.291 31.976,108.108 31.976,108.108 C31.976,108.108 81.898,31.023999999999994 40.825,-42.901z" style="display: block;"></path></g><g opacity="1" transform="matrix(1,0,0,1,285.041,156.358)"><path fill="rgb(120,249,190)" fill-opacity="1" d="M0 0 M-59.842,-69.191 C-60.225,-69.101 -60.595,-68.988 -60.975,-68.893 C-60.975,-68.893 -62.107,-65.129 -62.107,-65.129 C-62.107,-65.129 -14.221,-47.071 8.459,-14.219 C27.842,13.852000000000002 46.425,50.90899999999999 52.381,79.136 C52.541,79.241 52.629,79.298 52.629,79.298 C52.629,79.298 62.107,18.011000000000003 35.567,-24.957 C9.032,-67.92699999999999 -16.244999999999997,-79.299 -59.842,-69.191z" style="display: block;"></path></g><g opacity="1" transform="matrix(1,0,0,1,360.854,192.821)"><path fill="rgb(199,87,253)" fill-opacity="1" d="M0 0 M43.79,-40.568 C6.738999999999997,-107.262 -66.05199999999999,-105.061 -79.952,-103.992 C-56.044,-93.524 0.23499999999999943,-66.22800000000001 15.357,-28.031 C31.155,11.872 43.161,71.435 36.848,107.262 C45.586,92.041 79.951,24.519000000000005 43.79,-40.568z" style="display: block;"></path></g><g opacity="1" transform="matrix(1,0,0,1,259.042,170.318)"><path fill="rgb(16,206,221)" fill-opacity="1" d="M0 0 M78.668,65.053 C64.337,41.403999999999996 17.418000000000003,36.831 -28.157,11.654 C-63.06699999999999,-7.635000000000002 -65.136,-42.965999999999994 -62.314,-65.338 C-75.18,-49.227999999999994 -78.669,-24.287 -62.953,4.434 C-44.632000000000005,37.922999999999995 -14.255999999999997,39.43 24.285,47.013 C62.831,54.596 78.628,65.338 78.628,65.338 C78.628,65.338 78.644,65.224 78.668,65.053z" style="display: block;"></path></g><g opacity="1" transform="matrix(1,0,0,1,178.757,161.663)"><path fill="rgb(234,162,49)" fill-opacity="1" d="M0 0 M49.601,57.565 C49.601,57.565 49.498,56.488 49.498,56.488 C13.201999999999998,46.902 -22.11,25.557000000000002 -26.219,-2.06 C-30.698,-32.166000000000004 3.9529999999999994,-54.198 17.02,-61.357 C6.295,-60.268 -17.412999999999997,-55.705 -31.278,-36.582 C-49.601,-11.308 -42.652,24.781 -7.012,44.424 C23.692999999999998,61.355999999999995 49.601,57.565 49.601,57.565z" style="display: block;"></path></g><g opacity="1" transform="matrix(1,0,0,1,362.146,190.793)"><path fill="rgb(232,68,121)" fill-opacity="1" d="M0 0 M42.499,-38.54 C1.426000000000002,-112.469 -83.572,-101.744 -83.572,-101.744 C-83.572,-101.744 -83.026,-100.604 -83.026,-100.604 C-49.687,-95.188 7.085000000000001,-75.525 28.599,-29.697 C56.06,28.798 42.829,66.808 33.75,110.376 C33.705,111.70400000000001 33.65,112.469 33.65,112.469 C33.65,112.469 83.572,35.385 42.499,-38.54z" style="display: block;"></path></g><g opacity="1" transform="matrix(1,0,0,1,260.901,156.358)"><path stroke-linecap="round" stroke-linejoin="round" fill-opacity="0" stroke="rgb(13,88,126)" stroke-opacity="1" stroke-width="3.757" d="M0 0 M-35.702,-69.191 C-67.259,-61.874 -86.247,-29.378 -67.295,13.585 C-53.261,45.403000000000006 -16.115,53.39 22.426,60.973 C60.971999999999994,68.556 76.769,79.298 76.769,79.298 C76.769,79.298 86.247,18.011000000000003 59.707,-24.957 C33.172,-67.92699999999999 7.895000000000003,-79.299 -35.702,-69.191z" style="display: block;"></path></g><g opacity="1" transform="matrix(1,0,0,1,178.757,161.413)"><path stroke-linecap="round" stroke-linejoin="round" fill-opacity="0" stroke="rgb(13,88,126)" stroke-opacity="1" stroke-width="3.757" d="M0 0 M22.587,-61.448 C22.587,-61.448 -12.951999999999998,-61.605999999999995 -31.278,-36.333 C-49.601,-11.058 -42.653,25.031 -7.013,44.674 C23.692999999999998,61.605999999999995 49.601,57.815 49.601,57.815 C49.601,57.815 48.25,40.473 48.25,40.473" style="display: block;"></path></g><g opacity="1" transform="matrix(1,0,0,1,362.146,190.793)"><path stroke-linecap="round" stroke-linejoin="round" fill-opacity="0" stroke="rgb(13,88,126)" stroke-opacity="1" stroke-width="3.757" d="M0 0 M-83.572,-101.744 C-83.572,-101.744 1.426000000000002,-112.469 42.499,-38.54 C83.57300000000001,35.38400000000001 33.651,112.468 33.651,112.468 C33.651,112.468 35.455,87.386 26.704,71.402 C12.169,44.862 -15.626,34.769 -22.898,24.019" style="display: block;"></path></g><g opacity="1" transform="matrix(1,0,0,1,397.5,182.833)"><path fill="rgb(13,88,126)" fill-opacity="0.33" d="M0 0 M-18.167,0.167 C-18.167,0.167 -10.833,4.167 0.833,5.834 C12.5,7.5 20.5,7.5 20.5,7.5 C20.5,7.5 17.5,-7.5 17.5,-7.5 C17.5,-7.5 -20.5,-3.833 -20.5,-3.833 C-20.5,-3.833 -18.167,0.167 -18.167,0.167z" style="display: block;"></path></g></g><g transform="matrix(0.9986,0.0523,-0.0523,0.9986,21.0776,-20.9205)" opacity="1" style="user-select: none; display: block;"><g opacity="1" transform="matrix(1,0,0,1,418.885,141.51)"><path fill="rgb(255,210,217)" fill-opacity="1" d="M0 0 M-51.804,4.637 C-51.804,4.637 -28.524,-16.358 -13.714,-27.751 C3.1979999999999986,-40.763000000000005 29.385999999999996,-40.692 39.815,-26.478 C51.805,-10.14 43.748000000000005,19.733 17.847,30.247 C-8.049,40.763 -40.141,40.227 -40.141,40.227 C-40.141,40.227 -41.245,29.06 -44.046,21.29 C-46.531,14.395 -51.804,4.637 -51.804,4.637z" style="display: block;"></path></g><g opacity="1" transform="matrix(1,0,0,1,408.464,145.929)"><path fill="rgb(241,150,168)" fill-opacity="1" d="M0 0 M-32.234,21.466 C-32.234,21.466 -35.479,12.281 -35.479,12.281 C-35.479,12.281 -1.7970000000000006,-7.479000000000001 7.324,-12.694 C22.656,-21.466 35.478,-11.405999999999999 28.906,-0.94 C22.333,9.532 -12.91,21.424 -32.234,21.466z" style="display: block;"></path></g><g opacity="1" transform="matrix(1,0,0,1,421.974,154.335)"><path fill="rgb(250,184,203)" fill-opacity="1" d="M0 0 M-44.689,17.778 C-43.666,22.988999999999997 -43.229,27.402 -43.229,27.402 C-43.229,27.402 -11.138000000000002,27.938000000000002 14.758,17.422 C35.396,9.043000000000001 44.690000000000005,-11.617999999999999 41.557,-27.938 C28.891000000000002,12.622000000000003 -24.145,17.456999999999997 -44.689,17.778z" style="display: block;"></path></g><g opacity="1" transform="matrix(1,0,0,1,418.885,141.51)"><path stroke-linecap="round" stroke-linejoin="round" fill-opacity="0" stroke="rgb(62,9,39)" stroke-opacity="1" stroke-width="3.757" d="M0 0 M-51.804,4.637 C-51.804,4.637 -28.524,-16.358 -13.714,-27.751 C3.1979999999999986,-40.763000000000005 29.385999999999996,-40.692 39.815,-26.478 C51.805,-10.14 43.748000000000005,19.733 17.847,30.247 C-8.049,40.763 -39.6,40.227 -39.6,40.227" style="display: block;"></path></g></g><g transform="matrix(0.9986,0.0523,-0.0523,0.9986,21.0776,-20.9205)" opacity="1" style="user-select: none; display: block;"><g opacity="1" transform="matrix(1,0,0,1,372.178,164.789)"><path stroke-linecap="round" stroke-linejoin="round" fill-opacity="0" stroke="rgb(13,88,126)" stroke-opacity="1" stroke-width="3.757" d="M0 0 M-7.471,-22.044 C-7.471,-22.044 4.8580000000000005,0.33000000000000185 7.471,22.044" style="display: block;"></path></g></g><g transform="matrix(0.9986,0.0523,-0.0523,0.9986,21.0776,-20.9205)" opacity="1" style="user-select: none; display: block;"><g opacity="1" transform="matrix(1,0,0,1,224.34,90.772)"><path fill="rgb(255,255,255)" fill-opacity="1" d="M0 0 M21.179,64.43 C6.449999999999999,70.768 -18.203,75.61699999999999 -23.717,42.379 C-29.226999999999997,9.141999999999996 -34.903999999999996,-32.431 -37.342,-50.445 C-39.778999999999996,-68.458 -28.806,-75.617 -18.035,-57.768 C-7.268000000000001,-39.918 24.342000000000002,12.956999999999999 30.097,23.258 C35.857,33.574 39.78,56.42200000000001 21.179,64.43z" style="display: block;"></path></g><g opacity="1" transform="matrix(1,0,0,1,230.971,93.475)"><path fill="rgb(215,213,213)" fill-opacity="1" d="M0 0 M-20.406,60.836 C1.3450000000000024,60.451 17.342,42.577 11.197,26.586 C5.462999999999999,11.658999999999999 -21.967,-46.239999999999995 -33.149,-69.719 C-30.485,-68.264 -27.563,-65.282 -24.665,-60.471 C-13.898,-42.620999999999995 17.711,10.254 23.467,20.555 C29.226,30.871000000000002 33.149,53.718999999999994 14.548,61.727 C4.438000000000001,66.076 -10.342999999999998,69.719 -20.406,60.836z" style="display: block;"></path></g><g opacity="1" transform="matrix(1,0,0,1,205.994,60.657)"><path stroke-linecap="round" stroke-linejoin="round" fill-opacity="0" stroke="rgb(62,9,39)" stroke-opacity="1" stroke-width="3.757" d="M0 0 M16.878,-0.027 C16.878,-0.027 -0.45500000000000185,4.819 -16.878,-4.819" style="display: block;"></path></g><g opacity="1" transform="matrix(1,0,0,1,217.804,95.809)"><path stroke-linecap="round" stroke-linejoin="round" fill-opacity="0" stroke="rgb(62,9,39)" stroke-opacity="1" stroke-width="3.757" d="M0 0 M23.117,-4.858 C23.117,-4.858 3.105999999999998,8.061 -23.117,-8.061" style="display: block;"></path></g><g opacity="1" transform="matrix(1,0,0,1,228.155,130.332)"><path stroke-linecap="round" stroke-linejoin="round" fill-opacity="0" stroke="rgb(62,9,39)" stroke-opacity="1" stroke-width="3.757" d="M0 0 M29.562,-8.07 C29.562,-8.07 -1.461000000000002,9.761 -29.562,-9.761" style="display: block;"></path></g><g opacity="1" transform="matrix(1,0,0,1,224.34,90.772)"><path stroke-linecap="round" stroke-linejoin="round" fill-opacity="0" stroke="rgb(62,9,39)" stroke-opacity="1" stroke-width="3.757" d="M0 0 M21.179,64.43 C6.449999999999999,70.768 -18.203,75.61699999999999 -23.717,42.379 C-29.226999999999997,9.141999999999996 -34.903999999999996,-32.431 -37.342,-50.445 C-39.778999999999996,-68.458 -28.806,-75.617 -18.035,-57.768 C-7.268000000000001,-39.918 24.342000000000002,12.956999999999999 30.097,23.258 C35.857,33.574 39.78,56.42200000000001 21.179,64.43z" style="display: block;"></path></g></g><g transform="matrix(0.6226,0.4359,-0.4359,0.6226,26.7692,-104.5583)" opacity="1" style="user-select: none; display: block;"><g opacity="1" transform="matrix(1,0,0,1,251.667,37.763)"><path fill="rgb(255,230,51)" fill-opacity="1" d="M0 0 M-3.103,-20.663 C-3.103,-20.663 5.854,-9.249 5.854,-9.249 C5.854,-9.249 20.336,-10.158 20.336,-10.158 C20.336,-10.158 12.251,1.889 12.251,1.889 C12.251,1.889 17.595,15.382 17.595,15.382 C17.595,15.382 3.636,11.415 3.636,11.415 C3.636,11.415 -7.547,20.663 -7.547,20.663 C-7.547,20.663 -8.087,6.163 -8.087,6.163 C-8.087,6.163 -20.336,-1.612 -20.336,-1.612 C-20.336,-1.612 -6.713,-6.607 -6.713,-6.607 C-6.713,-6.607 -3.103,-20.663 -3.103,-20.663z" style="display: block;"></path></g></g><g transform="matrix(0.9986,0.0523,-0.0523,0.9986,23.2017,-14.2557)" opacity="1" style="user-select: none; display: block;"><g opacity="1" transform="matrix(1,0,0,1,251.667,37.763)"><path fill="rgb(255,230,51)" fill-opacity="1" d="M0 0 M-3.103,-20.663 C-3.103,-20.663 5.854,-9.249 5.854,-9.249 C5.854,-9.249 20.336,-10.158 20.336,-10.158 C20.336,-10.158 12.251,1.889 12.251,1.889 C12.251,1.889 17.595,15.382 17.595,15.382 C17.595,15.382 3.636,11.415 3.636,11.415 C3.636,11.415 -7.547,20.663 -7.547,20.663 C-7.547,20.663 -8.087,6.163 -8.087,6.163 C-8.087,6.163 -20.336,-1.612 -20.336,-1.612 C-20.336,-1.612 -6.713,-6.607 -6.713,-6.607 C-6.713,-6.607 -3.103,-20.663 -3.103,-20.663z" style="display: block;"></path></g></g></g></g></svg>