<svg xmlns="http://www.w3.org/2000/svg" viewBox="0 0 512 512" width="512" height="512" class="svg_sticker_animation" preserveAspectRatio="xMidYMid meet" style="width: 100%; height: 100%;"><defs><clipPath id="animationMask_vdcYqkK3Zr"><rect width="512" height="512" x="0" y="0"></rect></clipPath></defs><g clip-path="url(#animationMask_vdcYqkK3Zr)"><g transform="matrix(1,0,0,1,-6.985,-0.419)" opacity="1" style="user-select: none;"><g opacity="1" transform="matrix(1,0,0,1,377.667,136.23)"><path fill="rgb(255,210,217)" fill-opacity="1" d="M0 0 M-40.802,-5.256 C-40.802,-5.256 -31.291,-13.266 -16.774,-22.779 C-2.253,-32.29 15.77,-35.296 28.288,-19.775 C40.802,-4.254999999999999 30.291000000000004,31.793 -13.266,35.296 C-13.266,35.296 -35.797,26.62 -35.797,26.62"></path></g><g opacity="1" transform="matrix(1,0,0,1,372.906,119.22)"><path fill="rgb(248,174,198)" fill-opacity="1" d="M0 0 M36.041,2.327 C35.266999999999996,0.46699999999999986 34.271,-1.2500000000000002 33.049,-2.765 C20.531,-18.287 2.5090000000000003,-15.28 -12.012,-5.77 C-26.529,3.7430000000000003 -36.04,11.753 -36.04,11.753 C-36.04,11.753 -31.605,18.287 -31.605,18.287 C-17.847,9.552 14.936999999999998,-8.515 36.041,2.327z"></path></g><g opacity="1" transform="matrix(1,0,0,1,366.904,142.99)"><path fill="rgb(241,150,168)" fill-opacity="1" d="M0 0 M-20.026,0.999 C-20.026,0.999 8.009,-17.523 14.017,-8.512 C20.026,0.49799999999999933 3.003,17.522 -10.014,17.522"></path></g><g opacity="1" transform="matrix(1,0,0,1,377.667,136.798)"><path stroke-linecap="round" stroke-linejoin="round" fill-opacity="0" stroke="rgb(62,9,39)" stroke-opacity="1" stroke-width="3.757" d="M0 0 M-40.802,-5.824 C-40.802,-5.824 -31.291,-13.834000000000001 -16.774,-23.347 C-2.253,-32.858000000000004 15.77,-35.864000000000004 28.288,-20.343 C40.802,-4.823 28.589,32.36 -14.97,35.864"></path></g></g><g transform="matrix(1,0,0,1,1,7)" opacity="1" style="user-select: none;"><g opacity="1" transform="matrix(1,0,0,1,375.986,388.145)"><path fill="rgb(255,210,217)" fill-opacity="1" d="M0 0 M-120.181,10.219 C-120.181,10.219 -88.986,98.855 18.452,76.768 C92.91199999999999,61.461 86.023,-23.89 85.042,-38.384 C83.039,-67.922 68.017,-69.924 68.017,-69.924 C68.017,-69.924 59.341,-95.79400000000001 48.994,-94.793 C38.647,-93.79100000000001 48.068,-63.714 44.988,-62.416 C37.697,-59.337999999999994 32.198,-56.051 28.633,-50.734 C23.54,-43.141000000000005 28.967,-28.37 36.644,-22.695 C34.013999999999996,-10.394 31.686,-6.228 26.964,2.669 C13.947999999999999,27.203 -8.582,18.192 -8.582,18.192 C-8.582,18.192 -38.986000000000004,-21.812 -70.986,-19.812 C-102.986,-17.812 -120.181,10.219 -120.181,10.219z"></path></g><g opacity="1" transform="matrix(1,0,0,1,423.728,310.96)"><path fill="rgb(248,174,198)" fill-opacity="1" d="M0 0 M5.508,-17.023 C5.508,-17.023 1.0010000000000001,-13.516 2.503,-0.75 C4.006,12.017 5.257,20.527 5.257,20.527 C5.257,20.527 -2.254,16.272 -2.254,16.272 C-2.254,16.272 -5.507,-5.007000000000001 -4.005,-12.015 C-2.503,-19.024 2.753,-20.527 5.508,-17.023z"></path></g><g opacity="1" transform="matrix(1,0,0,1,366.935,404.584)"><path fill="rgb(248,174,198)" fill-opacity="1" d="M0 0 M2.154,26.82 C-1.283,14.769 24.337000000000003,10.173 38.267,-4.007 C52.287000000000006,-18.274 52.036,-53.32000000000001 49.283,-61.331 C46.529,-69.34 53.538,-76.852 53.538,-76.852 C53.538,-76.852 44.025,-79.354 36.015,-67.086 C28.005000000000003,-54.823 44.025,-41.307 44.025,-41.307 C44.025,-41.307 44.991,-27.841 36.767,-15.271 C25.440000000000005,2.0410000000000004 1.093,-6.372 1.093,-6.372 C1.093,-6.372 -20.779,-19.517 -20.779,-19.517 C-20.779,-19.517 -112.143,-5.731 -112.143,-5.731 C-112.143,-5.731 -76.935,81.416 27.503,60.329 C58.548,54.061 74.999,33.608000000000004 84.143,13.328 C44.768,43.572 5.5920000000000005,38.872 2.154,26.82z"></path></g><g opacity="1" transform="matrix(1,0,0,1,390.184,382.312)"><path stroke-linecap="round" stroke-linejoin="round" fill-opacity="0" stroke="rgb(62,9,39)" stroke-opacity="1" stroke-width="3.757" d="M0 0 M-34.28,9.026 C-34.28,9.026 -10.183,29.188 9.262,13.008 C26.13,-1.027000000000001 23.28,-31.047 23.28,-31.047"></path></g><g opacity="1" transform="matrix(1,0,0,1,379.67,401.079)"><path stroke-linecap="round" stroke-linejoin="round" fill-opacity="0" stroke="rgb(62,9,39)" stroke-opacity="1" stroke-width="3.757" d="M0 0 M-124.865,-3.465 C-124.865,-3.465 -89.383,89.571 14.768,63.834 C93.33,44.42100000000001 82.339,-36.824000000000005 81.358,-51.319 C79.355,-80.856 64.333,-82.859 64.333,-82.859"></path></g><g opacity="1" transform="matrix(1,0,0,1,431.236,306.954)"><path stroke-linecap="round" stroke-linejoin="round" fill-opacity="0" stroke="rgb(62,9,39)" stroke-opacity="1" stroke-width="3.757" d="M0 0 M12.767,16.775 C12.767,16.775 5.625,-2.2509999999999994 3.121,-8.76 C0.6179999999999999,-15.27 -8.761,-17.773 -10.764,-9.762 C-12.767,-1.75 -9.762,17.772 -9.762,17.772"></path></g><g opacity="1" transform="matrix(1,0,0,1,413.714,342.252)"><path stroke-linecap="round" stroke-linejoin="round" fill-opacity="0" stroke="rgb(62,9,39)" stroke-opacity="1" stroke-width="3.757" d="M0 0 M14.77,-11.517 C14.77,-11.517 4.256,-21.528 -5.257,-11.517 C-14.77,-1.504999999999999 -12.767,14.518999999999998 -3.753,21.528"></path></g></g><g transform="matrix(1,0,0,1,0,0)" opacity="1" style="user-select: none;"><g opacity="1" transform="matrix(1,0,0,1,225.234,329.402)"><path fill="rgb(255,210,217)" fill-opacity="1" d="M0 0 M142.169,76.935 C142.169,76.935 162.196,49.897999999999996 164.999,27.956 C166.737,14.354999999999999 165.674,-8.960999999999999 159.692,-24.7 C140.667,-74.767 129.652,-138.35 129.652,-138.35 C129.652,-138.35 -49.582,-166.886 -49.582,-166.886 C-49.582,-166.886 -156.057,-70.76 -156.057,-70.76 C-156.057,-70.76 -166.737,-1.336999999999989 -133.361,69.424 C-99.981,140.183 -53.254,166.886 -10.531,153.535 C24.306000000000004,142.647 34.729000000000006,114.456 37.026,94.643 C45.118,97.105 53.935,98.789 63.566,99.464 C63.566,99.464 111.57300000000001,104.273 142.169,76.935z"></path></g><g opacity="1" transform="matrix(1,0,0,1,283.46,382.805)"><path fill="rgb(248,174,198)" fill-opacity="1" d="M0 0 M-104.137,-60.077 C-104.137,-60.077 -50.269999999999996,12.629999999999999 -12.684,18.691 C63.918000000000006,31.042 104.138,-14.018 104.138,-14.018 C104.138,-14.018 85.041,56.696 2.673,45.39 C4.127,46.996 -83.31,48.912000000000006 -104.137,-60.077z"></path></g><g opacity="1" transform="matrix(1,0,0,1,0,0)"><path fill="rgb(248,175,199)" fill-opacity="1" d="M0 0 M178,327 C178,327 169,344 181.5,378 C192.13,406.914 216.5,437.5 216.5,437.5 C216.5,437.5 233.5,406 233.5,406 C233.5,406 178,327 178,327z"></path></g><g opacity="1" transform="matrix(1,0,0,1,333.084,313.863)"><path stroke-linecap="round" stroke-linejoin="round" fill-opacity="0" stroke="rgb(62,9,39)" stroke-opacity="1" stroke-width="3.757" d="M0 0 M-155.867,9.186 C-142.584,86.637 -88.083,113.637 -37.575,115.333 C52.078,118.343 70.41300000000001,39.711 51.843,-9.161 C32.818000000000005,-59.228 21.803,-121.676 21.803,-121.676"></path></g><g opacity="1" transform="matrix(1,0,0,1,256,256)"><path fill="rgb(255,210,217)" fill-opacity="1" d="M0 0 M-13,100.5 C-19.5,99.5 -31,126.5 -31,126.5 C-31,126.5 -45.5,123 -50.5,132.5 C-55.5,142 -64,187 -91.5,173 C-97.69,169.849 -110.5,169 -118,178 C-125.5,187 -124.5,204 -104,217 C-83.5,230 -51.958,233.177 -34.5,224 C-15,213.75 -2.33,201.737 2.5,187 C17.25,142 -7.5,131 -7.5,131 C-7.5,131 -6.5,101.5 -13,100.5z"></path></g><g opacity="1" transform="matrix(1,0,0,1,207.433,333.97)"><path fill="rgb(248,174,198)" fill-opacity="1" d="M0 0 M147.454,-142.919 C147.454,-142.919 -21.892,-169.88 -21.892,-169.88 C-21.892,-169.88 -49.469,-155.484 -49.469,-155.484 C-49.469,-155.484 -103.724,-106.503 -103.724,-106.503 C-103.724,-106.503 -103.725,-106.503 -103.725,-106.503 C-103.725,-106.503 -138.255,-75.329 -138.255,-75.329 C-138.255,-75.329 -148.936,-5.905999999999992 -115.56,64.855 C-82.179,135.614 -35.452999999999996,162.317 7.271,148.966 C23.704,143.83 34.701,134.84199999999998 41.979,124.698 C-41.45700000000001,169.88 -79.289,110.762 -96.199,28.81 C-102.103,0.1999999999999993 -103.52499999999999,-24.389000000000003 -102.833,-44.389 C-93.6,-63.99 -74.356,-76.13199999999999 -57.481,-84.005 C-37.456,-93.351 -15.426,-118.716 -15.426,-118.716 C-15.426,-118.716 8.605999999999998,-109.369 24.627,-108.703 C40.647,-108.037 45.987,-108.038 45.987,-108.038 C45.987,-108.038 51.329,-123.389 51.329,-123.389 C51.329,-123.389 102.58600000000001,-116.175 148.936,-134.951 C147.96,-139.99699999999999 147.454,-142.919 147.454,-142.919z"></path></g><g opacity="1" transform="matrix(1,0,0,1,233.561,370.121)"><path fill="rgb(248,174,198)" fill-opacity="1" d="M0 0 M9.846,-13.016 C9.846,-13.016 4.838,-7.01 1.835,2.004 C-1.169,11.017 -3.839,19.025 -3.839,19.025 C-3.839,19.025 -9.846,12.35 -9.846,12.35 C-9.846,12.35 -1.5030000000000001,-19.026 9.846,-13.016zM0 0 M-18.311,12.879 C-29.311,15.629 -31.311,24.378999999999998 -34.311,34.629 C-37.311,44.879 -49.811,60.629 -56.561,61.379 C-63.269999999999996,62.123999999999995 -70.311,58.629 -70.311,58.629 C-70.311,58.629 -65.788,68.114 -54.311,68.879 C-43.061,69.629 -31.695999999999998,61.03 -26.311,44.629 C-20.811,27.878999999999998 -11.561,18.379 -5.561,18.629 C0.43900000000000006,18.879 -7.311,10.129 -18.311,12.879z"></path></g><g opacity="1" transform="matrix(1,0,0,1,160.967,377.464)"><path stroke-linecap="round" stroke-linejoin="round" fill-opacity="0" stroke="rgb(62,9,39)" stroke-opacity="1" stroke-width="3.757" d="M0 0 M-89.789,-139.823 C-89.789,-139.823 -102.47,-49.400000000000006 -69.094,21.362 C-35.712999999999994,92.11999999999999 11.013000000000005,118.823 53.737,105.472 C96.459,92.11999999999999 102.47000000000001,52.737 101.799,34.713 C101.131,16.69 87.112,9.345 87.112,9.345 C87.112,9.345 90.45,-18.69 81.105,-21.361 C71.759,-24.033 64.416,5.339 64.416,5.339 C64.416,5.339 44.391,2 39.719,21.362 C35.044000000000004,40.718 22.36,61.414 3.003,51.402M0 0 M67.421,10.68 C67.421,8.01 64.416,5.339 64.416,5.339M0 0 M86.11,14.686 C86.11,14.686 86.88000000000001,9.683 87.212,6.344"></path></g><g opacity="1" transform="matrix(1,0,0,1,0,0)"><path fill="rgb(249,184,202)" fill-opacity="1" d="M0 0 M356.5,201 C356.5,201 356,195.75 355,192"></path><path stroke-linecap="butt" stroke-linejoin="miter" fill-opacity="0" stroke-miterlimit="4" stroke="rgb(62,9,39)" stroke-opacity="1" stroke-width="3.757" d="M0 0 M356.5,201 C356.5,201 356,195.75 355,192"></path></g></g><g transform="matrix(1,0,0,1,0,0)" opacity="1" style="user-select: none;"><g opacity="1" transform="matrix(1,0,0,1,377.583,330.734)"><path stroke-linecap="round" stroke-linejoin="round" fill-opacity="0" stroke="rgb(255,249,250)" stroke-opacity="1" stroke-width="3.757" d="M0 0 M-1.334,-11.348 C-1.334,-11.348 1.334,3.341000000000001 0.669,11.348"></path></g></g><g transform="matrix(1,0,0,1,0,0)" opacity="1" style="user-select: none;"><g opacity="1" transform="matrix(1,0,0,1,314.418,303.282)"><path fill="rgb(62,9,39)" fill-opacity="1" d="M0 0 M3.086,0 C3.086,1.982 1.705,3.588 -0.003,3.588 C-1.7069999999999999,3.588 -3.086,1.982 -3.086,0 C-3.086,-1.981 -1.7069999999999999,-3.588 -0.003,-3.588 C1.705,-3.588 3.086,-1.981 3.086,0z"></path></g><g opacity="1" transform="matrix(1,0,0,1,341.453,302.618)"><path fill="rgb(62,9,39)" fill-opacity="1" d="M0 0 M3.069,-0.338 C3.282,1.634 2.082,3.3810000000000002 0.386,3.563 C-1.31,3.7510000000000003 -2.854,2.302 -3.069,0.332 C-3.282,-1.64 -2.084,-3.385 -0.387,-3.569 C1.307,-3.751 2.854,-2.308 3.069,-0.338z"></path></g></g><g transform="matrix(1,0,0,1,0,0)" opacity="1" style="user-select: none;"><g opacity="1" transform="matrix(1,0,0,1,207.608,272.244)"><path fill="rgb(248,174,198)" fill-opacity="1" d="M0 0 M34.295,0 C34.295,18.94 18.942,34.294 0.002,34.294 C-18.939,34.294 -34.294,18.94 -34.294,0 C-34.294,-18.94 -18.939,-34.294 0.002,-34.294 C18.942,-34.294 34.295,-18.94 34.295,0z"></path></g><g opacity="1" transform="matrix(1,0,0,1,216.956,268.905)"><path fill="rgb(255,255,255)" fill-opacity="1" d="M0 0 M32.293,0 C32.293,17.834 17.834,32.294 0.001,32.294 C-17.834,32.294 -32.292,17.834 -32.292,0 C-32.292,-17.833 -17.834,-32.293 0.001,-32.293 C17.834,-32.293 32.293,-17.833 32.293,0z"></path></g><g opacity="1" transform="matrix(1,0,0,1,212.874,270.091)"><path fill="rgb(234,223,226)" fill-opacity="1" d="M0 0 M16.096,22.596 C-1.7369999999999983,22.596 -16.195,8.137 -16.195,-9.698 C-16.195,-17.923000000000002 -13.093,-25.404 -8.03,-31.107 C-19.857999999999997,-26.314 -28.211,-14.733 -28.211,-1.186 C-28.211,16.648 -13.753,31.107 4.081,31.107 C13.690000000000001,31.107 22.292,26.884 28.21,20.224 C24.466,21.742 20.384999999999998,22.596 16.096,22.596z"></path></g><g opacity="1" transform="matrix(1,0,0,1,216.956,268.905)"><path stroke-linecap="round" stroke-linejoin="round" fill-opacity="0" stroke="rgb(62,9,39)" stroke-opacity="1" stroke-width="3.757" d="M0 0 M32.293,0 C32.293,17.834 17.834,32.294 0.001,32.294 C-17.834,32.294 -32.292,17.834 -32.292,0 C-32.292,-17.833 -17.834,-32.293 0.001,-32.293 C17.834,-32.293 32.293,-17.833 32.293,0z"></path></g><g opacity="1" transform="matrix(1,0,0,1,229.222,271.158)"><path fill="rgb(0,0,0)" fill-opacity="1" d="M0 0 M7.51,0 C7.51,4.147 4.148000000000001,7.51 0.001,7.51 C-4.146999999999999,7.51 -7.51,4.147 -7.51,0 C-7.51,-4.147 -4.146999999999999,-7.51 0.001,-7.51 C4.148000000000001,-7.51 7.51,-4.147 7.51,0z"></path></g></g><g transform="matrix(1,0,0,1,0,0)" opacity="1" style="user-select: none;"><g opacity="1" transform="matrix(1,0,0,1,208.945,222.094)"><path stroke-linecap="round" stroke-linejoin="round" fill-opacity="0" stroke="rgb(62,9,39)" stroke-opacity="1" stroke-width="3.757" d="M0 0 M-16.271,0.5 C-10.262,-0.0010000000000000009 6.758000000000001,-0.5 16.271,0"></path></g></g><g transform="matrix(1,0,0,1,0,0)" opacity="1" style="user-select: none;"><g opacity="1" transform="matrix(1,0,0,1,358.808,243.874)"><path fill="rgb(248,174,198)" fill-opacity="1" d="M0 0 M31.292,0.001 C31.292,17.282 17.282999999999998,31.29 -0.001,31.29 C-17.282,31.29 -31.292,17.282 -31.292,0.001 C-31.292,-17.285 -17.282,-31.29 -0.001,-31.29 C17.282999999999998,-31.29 31.292,-17.285 31.292,0.001z"></path></g><g opacity="1" transform="matrix(1,0,0,1,366.152,243.372)"><path fill="rgb(255,255,255)" fill-opacity="1" d="M0 0 M29.789,0.001 C29.789,16.453000000000003 16.45,29.79 0,29.79 C-16.453,29.79 -29.79,16.453000000000003 -29.79,0.001 C-29.79,-16.451999999999998 -16.453,-29.79 0,-29.79 C16.45,-29.79 29.789,-16.451999999999998 29.789,0.001z"></path></g><g opacity="1" transform="matrix(1,0,0,1,363.315,245.294)"><path fill="rgb(234,223,226)" fill-opacity="1" d="M0 0 M12.35,19.354 C-4.103,19.354 -17.44,6.0180000000000025 -17.44,-10.434 C-17.44,-16.955 -15.323,-22.964000000000002 -11.77,-27.867 C-20.826,-22.758000000000003 -26.953,-13.061 -26.953,-1.921 C-26.953,14.531000000000002 -13.616,27.867 2.837,27.867 C12.767999999999999,27.867 21.538,22.985 26.953,15.514 C22.636,17.95 17.661,19.354 12.35,19.354z"></path></g><g opacity="1" transform="matrix(1,0,0,1,366.152,243.372)"><path stroke-linecap="round" stroke-linejoin="round" fill-opacity="0" stroke="rgb(62,9,39)" stroke-opacity="1" stroke-width="3.757" d="M0 0 M29.789,0.001 C29.789,16.453000000000003 16.45,29.79 0,29.79 C-16.453,29.79 -29.79,16.453000000000003 -29.79,0.001 C-29.79,-16.451999999999998 -16.453,-29.79 0,-29.79 C16.45,-29.79 29.789,-16.451999999999998 29.789,0.001z"></path></g><g opacity="1" transform="matrix(1,0,0,1,370.407,244.121)"><path fill="rgb(0,0,0)" fill-opacity="1" d="M0 0 M7.511,0.001 C7.511,4.148000000000001 4.149,7.51 0.001,7.51 C-4.148,7.51 -7.51,4.148000000000001 -7.51,0.001 C-7.51,-4.148 -4.148,-7.51 0.001,-7.51 C4.149,-7.51 7.511,-4.148 7.511,0.001z"></path></g></g><g transform="matrix(1,0,0,1,0,0)" opacity="1" style="user-select: none;"><g opacity="1" transform="matrix(1,0,0,1,355.888,201.451)"><path stroke-linecap="round" stroke-linejoin="round" fill-opacity="0" stroke="rgb(62,9,39)" stroke-opacity="1" stroke-width="3.757" d="M0 0 M-13.016,0.114 C-13.016,0.114 7.067,-0.5499999999999999 13.016,0.549"></path></g></g><g transform="matrix(1,0,0,1,0,0)" opacity="1" style="user-select: none;"><g opacity="1" transform="matrix(1,0,0,1,326.851,353.516)"><path fill="rgb(248,174,198)" fill-opacity="1" d="M0 0 M-17.523,7.76 C-17.523,7.76 -9.512,-6.760000000000001 1,-7.259 C11.514,-7.760000000000001 17.523,6.259 17.523,6.259 C17.523,6.259 8.509,1.253 1,1.253 C-6.509,1.253 -17.523,7.76 -17.523,7.76z"></path></g></g><g transform="matrix(1,0,0,1,0,0)" opacity="1" style="user-select: none;"><g opacity="1" transform="matrix(1,0,0,1,325.599,342.751)"><path stroke-linecap="round" stroke-linejoin="round" fill-opacity="0" stroke="rgb(62,9,39)" stroke-opacity="1" stroke-width="3.757" d="M0 0 M-23.289,7.02 C-20.287000000000003,-2.4909999999999997 -12.099,-9.751999999999999 1.253,-10.52 C18.887,-11.535 24.789,7.013 24.789,7.013"></path></g></g><g transform="matrix(1,0,0,1,0,0)" opacity="1" style="user-select: none;"><g opacity="1" transform="matrix(1,0,0,1,210.947,324.73)"><path fill="rgb(240,134,159)" fill-opacity="1" d="M0 0 M-14.768,9.01 C-20.560000000000002,6.598 -21.778,-4.006 -8.26,-9.013 C5.259,-14.019 18.775,-12.016 20.278,-4.507 C21.778,3.0020000000000007 -2.753,14.018 -14.768,9.01z"></path></g></g><g transform="matrix(1,0,0,1,0,0)" opacity="1" style="user-select: none;"><g opacity="1" transform="matrix(1,0,0,1,380.94,295.189)"><path fill="rgb(240,134,159)" fill-opacity="1" d="M0 0 M-17.042,1.001 C-19.007,-4.239000000000001 -6.526,-13.018 3.487,-13.018 C13.497,-13.018 19.007,-0.5 11.996,4.007 C4.987,8.512 -12.535000000000002,13.017999999999999 -17.042,1.001z"></path></g></g><g transform="matrix(1,0,0,1,0,0)" opacity="1" style="user-select: none;"><g opacity="1" transform="matrix(1,0,0,1,128.09,193.056)"><path fill="rgb(37,223,237)" fill-opacity="1" d="M0 0 M49.065,-67.589 C49.065,-67.589 4.003999999999998,-68.589 -29.539,-36.046 C-63.082,-3.5060000000000002 -61.081,68.589 -61.081,68.589 C-61.081,68.589 -54.071,53.568999999999996 -30.039,47.062 C-6.009,40.553 41.554,31.54 63.083,-0.001"></path></g><g opacity="1" transform="matrix(1,0,0,1,132.055,198.867)"><path fill="rgb(16,206,221)" fill-opacity="1" d="M0 0 M-34.004,41.252 C-9.974999999999998,34.742000000000004 37.587999999999994,25.729 59.117,-5.812 C59.117,-5.812 50.628,-46.748 50.628,-46.748 C50.628,-46.748 41.261,-55.044 41.261,-55.044 C41.261,-55.044 36.59,-9.653000000000002 13.893,7.037 C-3.942999999999998,20.152 -41.55199999999999,31.625999999999998 -59.117,55.044 C-54.422999999999995,50.354 -46.55,44.648 -34.004,41.252z"></path></g><g opacity="1" transform="matrix(1,0,0,1,207.999,161.264)"><path fill="rgb(234,162,49)" fill-opacity="1" d="M0 0 M2.198,-54.321 C2.198,-54.321 -29.843000000000004,-53.32 -34.35,-21.777 C-39.247,12.506999999999998 -19.111,34.115 1.197,43.807 C23.226,54.321 34.241,52.819 34.241,52.819 C34.241,52.819 39.247,41.804 38.247,31.292"></path></g><g opacity="1" transform="matrix(1,0,0,1,211.373,160.078)"><path fill="rgb(255,221,47)" fill-opacity="1" d="M0 0 M31.563,52.301 C32.897999999999996,48.823 35.637,40.510000000000005 34.874,32.478 C34.874,32.478 2.222,-45.07 2.222,-45.07 C2.222,-45.07 -3.345,-52.301 -3.345,-52.301 C-3.345,-52.301 -35.636,-41.37 -31.965,-11.33 C-28.759,14.92 -18.623,35.446 31.563,52.301z"></path></g><g opacity="1" transform="matrix(1,0,0,1,212.828,157.517)"><path fill="rgb(146,244,69)" fill-opacity="1" d="M0 0 M-25.16,-1.343 C-16.73,34.18899999999999 13.970000000000002,46.897999999999996 31.908,49.291 C32.985,45.279999999999994 33.9,40.105999999999995 33.418,35.038 C33.418,35.038 1.882,-39.856 1.882,-39.856 C1.882,-39.856 -4.495,-49.291 -4.495,-49.291 C-7.8870000000000005,-48.157 -33.900999999999996,-38.188 -25.16,-1.343z"></path></g><g opacity="1" transform="matrix(1,0,0,1,208.362,108.002)"><path fill="rgb(146,244,69)" fill-opacity="1" d="M0 0 M-0.335,-0.225 C-0.335,-0.225 -0.029,0.225 -0.029,0.225 C0.20400000000000001,0.14800000000000002 0.335,0.109 0.335,0.109 C0.335,0.109 -0.335,-0.225 -0.335,-0.225z"></path></g><g opacity="1" transform="matrix(1,0,0,1,121.388,193.056)"><path fill="rgb(66,137,239)" fill-opacity="1" d="M0 0 M55.766,-67.589 C55.766,-67.589 10.704999999999998,-68.589 -22.838,-36.046 C-56.381,-3.5060000000000002 -54.38,68.589 -54.38,68.589 C-54.38,68.589 -53.003,65.658 -49.408,61.828 C-35.012,36.99 -12.108,22.524 11.207,2.835 C41.246,-22.531 54.598,-57.909 54.598,-57.909 C54.598,-57.909 56.381,-64.618 56.381,-64.618 C56.381,-64.618 55.766,-67.589 55.766,-67.589z"></path></g><g opacity="1" transform="matrix(1,0,0,1,216.283,154.293)"><path fill="rgb(121,213,39)" fill-opacity="1" d="M0 0 M-5.897,-46.905 C-14.625,-43.616 -30.241,-33.222 -22.106,-1.79 C-13.505,31.442999999999998 16.775000000000002,43.304 29.629,46.905 C30.046000000000003,44.149 30.242,41.189 29.963,38.263 C29.963,38.263 -5.897,-46.905 -5.897,-46.905z"></path></g><g opacity="1" transform="matrix(1,0,0,1,273.232,142.489)"><path fill="rgb(37,223,237)" fill-opacity="1" d="M0 0 M-61.031,-37.549 C-34.997,-65.086 22.076999999999998,-57.075 52.616,-23.029 C83.156,11.014999999999997 94.672,45.059 94.672,45.059 C94.672,45.059 34.592,65.086 -12.97,53.57 C-60.532,42.055 -94.672,-1.9679999999999964 -61.031,-37.549z"></path></g><g opacity="1" transform="matrix(1,0,0,1,121.35,193.056)"><path fill="rgb(199,87,253)" fill-opacity="1" d="M0 0 M55.805,-67.589 C55.805,-67.589 10.744,-68.589 -22.799,-36.046 C-56.342,-3.5060000000000002 -54.342,68.589 -54.342,68.589 C-54.342,68.589 -54.19,68.27799999999999 -53.893,67.764 C-43.183,44.604 -23.225,7.814000000000002 -10.115,-11.85 C5.404999999999999,-35.13 47.585,-59.998 56.342,-64.996 C56.342,-64.996 55.805,-67.589 55.805,-67.589z"></path></g><g opacity="1" transform="matrix(1,0,0,1,122.241,191.372)"><path fill="rgb(232,68,121)" fill-opacity="1" d="M0 0 M54.913,-65.905 C54.913,-65.905 9.852,-66.906 -23.691,-34.363 C-52.913,-6.013999999999999 -55.156,52.336000000000006 -55.25,66.906 C-51.053,46.232000000000006 -41.231,13.839999999999998 -23.024,-14.839 C-1.7620000000000005,-48.324999999999996 39.364000000000004,-60.641 55.25,-64.274 C55.25,-64.274 54.913,-65.905 54.913,-65.905z"></path></g><g opacity="1" transform="matrix(1,0,0,1,291.887,132.89)"><path fill="rgb(120,249,190)" fill-opacity="1" d="M0 0 M-76.017,-31.385 C-59.705,-32.423 -26.339,-32.344 -1.083,-17.771 C26.341,-1.950000000000001 62.07900000000001,38.433 75.885,54.699 C75.953,54.678999999999995 76.017,54.658 76.017,54.658 C76.017,54.658 64.50200000000001,20.614000000000004 33.962,-13.431 C4.780000000000005,-45.965999999999994 -48.613,-54.7 -76.017,-31.385z"></path></g><g opacity="1" transform="matrix(1,0,0,1,273.232,154.84)"><path fill="rgb(16,206,221)" fill-opacity="1" d="M0 0 M94.672,32.708 C94.672,32.708 94.573,32.416 94.375,31.872 C68.41,31.906 15.57,35.045 -21.144,18.355 C-54.46,3.2110000000000003 -58.2,-37.272999999999996 -58.076,-52.736 C-59.095,-51.833999999999996 -60.090999999999994,-50.896 -61.032,-49.9 C-94.673,-14.318999999999996 -60.532,29.704 -12.971,41.22 C34.592,52.736 94.672,32.708 94.672,32.708z"></path></g><g opacity="1" transform="matrix(1,0,0,1,273.232,142.489)"><path stroke-linecap="round" stroke-linejoin="round" fill-opacity="0" stroke="rgb(13,88,126)" stroke-opacity="1" stroke-width="3.757" d="M0 0 M-61.031,-37.549 C-34.997,-65.086 22.076999999999998,-57.075 52.616,-23.029 C83.156,11.014999999999997 94.672,45.059 94.672,45.059 C94.672,45.059 34.592,65.086 -12.97,53.57 C-60.532,42.055 -94.672,-1.9679999999999964 -61.031,-37.549z"></path></g><g opacity="1" transform="matrix(1,0,0,1,207.999,161.264)"><path stroke-linecap="round" stroke-linejoin="round" fill-opacity="0" stroke="rgb(13,88,126)" stroke-opacity="1" stroke-width="3.757" d="M0 0 M2.198,-54.321 C2.198,-54.321 -29.843000000000004,-53.32 -34.35,-21.777 C-39.247,12.506999999999998 -19.111,34.115 1.197,43.807 C23.226,54.321 34.241,52.819 34.241,52.819 C34.241,52.819 39.247,41.804 38.247,31.292"></path></g><g opacity="1" transform="matrix(1,0,0,1,0,0)"><path fill="rgb(13,88,126)" fill-opacity="0.33" d="M0 0 M91.25,166.625 C88.625,168 80.125,186.25 80.125,186.25 C80.125,186.25 93.125,187.875 106.875,187.25 C120.625,186.625 135.125,182.875 135.125,182.875 C135.125,182.875 93.875,165.25 91.25,166.625z"></path></g><g opacity="1" transform="matrix(1,0,0,1,128.09,193.056)"><path stroke-linecap="round" stroke-linejoin="round" fill-opacity="0" stroke="rgb(13,88,126)" stroke-opacity="1" stroke-width="3.757" d="M0 0 M49.065,-67.589 C49.065,-67.589 4.003999999999998,-68.589 -29.539,-36.046 C-63.082,-3.5060000000000002 -61.081,68.589 -61.081,68.589 C-61.081,68.589 -54.071,53.568999999999996 -30.039,47.062 C-6.009,40.553 41.554,31.54 63.083,-0.001"></path></g></g><g transform="matrix(1,0,0,1,0,0)" opacity="1" style="user-select: none;"><g opacity="1" transform="matrix(1,0,0,1,109.264,142.215)"><path fill="rgb(255,210,217)" fill-opacity="1" d="M0 0 M49.366,18.395 C49.366,18.395 31.203,3.4930000000000003 22.354,-9.083 C13.505999999999998,-21.657 -5.588999999999999,-42.613 -27.477,-29.109 C-49.366,-15.604000000000001 -31.669,25.847 -6.521,34.228 C18.627,42.613 29.34,38.887 29.34,38.887"></path></g><g opacity="1" transform="matrix(1,0,0,1,102.013,151.735)"><path fill="rgb(248,174,198)" fill-opacity="1" d="M0 0 M-26.122,-33.094 C-38.021,-16.217000000000002 -21.593,17.266 0.73,24.708 C25.878,33.092999999999996 36.59,29.367 36.59,29.367 C36.59,29.367 38.021,27.904 38.021,27.904 C29.836,27.145 14.927,24.307000000000002 -1.46,14.121 C-17.661,4.050000000000001 -23.809,-18.662 -26.122,-33.094z"></path></g><g opacity="1" transform="matrix(1,0,0,1,119.814,152.753)"><path fill="rgb(241,150,168)" fill-opacity="1" d="M0 0 M29.802,14.268 C29.802,14.268 11.780000000000001,4.757000000000001 4.269,-5.258 C-3.24,-15.27 -15.256999999999998,-22.28 -22.766,-15.77 C-29.802,-9.671 -21.264,8.760000000000002 -6.744,14.768 C7.776,20.776 21.794,22.28 21.794,22.28"></path></g><g opacity="1" transform="matrix(1,0,0,1,109.264,142.215)"><path stroke-linecap="round" stroke-linejoin="round" fill-opacity="0" stroke="rgb(62,9,39)" stroke-opacity="1" stroke-width="3.757" d="M0 0 M49.366,18.395 C49.366,18.395 31.203,3.4930000000000003 22.354,-9.083 C13.505999999999998,-21.657 -5.588999999999999,-42.613 -27.477,-29.109 C-49.366,-15.604000000000001 -31.669,25.847 -6.521,34.228 C18.627,42.613 29.34,38.887 29.34,38.887"></path></g></g><g transform="matrix(1,0,0,1,0,0)" opacity="1" style="user-select: none;"><g opacity="1" transform="matrix(1,0,0,1,148.365,172.095)"><path stroke-linecap="round" stroke-linejoin="round" fill-opacity="0" stroke="rgb(13,88,126)" stroke-opacity="1" stroke-width="3.757" d="M0 0 M-12.579,12.735 C-12.579,12.735 -0.9429999999999996,-3.455 12.579,-12.735"></path></g></g><g transform="matrix(1,0,0,1,0,0)" opacity="1" style="user-select: none;"><g opacity="1" transform="matrix(1,0,0,1,277.994,98.04)"><path fill="rgb(255,255,255)" fill-opacity="1" d="M0 0 M-23.728,51.458 C-11.651000000000002,58.054 9.012,64.164 16.385,36.219 C23.749000000000002,8.266000000000002 31.927000000000003,-26.784999999999997 35.45,-41.977 C38.973000000000006,-57.168 30.172,-64.164 19.544,-49.777 C8.918000000000001,-35.395 -22.309,7.238999999999999 -28.05,15.578 C-33.795,23.930999999999997 -38.973,43.132 -23.728,51.458z"></path></g><g opacity="1" transform="matrix(1,0,0,1,272.273,99.68)"><path fill="rgb(215,213,213)" fill-opacity="1" d="M0 0 M11.921,51.854 C-6.626999999999999,49.783 -18.866,33.24 -12.335,20.07 C-6.243000000000001,7.7780000000000005 21.820999999999998,-39.477999999999994 33.251,-58.635 C30.858999999999998,-57.608999999999995 28.128,-55.299 25.265,-51.417 C14.639000000000001,-37.035000000000004 -16.587,5.600000000000001 -22.329,13.938 C-28.074,22.292 -33.251999999999995,41.493 -18.008,49.819 C-9.720999999999998,54.342 2.613999999999999,58.635 11.921,51.854z"></path></g><g opacity="1" transform="matrix(1,0,0,1,295.786,72.599)"><path stroke-linecap="round" stroke-linejoin="round" fill-opacity="0" stroke="rgb(62,9,39)" stroke-opacity="1" stroke-width="3.757" d="M0 0 M-14.608,-2.065 C-14.608,-2.065 -0.19299999999999962,3.4600000000000004 14.608,-3.461"></path></g><g opacity="1" transform="matrix(1,0,0,1,283.207,101.304)"><path stroke-linecap="round" stroke-linejoin="round" fill-opacity="0" stroke="rgb(62,9,39)" stroke-opacity="1" stroke-width="3.757" d="M0 0 M-19.872,-6.319 C-19.872,-6.319 -3.8150000000000013,6.319000000000001 19.872,-5.353"></path></g><g opacity="1" transform="matrix(1,0,0,1,271.801,129.246)"><path stroke-linecap="round" stroke-linejoin="round" fill-opacity="0" stroke="rgb(62,9,39)" stroke-opacity="1" stroke-width="3.757" d="M0 0 M-25.318,-8.856 C-25.318,-8.856 -0.2469999999999999,8.855 25.318,-5.571"></path></g><g opacity="1" transform="matrix(1,0,0,1,277.994,98.04)"><path stroke-linecap="round" stroke-linejoin="round" fill-opacity="0" stroke="rgb(62,9,39)" stroke-opacity="1" stroke-width="3.757" d="M0 0 M-23.728,51.458 C-11.651000000000002,58.054 9.012,64.164 16.385,36.219 C23.749000000000002,8.266000000000002 31.927000000000003,-26.784999999999997 35.45,-41.977 C38.973000000000006,-57.168 30.172,-64.164 19.544,-49.777 C8.918000000000001,-35.395 -22.309,7.238999999999999 -28.05,15.578 C-33.795,23.930999999999997 -38.973,43.132 -23.728,51.458z"></path></g></g><g transform="matrix(1,0,0,1,-2.332,-11.305)" opacity="1" style="user-select: none;"><g opacity="1" transform="matrix(1,0,0,1,249.043,54.538)"><path fill="rgb(255,230,51)" fill-opacity="1" d="M0 0 M-4.426,-25.575 C-4.426,-25.575 -10.949,8.141 -10.949,8.141 C-10.949,8.141 -1.543,5.825 -1.543,5.825 C-1.543,5.825 2.12,25.575 2.12,25.575 C2.12,25.575 10.949,-8.86 10.949,-8.86 C10.949,-8.86 -0.979,-4.488 -0.979,-4.488 C-0.979,-4.488 -4.426,-25.575 -4.426,-25.575z"></path></g></g><g transform="matrix(1,0,0,1,6.669,-6.93)" opacity="1" style="user-select: none;"><g opacity="1" transform="matrix(1,0,0,1,349.042,80.163)"><path fill="rgb(255,230,51)" fill-opacity="1" d="M0 0 M21.262,-19.245 C21.262,-19.245 -13.657,-3.766 -13.657,-3.766 C-13.657,-3.766 -5.564,3.345 -5.564,3.345 C-5.564,3.345 -21.262,19.245 -21.262,19.245 C-21.262,19.245 15.78,5.414 15.78,5.414 C15.78,5.414 4.207,-2.693 4.207,-2.693 C4.207,-2.693 21.262,-19.245 21.262,-19.245z"></path></g></g></g></svg>