<svg xmlns="http://www.w3.org/2000/svg" viewBox="0 0 512 512" width="512" height="512" class="svg_sticker_animation" preserveAspectRatio="xMidYMid meet" style="width: 100%; height: 100%;"><defs><clipPath id="animationMask_MrS3YQ1cNk"><rect width="512" height="512" x="0" y="0"></rect></clipPath><clipPath id="cp_8Hw3yzIR"><path d="M0,0 L512,0 L512,512 L0,512z"></path></clipPath></defs><g clip-path="url(#animationMask_MrS3YQ1cNk)"><g clip-path="url(#cp_8Hw3yzIR)" transform="matrix(1,0,0,1,0,4)" opacity="1"><g transform="matrix(1,0,0,1,4,0)" opacity="1" style="user-select: none;"><g opacity="1" transform="matrix(1,0,0,1,128.328,120.86)"><path fill="rgb(255,210,217)" fill-opacity="1" d="M0 0 M22.973,-10.99 C14.762999999999998,-16.728 -0.8019999999999996,-24.884999999999998 -11.887,-11.65 C-22.973,1.5869999999999997 -3.8469999999999978,24.886000000000003 21.893,22.908"></path></g><g opacity="1" transform="matrix(1,0,0,1,134.604,107.216)"><path fill="rgb(248,174,198)" fill-opacity="1" d="M0 0 M-16.697,0.409 C-6.225,0.33399999999999996 8.062,3.7399999999999993 16.447,10.527 C16.447,10.527 16.697,2.654 16.697,2.654 C8.841,-2.838 -5.741,-10.527 -16.697,0.409z"></path></g><g opacity="1" transform="matrix(1,0,0,1,137.918,123.654)"><path fill="rgb(241,150,168)" fill-opacity="1" d="M0 0 M9.351,-3.085 C6.128000000000001,-5.563000000000001 -1.9619999999999997,-8.946 -5.656,-4.109 C-9.350999999999999,0.726 0.9680000000000017,8.463 9.351,8.947"></path></g><g opacity="1" transform="matrix(1,0,0,1,128.328,120.86)"><path stroke-linecap="round" stroke-linejoin="round" fill-opacity="0" stroke="rgb(62,9,39)" stroke-opacity="1" stroke-width="3.757" d="M0 0 M22.973,-10.99 C14.762999999999998,-16.728 -0.8019999999999996,-24.884999999999998 -11.887,-11.65 C-22.973,1.5869999999999997 -3.8469999999999978,24.886000000000003 21.893,22.908"></path></g></g><g transform="matrix(0.9816,0.1908,-0.1908,0.9816,79.3122,-33.6087)" opacity="1" style="user-select: none;"><g opacity="1" transform="matrix(1,0,0,1,0,0)"><path fill="rgb(250,184,203)" fill-opacity="1" d="M0 0 M230.615,386.201 C230.615,386.201 227.615,396.971 234.799,410.346 C241.983,423.721 271.65,432.216 271.65,432.216 C271.65,432.216 288.939,390.144 288.939,390.144 C288.939,390.144 230.615,386.201 230.615,386.201z"></path></g><g opacity="1" transform="matrix(1,0,0,1,0,0)"><path fill="rgb(255,210,217)" fill-opacity="1" d="M0 0 M206.782,382.627 C192.81,384.37100000000004 182.347,386.55400000000003 186.791,411.98 C191.23499999999999,437.406 213.581,457.02 258.38,473.741 C303.179,490.462 308.18,461.87 304.576,455.932 C300.97200000000004,449.994 256.921,418.75800000000004 247.274,410.425 C237.627,402.092 220.75400000000002,380.883 206.782,382.627z"></path></g><g opacity="1" transform="matrix(1,0,0,1,289.794,464.987)"><path fill="rgb(255,255,255)" fill-opacity="1" d="M0 0 M-0.822,-25.123 C-0.822,-25.123 -28.614,-13.38 -20.911,10.655 C-8.334000000000001,13.100999999999999 3.979,16.636 11.294,6.239 C23.991,-11.468 -0.822,-25.123 -0.822,-25.123z"></path></g><g opacity="1" transform="matrix(1,0,0,1,243.032,439.663)"><path fill="rgb(219,38,120)" fill-opacity="0.15" d="M0 0 M58.057,31.563 C59.803000000000004,29.323 60.884,27.098000000000003 61.495,24.952 C49.958999999999996,27.75 29.395,28.521 3.057,13.572 C-32.732,-6.741 -33.833,-42.077 -33.833,-42.077 C-33.833,-42.077 -61.495000000000005,-43.395 -56.24,-42.71 C-56.24,-42.71 -60.138,-41.777 -60.138,-41.777 C-60.138,-41.777 -53.315,7.968 -5.282,28.226 C0.968,30.586 25.851,35.978 25.851,35.978 C25.851,35.978 48.838,43.394 58.057,31.563z"></path></g><g opacity="1" transform="matrix(1,0,0,1,219.488,405.889)"><path fill="rgb(250,184,203)" fill-opacity="1" d="M0 0 M-3.525,15.746 C-6.77,5.272 1.4530000000000003,-1.016 7.739,-3.432 C14.024999999999999,-5.851 17.496000000000002,-5.8759999999999994 24.222,0.666 C30.952,7.207000000000001 22.831,-15.745 22.831,-15.745 C22.831,-15.745 -9.67,-7.786 -20.311,-7.302 C-30.951,-6.816999999999999 -3.525,15.746 -3.525,15.746z"></path></g><g opacity="1" transform="matrix(1,0,0,1,249.322,443.209)"><path stroke-linecap="round" stroke-linejoin="round" fill-opacity="0" stroke="rgb(62,9,39)" stroke-opacity="1" stroke-width="3.757" d="M0 0 M-9.039,-39.787 C-4.322,-30.709 24.177999999999997,-11.709 32.678,-7.209 C40.102,-3.2779999999999996 66.428,9.791 51.767,28.018 C37.847,45.322 -13.1,22.665 -13.1,22.665 C-60.819,2.0329999999999977 -66.428,-45.322 -66.428,-45.322"></path></g></g><g transform="matrix(1,0,0,1,0,0)" opacity="1" style="user-select: none;"><g opacity="1" transform="matrix(1,0,0,1,0,0)"><path fill="rgb(255,210,217)" fill-opacity="1" d="M0 0 M285.5,397.5 C277.5,405 239,447 249.5,472.5 C260,498 288,472.5 297,462 C306,451.5 329,427 329,425 C329,423 322,408.5 313.5,402.5 C305,396.5 293.5,390 285.5,397.5z"></path></g><g opacity="1" transform="matrix(1,0,0,1,256.402,291.871)"><path fill="rgb(255,210,217)" fill-opacity="1" d="M0 0 M133.734,-93.242 C133.734,-93.242 80.604,-105.75 48.778,-134.766 C48.778,-134.766 -98.656,-132.409 -98.656,-132.409 C-98.656,-132.409 -103.816,-98.65700000000001 -121.225,-61.904 C-138.636,-25.150000000000006 -174.745,56.096 -105.749,93.496 C-94.615,99.53099999999999 -82.356,103.41999999999999 -69.61,105.082 C-69.61,105.082 49.598000000000006,102.62899999999999 69.26,141.266 C106.659,102.57499999999999 138.639,86.405 156.692,19.986 C174.745,-46.429 133.734,-93.242 133.734,-93.242z"></path></g><g opacity="1" transform="matrix(1,0,0,1,240.533,319.516)"><path fill="rgb(250,184,203)" fill-opacity="1" d="M0 0 M96.955,-92.612 C96.638,-89.701 96.287,-86.855 95.92,-84.043 C95.706,-86.119 95.43299999999999,-88.171 95.082,-90.191 C95.082,-90.191 78.096,21.037000000000003 8.937,50.054 C-46.032000000000004,73.12 -78.158,62.242 -107.596,53.339 C-102.662,57.89 -96.81099999999999,62.094 -89.88,65.851 C-78.747,71.886 -66.488,75.77499999999999 -53.742,77.437 C-53.742,77.437 -57.254,78.277 -57.254,78.277 C-38.025,82.235 -18.569,83.47900000000001 -3.066,78.909 C-1.9029999999999998,81.14800000000001 30.464,96.61200000000001 38.588,84.522 C46.71,72.43 70.358,46.67 70.358,46.67 C70.358,46.67 80.515,33.612 94.056,-8.945 C107.596,-51.505 96.955,-92.612 96.955,-92.612z"></path></g><g opacity="1" transform="matrix(1,0,0,1,254.195,463.359)"><path fill="rgb(255,255,255)" fill-opacity="1" d="M0 0 M2.841,-22.859 C12.422,-19.038 27.348999999999997,-12.393999999999998 35.73,6.951 C35.73,6.951 13.804,29.858999999999998 0.537,17.662 C-12.729999999999999,5.467999999999998 2.841,-22.859 2.841,-22.859z"></path></g><g opacity="1" transform="matrix(1,0,0,1,293.929,323.788)"><path fill="rgb(219,38,120)" fill-opacity="0.15" d="M0 0 M96.207,-125.159 C96.207,-125.159 43.076,-137.667 11.25,-166.683 C11.25,-166.683 -136.183,-164.326 -136.183,-164.326 C-136.183,-164.326 -136.495,-162.292 -137.217,-158.693 C-127.51000000000002,-147.739 -109.37,-131.47400000000002 -83.145,-125.159 C-42.038999999999994,-115.26 -3.832,-119.987 -3.832,-119.987 C-3.832,-119.987 -2.842,-129.074 -2.842,-129.074 C-2.842,-129.074 12.126000000000001,-122.516 18.896,-113.808 C25.666,-105.105 27.118,-102.685 27.118,-102.685 C27.118,-102.685 30.503,-114.727 30.503,-114.727 C30.503,-114.727 40.659000000000006,-115.863 51.298,-95.251 C61.936,-74.638 63.871,-44.169536871999945 63.871,-44.169536871999945 C63.871,-44.169536871999945 74.94900000000001,-44.221 87.001,-57.214 C87.49600000000001,-39.916 89.77353687199994,-17.492 78.06053687199994,6.45 C52.42953687199995,58.839000000000006 19.739,85.938 -0.087,111.086 C-14.737,129.665 -27.173000000000002,145.56199999999998 -40.979,155.271 C-40.909,155.32199999999997 -35.849000000000004,159.381 -35.777,159.433 C-18.366,171.684 -6.3139999999999965,146.636 29.733,109.349 C67.132,70.658 101.111,54.488 119.164,-11.931 C137.217,-78.346 96.207,-125.159 96.207,-125.159z"></path></g><g opacity="1" transform="matrix(1,0,0,1,208.685,290.293)"><path stroke-linecap="round" stroke-linejoin="round" fill-opacity="0" stroke="rgb(62,9,39)" stroke-opacity="1" stroke-width="3.757" d="M0 0 M-50.391,-132.473 C-50.391,-132.473 -56.099000000000004,-97.07900000000001 -73.509,-60.326 C-90.919,-23.572000000000003 -127.029,57.674 -58.033,95.074 C10.962999999999994,132.474 123.161,87.984 127.029,-64.194"></path></g><g opacity="1" transform="matrix(1,0,0,1,328.944,344.55)"><path stroke-linecap="round" stroke-linejoin="round" fill-opacity="0" stroke="rgb(62,9,39)" stroke-opacity="1" stroke-width="3.757" d="M0 0 M61.191,-145.922 C61.191,-145.922 102.202,-99.10900000000001 84.149,-32.694 C66.096,33.724999999999994 34.116,49.395536871999944 -3.283,88.08653687199994 C-39.33,125.37353687199993 -55.631,150.922 -73.042,138.671 C-90.452,126.419 -72.356,86.954 -53.012,64.386 C-33.667,41.815999999999995 -18.376,22.765 -18.376,22.765"></path></g><g opacity="1" transform="matrix(1,0,0,1,272.981,454.405)"><path stroke-linecap="round" stroke-linejoin="round" fill-opacity="0" stroke="rgb(62,9,39)" stroke-opacity="1" stroke-width="3.757" d="M0 0 M-16.444,-14.905 C-6.8629999999999995,-11.084 8.062999999999999,-4.4399999999999995 16.444,14.905"></path></g><g opacity="1" transform="matrix(1,0,0,1,128.61,341.458)"><path stroke-linecap="round" stroke-linejoin="round" fill-opacity="0" stroke="rgb(255,249,250)" stroke-opacity="1" stroke-width="3.757" d="M0 0 M-6.566,-17.473 C-5.138999999999999,-6.3039999999999985 -1.4490000000000007,6.449999999999999 6.566,17.473"></path></g><g opacity="1" transform="matrix(1,0,0,1,121.747,306.539)"><path stroke-linecap="round" stroke-linejoin="round" fill-opacity="0" stroke="rgb(255,249,250)" stroke-opacity="1" stroke-width="3.757" d="M0 0 M0.536,-6.931 C-0.061999999999999944,-3.739 -0.536,1.1150000000000002 -0.452,6.931"></path></g></g><g transform="matrix(1,0,0,1,0,0)" opacity="1" style="user-select: none;"><g opacity="1" transform="matrix(1,0,0,1,230.45,356.354)"><path fill="rgb(248,174,198)" fill-opacity="1" d="M0 0 M-16.605,-6.451 C-16.605,-6.451 -9.832999999999998,-2.256 -0.806,-1.934 C8.222000000000001,-1.6139999999999999 16.605,-7.093 16.605,-7.093 C16.605,-7.093 11.766,5.805000000000001 -1.129,6.448 C-14.024,7.093 -16.605,-6.451 -16.605,-6.451z"></path></g></g><g transform="matrix(1,0,0,1,0,0)" opacity="1" style="user-select: none;"><g opacity="1" transform="matrix(1,0,0,1,229.948,330.237)"><path stroke-linecap="round" stroke-linejoin="round" fill-opacity="0" stroke="rgb(62,9,39)" stroke-opacity="1" stroke-width="3.757" d="M0 0 M-17.471,-15.073 C-20.373,-9.027000000000001 -27.028,17.156000000000002 0.904,17.327 C27.027,17.492 24.36,-10.72 22.668,-17.492"></path></g></g><g transform="matrix(1,0,0,1,0,0)" opacity="1" style="user-select: none;"><g opacity="1" transform="matrix(1,0,0,1,148.397,304.122)"><path fill="rgb(62,9,39)" fill-opacity="1" d="M0 0 M2.903,-0.002 C2.903,1.781 1.6019999999999999,3.225 0.001,3.225 C-1.602,3.225 -2.903,1.781 -2.903,-0.002 C-2.903,-1.781 -1.602,-3.225 0.001,-3.225 C1.6019999999999999,-3.225 2.903,-1.781 2.903,-0.002z"></path></g><g opacity="1" transform="matrix(1,0,0,1,179.348,305.737)"><path fill="rgb(62,9,39)" fill-opacity="1" d="M0 0 M2.902,-0.001 C2.902,1.7790000000000001 1.603,3.224 0,3.224 C-1.601,3.224 -2.902,1.7790000000000001 -2.902,-0.001 C-2.902,-1.7799999999999998 -1.601,-3.225 0,-3.225 C1.603,-3.225 2.902,-1.7799999999999998 2.902,-0.001z"></path></g></g><g transform="matrix(1,0,0,1,0,0)" opacity="1" style="user-select: none;"><g opacity="1" transform="matrix(1,0,0,1,302.992,204.274)"><path stroke-linecap="round" stroke-linejoin="round" fill-opacity="0" stroke="rgb(62,9,39)" stroke-opacity="1" stroke-width="3.757" d="M0 0 M-9.833,-9.541 C-9.833,-9.541 4.354,-2.7119999999999997 9.833,9.541"></path></g></g><g transform="matrix(1,0,0,1,0,0)" opacity="1" style="user-select: none;"><g opacity="1" transform="matrix(1,0,0,1,155.08,222.681)"><path fill="rgb(248,174,198)" fill-opacity="1" d="M0 0 M32.402,0 C32.402,17.895 17.895,32.401 0,32.401 C-17.896,32.401 -32.403,17.895 -32.403,0 C-32.403,-17.897 -17.896,-32.401 0,-32.401 C17.895,-32.401 32.402,-17.897 32.402,0z"></path></g><g opacity="1" transform="matrix(1,0,0,1,147.671,218.44)"><path fill="rgb(255,255,255)" fill-opacity="1" d="M0 0 M29.257,0.002 C29.257,16.16 16.16,29.258 0,29.258 C-16.16,29.258 -29.258,16.16 -29.258,0.002 C-29.258,-16.158 -16.16,-29.258 0,-29.258 C16.16,-29.258 29.257,-16.158 29.257,0.002z"></path></g><g opacity="1" transform="matrix(1,0,0,1,149.666,218.74)"><path fill="rgb(0,0,0)" fill-opacity="1" d="M0 0 M19.318,-0.002 C19.318,10.67 10.668000000000001,19.317 -0.001,19.317 C-10.668999999999999,19.317 -19.319,10.67 -19.319,-0.002 C-19.319,-10.668000000000001 -10.668999999999999,-19.317 -0.001,-19.317 C10.668000000000001,-19.317 19.318,-10.668000000000001 19.318,-0.002z"></path></g><g opacity="1" transform="matrix(1,0,0,1,145.365,210.303)"><path fill="rgb(255,255,255)" fill-opacity="1" d="M0 0 M-3.272,11.513 C-3.272,13.261 -4.694,14.686 -6.447,14.686 C-8.201,14.686 -9.625,13.261 -9.625,11.513 C-9.625,9.757 -8.201,8.336 -6.447,8.336 C-4.694,8.336 -3.272,9.757 -3.272,11.513zM0 0 M16.577,2.38 C11.634000000000002,1.9449999999999998 13.173,7.764000000000001 11.967,10.906 C10.761000000000001,14.048 5.44,18.369 9.429,20.64 C15.636,24.174 22.761000000000003,2.924 16.577,2.38zM0 0 M4.596,1.248 C3.831,4.067 1.151,5.797000000000001 -1.385,5.107 C-3.928,4.415 -5.364999999999999,1.5709999999999997 -4.6,-1.249 C-3.832,-4.071 -1.1540000000000001,-5.797000000000001 1.385,-5.11 C3.9240000000000004,-4.422000000000001 5.365,-1.575 4.596,1.248z"></path></g><g opacity="1" transform="matrix(0.9397,0.342,-0.342,0.9397,147.671,218.44)"><path fill="rgb(255,210,217)" fill-opacity="1" d="M0 0 M29.258,0.002 C29.258,4.221 31.522,-3.559 29.915,0.064 C26.466,-21.808 11.324,-27.741 -0.614,-27.983 C-11.511000000000001,-28.204 -26.76,-18.93 -29.471,1.205 C-31.361,-2.666 -29.258,4.601 -29.258,0.002 C-29.258,-16.158 -16.16,-29.258 0,-29.258 C16.16,-29.258 29.258,-16.158 29.258,0.002z"></path></g><g opacity="1" transform="matrix(0.9397,0.342,-0.342,0.9397,147.671,218.44)"><path fill="rgb(255,210,217)" fill-opacity="1" d="M0 0 M26.757,11.855 C19.388,23.07 10.806000000000001,28.582 -1.132,28.34 C-12.029,28.119 -22.369,20.177 -26.306,12.823 C-26.279,16.013 -16.313,28.795 -0.153,28.795 C16.007,28.795 25.687,16.254 26.757,11.855z"></path></g><g opacity="1" transform="matrix(1,0,0,1,150.723,220.8)"><path fill="rgb(219,37,119)" fill-opacity="0.15" d="M0 0 M12.853,-26.899 C16.665,-21.957 18.954,-15.783999999999999 18.954,-9.062 C18.954,7.099000000000002 5.8530000000000015,20.199 -10.305,20.199 C-16.174,20.199 -21.628,18.453 -26.206,15.479 C-20.857,22.415 -12.486999999999998,26.899 -3.05,26.899 C13.11,26.899 26.206,13.801000000000002 26.206,-2.357 C26.206,-12.648 20.884,-21.682000000000002 12.853,-26.899z"></path></g><g opacity="1" transform="matrix(1,0,0,1,147.671,218.44)"><path stroke-linecap="round" stroke-linejoin="round" fill-opacity="0" stroke="rgb(62,9,39)" stroke-opacity="1" stroke-width="3.757" d="M0 0 M29.257,0.002 C29.257,16.16 16.16,29.258 0,29.258 C-16.16,29.258 -29.258,16.16 -29.258,0.002 C-29.258,-16.158 -16.16,-29.258 0,-29.258 C16.16,-29.258 29.257,-16.158 29.257,0.002z"></path></g><g opacity="0" transform="matrix(1,0,0,1,0,0)"><path stroke-linecap="round" stroke-linejoin="round" fill-opacity="0" stroke="rgb(63,10,38)" stroke-opacity="1" stroke-width="3.76" d="M0 0 M175.75,228.75 C175.75,228.75 179.5,197.5 156.5,191.25 C129.52100000000002,183.919 120,209 120,209"></path></g><g opacity="0" transform="matrix(1,0,0,1,0,0)"><path stroke-linecap="round" stroke-linejoin="round" fill-opacity="0" stroke="rgb(63,10,38)" stroke-opacity="1" stroke-width="3.76" d="M0 0 M170,238.25 C170,238.25 154.054,251.049 138,245 C120.75,238.5 118.5,221.25 118.5,221.25"></path></g></g><g transform="matrix(1,0,0,1,135,25)" opacity="1" style="user-select: none;"><g opacity="1" transform="matrix(1,0,0,1,154.33,222.681)"><path fill="rgb(248,174,198)" fill-opacity="1" d="M0 0 M32.402,0 C32.402,17.895 17.895,32.401 0,32.401 C-17.896,32.401 -32.403,17.895 -32.403,0 C-32.403,-17.897 -17.896,-32.401 0,-32.401 C17.895,-32.401 32.402,-17.897 32.402,0z"></path></g><g opacity="1" transform="matrix(1,0,0,1,147.671,218.44)"><path fill="rgb(255,255,255)" fill-opacity="1" d="M0 0 M29.257,0.002 C29.257,16.16 16.16,29.258 0,29.258 C-16.16,29.258 -29.258,16.16 -29.258,0.002 C-29.258,-16.158 -16.16,-29.258 0,-29.258 C16.16,-29.258 29.257,-16.158 29.257,0.002z"></path></g><g opacity="1" transform="matrix(1,0,0,1,151.666,218.74)"><path fill="rgb(0,0,0)" fill-opacity="1" d="M0 0 M19.318,-0.002 C19.318,10.67 10.668000000000001,19.317 -0.001,19.317 C-10.668999999999999,19.317 -19.319,10.67 -19.319,-0.002 C-19.319,-10.668000000000001 -10.668999999999999,-19.317 -0.001,-19.317 C10.668000000000001,-19.317 19.318,-10.668000000000001 19.318,-0.002z"></path></g><g opacity="1" transform="matrix(1,0,0,1,147.865,210.803)"><path fill="rgb(255,255,255)" fill-opacity="1" d="M0 0 M-3.272,11.513 C-3.272,13.261 -4.694,14.686 -6.447,14.686 C-8.201,14.686 -9.625,13.261 -9.625,11.513 C-9.625,9.757 -8.201,8.336 -6.447,8.336 C-4.694,8.336 -3.272,9.757 -3.272,11.513zM0 0 M16.577,2.38 C12.209000000000001,1.0239999999999998 14.356,7.383000000000001 13.119,11.214 C11.882,15.045 4.976,17.485 9.304,20.64 C13.632000000000001,23.795 24.757,4.92 16.577,2.38zM0 0 M4.596,1.248 C3.831,4.067 1.151,5.797000000000001 -1.385,5.107 C-3.928,4.415 -5.364999999999999,1.5709999999999997 -4.6,-1.249 C-3.832,-4.071 -1.1540000000000001,-5.797000000000001 1.385,-5.11 C3.9240000000000004,-4.422000000000001 5.365,-1.575 4.596,1.248z"></path></g><g opacity="1" transform="matrix(0.9397,0.342,-0.342,0.9397,147.671,218.44)"><path fill="rgb(255,210,217)" fill-opacity="1" d="M0 0 M29.258,0.002 C29.258,4.221 31.522,-3.559 29.915,0.064 C26.466,-21.808 11.324,-27.741 -0.614,-27.983 C-11.511000000000001,-28.204 -26.76,-18.93 -29.471,1.205 C-31.361,-2.666 -29.258,4.601 -29.258,0.002 C-29.258,-16.158 -16.16,-29.258 0,-29.258 C16.16,-29.258 29.258,-16.158 29.258,0.002z"></path></g><g opacity="1" transform="matrix(0.9397,0.342,-0.342,0.9397,147.671,218.44)"><path fill="rgb(255,210,217)" fill-opacity="1" d="M0 0 M26.757,11.855 C19.388,23.07 10.806000000000001,28.582 -1.132,28.34 C-12.029,28.119 -22.369,20.177 -26.306,12.823 C-26.279,16.013 -16.313,28.795 -0.153,28.795 C16.007,28.795 25.687,16.254 26.757,11.855z"></path></g><g opacity="1" transform="matrix(1,0,0,1,150.723,220.8)"><path fill="rgb(219,37,119)" fill-opacity="0.15" d="M0 0 M12.853,-26.899 C16.665,-21.957 18.954,-15.783999999999999 18.954,-9.062 C18.954,7.099000000000002 5.8530000000000015,20.199 -10.305,20.199 C-16.174,20.199 -21.628,18.453 -26.206,15.479 C-20.857,22.415 -12.486999999999998,26.899 -3.05,26.899 C13.11,26.899 26.206,13.801000000000002 26.206,-2.357 C26.206,-12.648 20.884,-21.682000000000002 12.853,-26.899z"></path></g><g opacity="1" transform="matrix(1,0,0,1,147.671,218.44)"><path stroke-linecap="round" stroke-linejoin="round" fill-opacity="0" stroke="rgb(62,9,39)" stroke-opacity="1" stroke-width="3.757" d="M0 0 M29.257,0.002 C29.257,16.16 16.16,29.258 0,29.258 C-16.16,29.258 -29.258,16.16 -29.258,0.002 C-29.258,-16.158 -16.16,-29.258 0,-29.258 C16.16,-29.258 29.257,-16.158 29.257,0.002z"></path></g><g opacity="0" transform="matrix(1,0,0,1,0,0)"><path stroke-linecap="round" stroke-linejoin="round" fill-opacity="0" stroke="rgb(63,10,38)" stroke-opacity="1" stroke-width="3.76" d="M0 0 M175.75,228.75 C175.75,228.75 179.5,197.5 156.5,191.25 C129.52100000000002,183.919 120,209 120,209"></path></g><g opacity="0" transform="matrix(1,0,0,1,0,0)"><path stroke-linecap="round" stroke-linejoin="round" fill-opacity="0" stroke="rgb(63,10,38)" stroke-opacity="1" stroke-width="3.76" d="M0 0 M170,238.25 C170,238.25 154.054,251.049 138,245 C120.75,238.5 118.5,221.25 118.5,221.25"></path></g></g><g transform="matrix(1,0,0,1,0,0)" opacity="1" style="user-select: none;"><g opacity="1" transform="matrix(1,0,0,1,129.699,182.816)"><path stroke-linecap="round" stroke-linejoin="round" fill-opacity="0" stroke="rgb(62,9,39)" stroke-opacity="1" stroke-width="3.757" d="M0 0 M-11.286,6.366 C-11.286,6.366 -1.612,-3.1419999999999995 11.285,-6.366"></path></g></g><g transform="matrix(1,0,0,1,0,0)" opacity="1" style="user-select: none;"><g opacity="1" transform="matrix(1,0,0,1,290.202,292.034)"><path fill="rgb(240,134,159)" fill-opacity="1" d="M0 0 M-21.601,0.319 C-21.064,-5.613 5.537000000000001,-9.996 13.92,-6.128 C22.3,-2.259 17.195999999999998,8.702 4.891,9.348 C-7.414,9.996 -22.3,8.058 -21.601,0.319z"></path></g></g><g transform="matrix(1,0,0,1,0,0)" opacity="1" style="user-select: none;"><g opacity="1" transform="matrix(1,0,0,1,128.458,262.995)"><path fill="rgb(240,134,159)" fill-opacity="1" d="M0 0 M20.506,-0.612 C20.825,-6.37 -3.7929999999999993,-9.616 -12.309,-6.342 C-20.823999999999998,-3.07 -16.818,7.159 -2.29,8.391 C12.239,9.616 20.253,3.8869999999999996 20.506,-0.612z"></path></g></g><g transform="matrix(1,0,0,1,0,0)" opacity="1" style="user-select: none;"><g opacity="1" transform="matrix(1,0,0,1,268.104,168.999)"><path fill="rgb(37,223,237)" fill-opacity="1" d="M0 0 M100.498,-39.622 C68.902,-77.666 27.688,-72.579 27.688,-72.579 C27.688,-72.579 27.701,-72.532 27.701,-72.532 C-3.401,-95.146 -37.414,-77.174 -37.414,-77.174 C-37.414,-77.174 -37.414,-77.173 -37.414,-77.173 C-60.585,-88.682 -87.532,-87.154 -106.449,-70.663 C-130.546,-49.653999999999996 -127.805,-7.554 -71.629,11.873 C-15.113000000000007,31.417 13.487,21.546 13.487,21.546 C13.487,21.546 13.194999999999999,17.317 12.258,10.658 C12.258,10.658 12.26,10.662 12.26,10.662 C30.415999999999997,14.518 51.491,29.376 51.491,29.376 C51.491,29.376 52.854,24.229 54.041,16.137 C54.041,16.137 54.718,18.412 54.718,18.412 C64.55000000000001,36.144 81.961,39.53 92.117,53.878 C102.474,68.511 97.919,95.146 97.919,95.146 C97.919,95.146 105.656,91.279 114.039,73.869 C122.421,56.457 130.547,-3.4350000000000023 100.498,-39.622z"></path></g><g opacity="1" transform="matrix(1,0,0,1,347.221,177.739)"><path fill="rgb(66,137,239)" fill-opacity="1" d="M0 0 M21.381,-48.362 C-10.215,-86.406 -51.429,-81.32 -51.429,-81.32 C-51.429,-81.32 -51.334,-80.999 -51.334,-80.999 C-45.71,-75.99 -27.823,-58.027 -11.507,-19.508 C2.808,14.284000000000002 15.915000000000001,32.968 18.829,60.585 C21.018,73.41 18.802,86.406 18.802,86.406 C18.802,86.406 26.538999999999998,82.538 34.922,65.128 C43.303999999999995,47.716 51.43,-12.175000000000004 21.381,-48.362z"></path></g><g opacity="1" transform="matrix(1,0,0,1,347.758,179.082)"><path fill="rgb(199,87,253)" fill-opacity="1" d="M0 0 M-50.892,-82.757 C-39.231,-76.444 -9.625,-57.584 2.296,-23.544 C16.131,15.962999999999997 27.476000000000003,46.602000000000004 19.67,84.135 C22.268,82.191 28.147,76.742 34.384,63.786 C42.766,46.373000000000005 50.891999999999996,-13.518 20.843,-49.704 C-7.751000000000001,-84.13499999999999 -44.220000000000006,-83.241 -50.892,-82.757z"></path></g><g opacity="1" transform="matrix(1,0,0,1,209.574,148.955)"><path fill="rgb(16,206,221)" fill-opacity="1" d="M0 0 M72.017,41.59 C72.017,41.59 72.012,41.53 72.008,41.491 C45.696,35.314 -3.666999999999998,20.466 -26.676,-2.814 C-44.08,-20.42 -47.046,-39.714999999999996 -46.896,-51.461 C-47.237,-51.179 -47.586,-50.910000000000004 -47.919,-50.618 C-72.01599999999999,-29.610000000000003 -69.275,12.490000000000002 -13.099,31.917 C43.417,51.461 72.017,41.59 72.017,41.59z"></path></g><g opacity="1" transform="matrix(1,0,0,1,276.988,142.825)"><path fill="rgb(146,244,69)" fill-opacity="1" d="M0 0 M-39.625,-47.945 C-39.625,-47.945 -11.799000000000001,-45.689 4.603,-11.836 C21.005000000000003,22.016 24.552,44.906 24.552,44.906 C24.552,44.906 41.87,55.04 41.87,55.04 C41.87,55.04 38.417,3.567 14.559,-25.737 C-9.299000000000001,-55.04 -41.869,-52.945 -41.869,-52.945 C-41.869,-52.945 -39.625,-47.945 -39.625,-47.945z"></path></g><g opacity="1" transform="matrix(1,0,0,1,336.508,178.654)"><path fill="rgb(16,206,221)" fill-opacity="1" d="M0 0 M29.368,58.68 C26.296,27.91 -5.864,7.581999999999999 -6.757,-10.266 C-7.723,-29.61 -21.185,-58.68 -21.185,-58.68 C-21.185,-58.68 -29.367,-44.024 -29.367,-44.024 C-29.367,-44.024 -13.688,8.757 -13.688,8.757 C-3.856,26.490000000000002 13.555,29.875 23.712,44.223 C26.644,48.37 28.383,53.482 29.368,58.68z"></path></g><g opacity="1" transform="matrix(1,0,0,1,223.208,135.788)"><path fill="rgb(120,249,190)" fill-opacity="1" d="M0 0 M42.377,-6.775 C33.035000000000004,-28.335 7.481,-43.963 7.481,-43.963 C7.481,-43.963 7.481,-43.962 7.481,-43.962 C-14.97,-55.112 -40.943,-53.982 -59.747,-38.899 C-45.678,-39.322 -16.901000000000003,-37.574 2.891,-18.7 C25.680999999999997,3.039999999999999 47.104,34.621 57.161,55.112 C57.965,54.899 58.383,54.758 58.383,54.758 C58.383,54.758 58.091,50.528 57.153,43.869 C57.153,43.869 57.155,43.873 57.155,43.873 C59.747,44.422999999999995 51.719,14.784999999999998 42.377,-6.775z"></path></g><g opacity="1" transform="matrix(1,0,0,1,283.526,134.538)"><path fill="rgb(255,221,47)" fill-opacity="1" d="M0 0 M19.952,-31.597 C-12.934999999999999,-63.836 -52.837,-42.714 -52.837,-42.714 C-52.837,-42.714 -52.21,-41.601 -52.21,-41.601 C-42.314,-41.351 -10.012,-38.183 7.053,-8.387 C22.631,18.812 31.548,43.711 34.87,63.015 C35.64,63.534 36.068,63.835 36.068,63.835 C36.068,63.835 52.837,0.6419999999999959 19.952,-31.597z"></path></g><g opacity="1" transform="matrix(1,0,0,1,284.466,136.605)"><path fill="rgb(234,162,49)" fill-opacity="1" d="M0 0 M19.012,-33.664 C-9.655999999999999,-61.769000000000005 -43.645,-49.326 -51.896,-45.668 C-39.467,-46.028 -3.138,-46.703 14.495,-18.514 C31.902,9.318000000000001 33.568,40.887 34.852,61.573 C35.032,61.698 35.128,61.768 35.128,61.768 C35.128,61.768 51.897,-1.4250000000000043 19.012,-33.664z"></path></g><g opacity="1" transform="matrix(1,0,0,1,270.937,140.178)"><path fill="rgb(121,213,39)" fill-opacity="1" d="M0 0 M-34.842,-48.201 C-34.842,-48.201 -2.3739999999999988,-38.103 15.986,-4.006 C34.842,31.012 31.981,48.201 31.981,48.201 C31.981,48.201 8.357,38.85 8.357,38.85 C8.357,38.85 7.832,8.218999999999998 -7.056,-16.606 C-21.947,-41.43000000000001 -33.574,-42.683 -33.574,-42.683 C-33.574,-42.683 -34.842,-48.201 -34.842,-48.201z"></path></g><g opacity="1" transform="matrix(1,0,0,1,209.574,138.414)"><path stroke-linecap="round" stroke-linejoin="round" fill-opacity="0" stroke="rgb(13,88,126)" stroke-opacity="1" stroke-width="3.757" d="M0 0 M-47.919,-40.079 C-72.01599999999999,-19.071 -69.276,23.029000000000003 -13.1,42.456 C43.416,62.001000000000005 72.016,52.13 72.016,52.13 C72.016,52.13 68.15,-4.617000000000001 42.357,-31.053 C16.561,-57.49 -22.770999999999997,-62.001999999999995 -47.919,-40.079z"></path></g><g opacity="1" transform="matrix(1,0,0,1,350.912,179.906)"><path fill="rgb(232,68,121)" fill-opacity="1" d="M0 0 M9.309,-36.05 C26.019,1.6480000000000032 35.521,44.25300000000001 16.023,83.668 C18.291,82.09700000000001 24.552,76.83500000000001 31.231,62.962 C39.613,45.550000000000004 47.739000000000004,-14.341999999999999 17.69,-50.528 C-5.748999999999999,-78.752 -34.465999999999994,-83.23100000000001 -47.739,-83.668 C-30.613999999999997,-77.50500000000001 -2.937000000000001,-63.669 9.309,-36.05z"></path></g><g opacity="1" transform="matrix(1,0,0,1,283.526,134.538)"><path stroke-linecap="round" stroke-linejoin="round" fill-opacity="0" stroke="rgb(13,88,126)" stroke-opacity="1" stroke-width="3.757" d="M0 0 M-52.837,-42.714 C-52.837,-42.714 -12.936,-63.836 19.951,-31.596 C52.836,0.6429999999999971 36.068,63.836 36.068,63.836 C36.068,63.836 14.992999999999999,48.978 -3.163,45.122"></path></g><g opacity="1" transform="matrix(1,0,0,1,0,0)"><path fill="rgb(13,88,126)" fill-opacity="0.33" d="M0 0 M345.5,150.25 C345.5,150.25 346.25,155.5 346.25,155.5 C346.25,155.5 354,161 365.75,163.5 C377.5,166 386.25,165.75 386.25,165.75 C386.25,165.75 381,151 381,151 C381,151 345.5,150.25 345.5,150.25z"></path></g><g opacity="1" transform="matrix(1,0,0,1,347.221,177.739)"><path stroke-linecap="round" stroke-linejoin="round" fill-opacity="0" stroke="rgb(13,88,126)" stroke-opacity="1" stroke-width="3.757" d="M0 0 M-51.429,-81.32 C-51.429,-81.32 -10.215,-86.406 21.381,-48.362 C51.429,-12.175000000000004 43.303,47.716 34.922,65.128 C26.538999999999998,82.538 18.801,86.406 18.801,86.406 C18.801,86.406 23.356,59.769999999999996 13,45.137 C2.843,30.789 -14.567999999999998,27.403 -24.4,9.671"></path></g></g><g transform="matrix(1,0,0,1,0,0)" opacity="1" style="user-select: none;"><g opacity="1" transform="matrix(1,0,0,1,220.07,84.742)"><path fill="rgb(255,255,255)" fill-opacity="1" d="M0 0 M11.997,56.373 C-0.5909999999999993,60.451 -21.22,62.544 -23.204,34.807 C-25.18,7.0760000000000005 -26.655,-27.524 -27.274,-42.512 C-27.895,-57.502 -18.326999999999998,-62.543 -10.847,-47.046 C-3.369999999999999,-31.558 18.545,14.321 22.486,23.227 C26.426000000000002,32.146 27.895,51.217999999999996 11.997,56.373z"></path></g><g opacity="1" transform="matrix(1,0,0,1,225.462,87.608)"><path fill="rgb(215,213,213)" fill-opacity="1" d="M0 0 M-22.047,50.093 C-4.144000000000002,51.445 10.373999999999999,37.986999999999995 6.55,24.374 C2.9869999999999997,11.665 -15.110999999999999,-38.013 -22.502,-58.166 C-20.423,-56.766999999999996 -18.257,-54.092999999999996 -16.239,-49.913 C-8.763000000000002,-34.42399999999999 13.153,11.455 17.093,20.36 C21.033,29.28 22.502,48.352 6.604,53.507 C-2.0390000000000006,56.302 -14.462,58.165000000000006 -22.047,50.093z"></path></g><g opacity="1" transform="matrix(1,0,0,1,207.032,59.723)"><path stroke-linecap="round" stroke-linejoin="round" fill-opacity="0" stroke="rgb(62,9,39)" stroke-opacity="1" stroke-width="3.757" d="M0 0 M13.688,1.944 C13.688,1.944 -0.9370000000000012,4.592 -13.688,-4.591"></path></g><g opacity="1" transform="matrix(1,0,0,1,214.348,89.416)"><path stroke-linecap="round" stroke-linejoin="round" fill-opacity="0" stroke="rgb(62,9,39)" stroke-opacity="1" stroke-width="3.757" d="M0 0 M18.875,-1.449 C18.875,-1.449 1.4370000000000012,7.629 -18.875,-7.629"></path></g><g opacity="1" transform="matrix(1,0,0,1,220.391,118.158)"><path stroke-linecap="round" stroke-linejoin="round" fill-opacity="0" stroke="rgb(62,9,39)" stroke-opacity="1" stroke-width="3.757" d="M0 0 M24.228,-3.172 C24.228,-3.172 -2.6290000000000013,9.099 -24.228,-9.099"></path></g><g opacity="1" transform="matrix(1,0,0,1,220.07,84.742)"><path stroke-linecap="round" stroke-linejoin="round" fill-opacity="0" stroke="rgb(62,9,39)" stroke-opacity="1" stroke-width="3.757" d="M0 0 M11.997,56.373 C-0.5909999999999993,60.451 -21.22,62.544 -23.204,34.807 C-25.18,7.0760000000000005 -26.655,-27.524 -27.274,-42.512 C-27.895,-57.502 -18.326999999999998,-62.543 -10.847,-47.046 C-3.369999999999999,-31.558 18.545,14.321 22.486,23.227 C26.426000000000002,32.146 27.895,51.217999999999996 11.997,56.373z"></path></g></g><g transform="matrix(1,0,0,1,0,3.2165)" opacity="1" style="user-select: none;"><g opacity="1" transform="matrix(1,0,0,1,224.192,53.795)"><path fill="rgb(255,230,51)" fill-opacity="1" d="M0 0 M0.001,-18.84 C-4.805,-18.84 -12.33372953843945,-18.401516903847536 -12.282729538439451,-18.298516903847535 C-11.093729538439451,-15.838516903847534 -9.686246442286985,-12.706516903847534 -7.979246442286985,-9.145516903847534 C-4.890246442286984,-9.226516903847534 -3.2310000000000003,-9.168 0.001,-9.168 C32.153999999999996,-9.168 58.217,-5.063 58.217,0 C58.217,5.064 32.153999999999996,8.073 0.001,8.073 C-32.152,8.073 -58.217,5.064 -58.217,0 C-58.217,-3.126 -48.269,-5.886 -33.088,-7.541 C-33.171,-9.474 -33.244,-11.256 -33.31,-12.839 C-33.369,-14.251000000000001 -33.343,-15.579 -33.255,-16.837 C-57.492000000000004,-13.739 -74.128,-7.367 -74.128,0 C-74.128,10.406 -40.940000000000005,18.84 0.001,18.84 C40.94,18.84 74.128,10.406 74.128,0 C74.128,-10.404 40.94,-18.84 0.001,-18.84z"></path></g></g><g transform="matrix(1,0,0,1,0,-2)" opacity="1" style="user-select: none;"><g opacity="1" transform="matrix(1,0,0,1,378.596,127.763)"><path fill="rgb(255,210,217)" fill-opacity="1" d="M0 0 M-41.59,-2.416 C-41.59,-2.416 -32.884,-9.187000000000001 -13.54,-19.827 C5.805,-30.468000000000004 36.589,-26.113 39.089,-5.318 C41.591,15.477000000000002 6.770000000000003,30.467 -31.918,27.567"></path></g><g opacity="1" transform="matrix(1,0,0,1,381.6,139.343)"><path fill="rgb(248,174,198)" fill-opacity="1" d="M0 0 M-38.586,4.626 C-38.586,4.626 -34.922,15.987 -34.922,15.987 C3.767000000000003,18.887999999999998 38.587,3.897000000000002 36.085,-16.897 C36.005,-17.58 35.889,-18.240000000000002 35.746,-18.888 C10.600000000000001,8.055999999999997 -24.659999999999997,6.522 -38.586,4.626z"></path></g><g opacity="1" transform="matrix(1,0,0,1,370.134,131.904)"><path fill="rgb(241,150,168)" fill-opacity="1" d="M0 0 M-28.776,3.114 C-28.776,3.114 -11.85,-5.107 2.176,-9.945 C16.2,-14.778 28.775,-6.074 20.552,1.663 C12.33,9.402 -14.005,14.777999999999999 -26.469,14.751"></path></g><g opacity="1" transform="matrix(1,0,0,1,378.596,127.763)"><path stroke-linecap="round" stroke-linejoin="round" fill-opacity="0" stroke="rgb(62,9,39)" stroke-opacity="1" stroke-width="3.757" d="M0 0 M-41.59,-2.416 C-41.59,-2.416 -32.884,-9.187000000000001 -13.54,-19.827 C5.805,-30.468000000000004 36.589,-26.113 39.089,-5.318 C41.591,15.477000000000002 6.770000000000003,30.467 -31.918,27.567"></path></g></g><g transform="matrix(1,0,0,1,0,0)" opacity="1" style="user-select: none;"><g opacity="1" transform="matrix(1,0,0,1,339.424,139.613)"><path stroke-linecap="round" stroke-linejoin="round" fill-opacity="0" stroke="rgb(13,88,126)" stroke-opacity="1" stroke-width="3.757" d="M0 0 M-6.77,-21.521 C-6.77,-21.521 6.771,5.079000000000001 6.289,21.521"></path></g></g></g></g></svg>