<svg xmlns="http://www.w3.org/2000/svg" viewBox="0 0 512 512" width="512" height="512" class="svg_sticker_animation" preserveAspectRatio="xMidYMid meet" style="width: 100%; height: 100%;"><defs><clipPath id="animationMask_HdMpBtkUMP"><rect width="512" height="512" x="0" y="0"></rect></clipPath></defs><g clip-path="url(#animationMask_HdMpBtkUMP)"><g transform="matrix(0.9659,0.2588,-0.2588,0.9659,42.2044,-91.3399)" opacity="1" style="user-select: none;"><g opacity="1" transform="matrix(1,0,0,1,414.11,127.137)"><path fill="rgb(255,210,217)" fill-opacity="1" d="M0 0 M-47.786,-9.443 C-35.006,-17.779 -20.003,-42.230000000000004 5.554,-38.895 C31.118000000000002,-35.56 47.786,8.890999999999998 20.005,25.561 C-7.777000000000001,42.231 -25.001,39.453 -25.001,39.453"></path></g><g opacity="1" transform="matrix(1,0,0,1,402.162,132.697)"><path fill="rgb(241,150,168)" fill-opacity="1" d="M0 0 M-25.283,1.668 C-15.279000000000002,-4.999 13.059,-20.561 19.171,-10.003 C25.282,0.5549999999999997 5.279,18.336 -16.946,20.561"></path></g><g opacity="1" transform="matrix(1,0,0,1,400.331,105.328)"><path fill="rgb(250,184,203)" fill-opacity="1" d="M0 0 M19.333,-17.086 C-6.224,-20.421 -21.228,4.030000000000001 -34.008,12.367 C-34.008,12.367 -30.257,20.421 -30.257,20.421 C-22.215000000000003,15.447 -10.223,7.708 -1.224,0.51 C9.285,-7.898 23.136000000000003,-11.066 34.008,-10.096 C29.739000000000004,-13.829 24.737,-16.38 19.333,-17.086z"></path></g><g opacity="1" transform="matrix(1,0,0,1,414.11,127.137)"><path stroke-linecap="round" stroke-linejoin="round" fill-opacity="0" stroke="rgb(62,9,39)" stroke-opacity="1" stroke-width="3.757" d="M0 0 M-47.786,-9.443 C-35.006,-17.779 -20.003,-42.230000000000004 5.554,-38.895 C31.118000000000002,-35.56 47.786,8.890999999999998 20.005,25.561 C-7.777000000000001,42.231 -25.001,39.453 -25.001,39.453"></path></g></g><g transform="matrix(1,0,0,1,0,0)" opacity="1" style="user-select: none;"><g opacity="1" transform="matrix(1,0,0,1,244.612,329.625)"><path fill="rgb(255,210,217)" fill-opacity="1" d="M0 0 M149.535,-62.899 C137.68,-88.831 141.384,-128.103 141.384,-128.103 C141.384,-128.103 -64.775,-182.375 -64.775,-182.375 C-64.775,-182.375 -189.061,-62.159 -189.061,-62.159 C-189.061,-62.159 -202.137,18.536 -163.124,83.797 C-103.667,183.25900000000001 -14.766,149.921 -14.766,149.921 C-14.766,149.921 -0.870000000000001,156.77599999999998 16.169,148.253 C24.472,144.106 29.458000000000002,137.398 31.571,131.149 C95.325,155.976 163.404,125.132 182.133,79.351 C202.137,30.452999999999996 161.386,-36.97 149.535,-62.899z"></path></g><g opacity="1" transform="matrix(1,0,0,1,214.235,337.998)"><path fill="rgb(219,38,120)" fill-opacity="0.15" d="M0 0 M43.982,-170.112 C43.982,-170.112 -41.844,-173.63 -41.844,-173.63 C-41.844,-173.63 -117.91,-109.967 -117.91,-109.967 C-117.91,-109.967 -158.684,-71.791 -158.684,-71.791 C-158.684,-71.791 -171.76000000000002,8.902000000000001 -132.747,74.166 C-73.29000000000002,173.63 15.61,140.538 15.61,140.538 C15.61,140.538 29.508,147.14000000000001 46.546,138.626 C54.85,134.473 59.835,127.763 61.948,121.519 C63.503,122.123 33.948,135.84699999999998 25.801,133.623 C17.652,131.403 10.244,131.403 2.089,132.885 C-6.061,134.363 -70.517,126.959 -104.598,33.603 C-113.449,9.360000000000003 -118.196,-11.876999999999999 -120.383,-30.046 C-113.76299999999999,-50.34 -103.05000000000001,-63.974 -75.742,-74.719 C-41.845000000000006,-88.05199999999999 -7.949,-123.063 -7.949,-123.063 C-7.949,-123.063 12.056000000000001,-114.17 37.061,-114.73 C62.07,-115.283 88.74,-118.614 88.74,-118.614 C88.74,-118.614 88.74,-126.951 88.74,-126.951 C88.74,-126.951 132.94899999999998,-120.86200000000001 171.319,-128.591 C171.476,-133.472 171.76,-136.475 171.76,-136.475 C171.76,-136.475 43.982,-170.112 43.982,-170.112z"></path></g><g opacity="1" transform="matrix(1,0,0,1,296.91,403.599)"><path fill="rgb(250,184,203)" fill-opacity="1" d="M0 0 M26.999,42.681 C-48.20400000000001,39.717999999999996 -113.774,-68.453 -113.774,-68.453 C-119.41,-60.599000000000004 -128.962,-50.30200000000001 -126,-32.517 C-123.037,-14.738000000000003 -112.294,-1.4030000000000005 -109.238,11.658 C-106.182,24.714 -107.293,41.942 -107.293,41.942 C-107.293,41.942 -95.343,27.775 -101.18,9.714 C-107.015,-8.344 -112.572,-18.626 -109.238,-23.07 C-105.903,-27.516 -102.014,-29.74 -102.014,-29.74 C-102.014,-29.74 -81.91000000000001,44.900999999999996 10.633,65.038 C38.84,68.452 66.161,62.278 87.971,50.022 C108.339,36.303 122.087,18.25 127.914,9.665 C128.292,8.892999999999999 128.61599999999999,8.106 128.962,7.326 C121.079,16.29 90.608,45.19 26.999,42.681z"></path></g><g opacity="1" transform="matrix(1,0,0,1,187.891,353.651)"><path stroke-linecap="round" stroke-linejoin="round" fill-opacity="0" stroke="rgb(62,9,39)" stroke-opacity="1" stroke-width="3.757" d="M0 0 M6.497,19.168 C-1.6560000000000006,1.9860000000000007 -6.301,-14.811 -6.497,-19.169"></path></g><g opacity="1" transform="matrix(1,0,0,1,320.708,343.463)"><path stroke-linecap="round" stroke-linejoin="round" fill-opacity="0" stroke="rgb(62,9,39)" stroke-opacity="1" stroke-width="3.757" d="M0 0 M65.062,-142.048 C65.062,-142.048 61.361000000000004,-102.77799999999999 73.212,-76.845 C85.069,-50.919 125.813,16.506999999999998 105.812,65.407 C87.079,111.199 18.967,142.047 -44.802,117.184 C-44.802,117.184 -98.917,95.755 -125.813,30.396"></path></g><g opacity="1" transform="matrix(1,0,0,1,118.373,376.105)"><path stroke-linecap="round" stroke-linejoin="round" fill-opacity="0" stroke="rgb(62,9,39)" stroke-opacity="1" stroke-width="3.757" d="M0 0 M110.876,103.703 C52.377,115.394 -1.4470000000000027,96.87299999999999 -37.109,37.21 C-76.126,-28.052 -63.044,-108.751 -63.044,-108.751"></path></g></g><g transform="matrix(1,0,0,1,0,0)" opacity="1" style="user-select: none;"><g opacity="1" transform="matrix(1,0,0,1,417.257,366.636)"><path stroke-linecap="round" stroke-linejoin="round" fill-opacity="0" stroke="rgb(255,249,250)" stroke-opacity="1" stroke-width="3.757" d="M0 0 M-4.073,-22.967 C-1.4770000000000003,-16.113999999999997 4.073,8.893999999999998 -1.108,22.967"></path></g></g><g transform="matrix(1,0,0,1,0,-4)" opacity="1" style="user-select: none;"><g opacity="1" transform="matrix(1,0,0,1,349.373,342.185)"><path fill="rgb(62,9,39)" fill-opacity="1" d="M0 0 M3.058,0.002 C3.058,1.844 1.6909999999999998,3.333 0.001,3.333 C-1.6900000000000002,3.333 -3.057,1.844 -3.057,0.002 C-3.057,-1.836 -1.6900000000000002,-3.333 0.001,-3.333 C1.6909999999999998,-3.333 3.058,-1.836 3.058,0.002z"></path></g><g opacity="1" transform="matrix(1,0,0,1,372.99,338.296)"><path fill="rgb(62,9,39)" fill-opacity="1" d="M0 0 M3.055,0 C3.055,1.84 1.686,3.333 0,3.333 C-1.687,3.333 -3.055,1.84 -3.055,0 C-3.055,-1.84 -1.687,-3.333 0,-3.333 C1.686,-3.333 3.055,-1.84 3.055,0z"></path></g></g><g transform="matrix(1,0,0,1,0,-4)" opacity="1" style="user-select: none;"><g opacity="1" transform="matrix(1,0,0,1,226.848,342.56)"><path fill="rgb(240,134,159)" fill-opacity="1" d="M0 0 M24.466,-0.781 C23.332,-7.436999999999999 12.015,-13.838 -0.436,-12.796 C-11.1,-11.899999999999999 -26.241,-0.7809999999999997 -17.341,6.529 C-8.445,13.838000000000001 26.241,9.661 24.466,-0.781z"></path></g></g><g transform="matrix(1,0,0,1,0,-4)" opacity="1" style="user-select: none;"><g opacity="1" transform="matrix(1,0,0,1,415.233,308.011)"><path fill="rgb(240,134,159)" fill-opacity="1" d="M0 0 M-20.016,0.833 C-21.659999999999997,-3.8899999999999997 -6.68,-12.501999999999999 3.324,-13.056 C13.324,-13.614999999999998 21.661,-6.3919999999999995 14.438,1.389 C8.328,7.965 -15.569999999999999,13.614 -20.016,0.833z"></path></g></g><g transform="matrix(1,0,0,1,0,0)" opacity="1" style="user-select: none;"><g opacity="1" transform="matrix(1,0,0,1,218.236,279.117)"><path fill="rgb(248,174,198)" fill-opacity="1" d="M0 0 M39.176,0 C39.176,21.639 21.636000000000003,39.177 0.001,39.177 C-21.637999999999998,39.177 -39.175,21.639 -39.175,0 C-39.175,-21.64 -21.637999999999998,-39.176 0.001,-39.176 C21.636000000000003,-39.176 39.176,-21.64 39.176,0z"></path></g><g opacity="1" transform="matrix(1,0,0,1,230.182,278.285)"><path fill="rgb(255,255,255)" fill-opacity="1" d="M0 0 M37.786,0.001 C37.786,20.867 20.87,37.785 0,37.785 C-20.872,37.785 -37.786,20.867 -37.786,0.001 C-37.786,-20.871 -20.872,-37.785 0,-37.785 C20.87,-37.785 37.786,-20.871 37.786,0.001z"></path></g><g opacity="1" transform="matrix(1,0,0,1,229.068,277.727)"><path fill="rgb(0,0,0)" fill-opacity="1" d="M0 0 M-7.357,0.002 C-7.357,4.06 -4.061999999999999,7.354 0.001,7.354 C4.062,7.354 7.357,4.06 7.357,0.002 C7.357,-4.062 4.062,-7.353 0.001,-7.353 C-4.061999999999999,-7.353 -7.357,-4.062 -7.357,0.002z"></path></g><g opacity="1" transform="matrix(1,0,0,1,224.606,279.612)"><path fill="rgb(219,37,119)" fill-opacity="0.15" d="M0 0 M18.357,28.119 C-2.5150000000000006,28.119 -19.43,11.203 -19.43,-9.663 C-19.43,-20.141 -15.167,-29.613999999999997 -8.283,-36.458 C-22.288,-30.924999999999997 -32.21,-17.301 -32.21,-1.326 C-32.21,19.54 -15.296,36.458 5.576,36.458 C15.971,36.458 25.378,32.258 32.21,25.465 C27.918,27.162 23.256,28.119 18.357,28.119z"></path></g><g opacity="1" transform="matrix(1,0,0,1,230.182,278.285)"><path stroke-linecap="round" stroke-linejoin="round" fill-opacity="0" stroke="rgb(62,9,39)" stroke-opacity="1" stroke-width="3.757" d="M0 0 M37.786,0.001 C37.786,20.867 20.87,37.785 0,37.785 C-20.872,37.785 -37.786,20.867 -37.786,0.001 C-37.786,-20.871 -20.872,-37.785 0,-37.785 C20.87,-37.785 37.786,-20.871 37.786,0.001z"></path></g></g><g transform="matrix(1,0,0,1,0,-10)" opacity="1" style="user-select: none;"><g opacity="1" transform="matrix(1,0,0,1,215.456,224.661)"><path stroke-linecap="round" stroke-linejoin="round" fill-opacity="0" stroke="rgb(62,9,39)" stroke-opacity="1" stroke-width="3.757" d="M0 0 M-12.502,4.723 C-12.502,4.723 -0.8320000000000007,-3.054 12.503,-4.723"></path></g></g><g transform="matrix(1,0,0,1,0,0)" opacity="1" style="user-select: none;"><g opacity="1" transform="matrix(1,0,0,1,391.052,251.222)"><path fill="rgb(248,174,198)" fill-opacity="1" d="M0 0 M35.844,0 C35.844,19.794 19.794,35.842 -0.002,35.842 C-19.798,35.842 -35.844,19.794 -35.844,0 C-35.844,-19.794 -19.798,-35.842 -0.002,-35.842 C19.794,-35.842 35.844,-19.794 35.844,0z"></path></g><g opacity="1" transform="matrix(1,0,0,1,400.497,248.554)"><path fill="rgb(255,255,255)" fill-opacity="1" d="M0 0 M34.73,0 C34.73,19.179 19.179,34.73 0,34.73 C-19.181,34.73 -34.729,19.179 -34.729,0 C-34.729,-19.179 -19.181,-34.73 0,-34.73 C19.179,-34.73 34.73,-19.179 34.73,0z"></path></g><g opacity="1" transform="matrix(1,0,0,1,402.443,245.496)"><path fill="rgb(0,0,0)" fill-opacity="1" d="M0 0 M-7.358,0.004 C-7.358,4.0649999999999995 -4.065,7.353 -0.003,7.353 C4.061,7.353 7.357,4.0649999999999995 7.357,0.004 C7.357,-4.0600000000000005 4.061,-7.353 -0.003,-7.353 C-4.065,-7.353 -7.358,-4.0600000000000005 -7.358,0.004z"></path></g><g opacity="1" transform="matrix(1,0,0,1,395.869,250.256)"><path fill="rgb(219,37,119)" fill-opacity="0.15" d="M0 0 M15.184,25.246 C-3.9960000000000004,25.246 -19.546,9.699000000000002 -19.546,-9.482 C-19.546,-18.58 -16.016,-26.835 -10.292,-33.027 C-21.994999999999997,-27.444000000000003 -30.102,-15.532 -30.102,-1.702 C-30.102,17.476999999999997 -14.553999999999998,33.027 4.626,33.027 C14.705000000000002,33.027 23.759,28.706 30.102,21.846 C25.575,24.007 20.535,25.246 15.184,25.246z"></path></g><g opacity="1" transform="matrix(1,0,0,1,400.497,248.554)"><path stroke-linecap="round" stroke-linejoin="round" fill-opacity="0" stroke="rgb(62,9,39)" stroke-opacity="1" stroke-width="3.757" d="M0 0 M34.73,0 C34.73,19.179 19.179,34.73 0,34.73 C-19.181,34.73 -34.729,19.179 -34.729,0 C-34.729,-19.179 -19.181,-34.73 0,-34.73 C19.179,-34.73 34.73,-19.179 34.73,0z"></path></g></g><g transform="matrix(1,0,0,1,0,-8)" opacity="1" style="user-select: none;"><g opacity="1" transform="matrix(1,0,0,1,423.206,205.676)"><path stroke-linecap="round" stroke-linejoin="round" fill-opacity="0" stroke="rgb(62,9,39)" stroke-opacity="1" stroke-width="3.757" d="M0 0 M-10.614,-8.449 C-10.614,-8.449 4.795000000000001,-7.0009999999999994 10.614,8.449"></path></g></g><g transform="matrix(1.07,0,0,1.07,-22.63,-22.6883)" opacity="1" style="user-select: none;"><g opacity="1" transform="matrix(1,0,0,1,321.867,418.591)"><path fill="rgb(248,174,198)" fill-opacity="1" d="M0 0 M-23.895,-6.948 C-23.895,-6.948 -14.447000000000001,-1.944 0.001,-1.944 C14.447,-1.944 23.895,-6.948 23.895,-6.948 C23.895,-6.948 12.224,6.947 -2.223,6.947 C-16.669,6.947 -23.895,-6.948 -23.895,-6.948z"></path></g></g><g transform="matrix(1.07,0,0,1.07,-22.63,-26.9683)" opacity="1" style="user-select: none;"><g opacity="1" transform="matrix(1,0,0,1,324.603,381.882)"><path fill="rgb(255,255,255)" fill-opacity="1" d="M0 0 M-49.668,-14.309 C-41.331,-26.438 -29.656,-11.452 -8.935,-7.88 C11.790999999999999,-4.305 33.235,-24.311999999999998 45.384,-16.453 C57.531,-8.591999999999999 37.332,26.437 -1.784,25.712 C-40.378,24.996 -57.531,-2.8739999999999988 -49.668,-14.309z"></path><path stroke-linecap="round" stroke-linejoin="round" fill-opacity="0" stroke="rgb(62,9,39)" stroke-opacity="1" stroke-width="3.757" d="M0 0 M-49.668,-14.309 C-41.331,-26.438 -29.656,-11.452 -8.935,-7.88 C11.790999999999999,-4.305 33.235,-24.311999999999998 45.384,-16.453 C57.531,-8.591999999999999 37.332,26.437 -1.784,25.712 C-40.378,24.996 -57.531,-2.8739999999999988 -49.668,-14.309z"></path></g><g opacity="1" transform="matrix(1,0,0,1,327.792,391.271)"><path fill="rgb(255,255,255)" fill-opacity="1" d="M0 0 M-0.555,-15.745 C-0.555,-15.745 0.554,15.745 0.554,15.745"></path><path stroke-linecap="round" stroke-linejoin="round" fill-opacity="0" stroke="rgb(62,9,39)" stroke-opacity="1" stroke-width="3.757" d="M0 0 M-0.555,-15.745 C-0.555,-15.745 0.554,15.745 0.554,15.745"></path></g><g opacity="1" transform="matrix(1,0,0,1,296.305,384.233)"><path fill="rgb(255,255,255)" fill-opacity="1" d="M0 0 M1.297,-15.004 C1.297,-15.004 -1.297,15.004 -1.297,15.004"></path><path stroke-linecap="round" stroke-linejoin="round" fill-opacity="0" stroke="rgb(62,9,39)" stroke-opacity="1" stroke-width="3.757" d="M0 0 M1.297,-15.004 C1.297,-15.004 -1.297,15.004 -1.297,15.004"></path></g><g opacity="1" transform="matrix(1,0,0,1,352.986,381.825)"><path fill="rgb(255,255,255)" fill-opacity="1" d="M0 0 M-4.26,-14.076 C-4.26,-14.076 4.26,14.076 4.26,14.076"></path><path stroke-linecap="round" stroke-linejoin="round" fill-opacity="0" stroke="rgb(62,9,39)" stroke-opacity="1" stroke-width="3.757" d="M0 0 M-4.26,-14.076 C-4.26,-14.076 4.26,14.076 4.26,14.076"></path></g></g><g transform="matrix(1,0,0,1,0,0)" opacity="1" style="user-select: none;"><g opacity="1" transform="matrix(1,0,0,1,126.829,188.821)"><path fill="rgb(37,223,237)" fill-opacity="1" d="M0 0 M63.345,-82.238 C63.345,-82.238 6.292000000000002,-86.686 -32.973,-40.008 C-72.238,6.668999999999997 -76.684,86.686 -76.684,86.686 C-76.684,86.686 -64.09,60.753 -41.122,54.828 C-18.155,48.900000000000006 15.929000000000002,47.418 43.34,31.12 C70.754,14.819000000000003 76.684,-2.966 76.684,-2.966"></path></g><g opacity="1" transform="matrix(1,0,0,1,233.887,147.702)"><path fill="rgb(255,221,47)" fill-opacity="1" d="M0 0 M-1.508,-57.42 C-1.508,-57.42 -34.824,-65.57000000000001 -46.675,-31.489 C-58.532,2.5920000000000023 -39.281,40.372 -4.446,52.974 C30.377000000000002,65.57 55.568,63.345 55.568,63.345 C55.568,63.345 58.532,53.712999999999994 55.568,47.047"></path></g><g opacity="1" transform="matrix(1,0,0,1,120.159,190.108)"><path fill="rgb(66,137,239)" fill-opacity="1" d="M0 0 M69.48,-83.557 C63.751000000000005,-83.863 10.8,-85.398 -26.303,-41.294 C-65.568,5.382000000000005 -70.014,85.398 -70.014,85.398 C-70.014,85.398 -69.623,84.598 -68.872,83.266 C-46.238,36.419000000000004 2.0479999999999983,10.005 25.56,-15.365 C53.714,-45.743 70.014,-79.825 70.014,-79.825 C70.014,-79.825 69.48,-83.557 69.48,-83.557z"></path></g><g opacity="1" transform="matrix(1,0,0,1,120.352,188.821)"><path fill="rgb(199,87,253)" fill-opacity="1" d="M0 0 M69.822,-82.238 C69.822,-82.238 12.769000000000002,-86.686 -26.496,-40.008 C-65.761,6.668999999999997 -70.207,86.686 -70.207,86.686 C-70.207,86.686 -68.523,83.227 -65.276,78.549 C-56.065,50.65200000000001 -38.446,16.93 -12.42,-13.335 C15.283,-45.547000000000004 59.212999999999994,-73.26499999999999 70.207,-79.954 C70.207,-79.954 69.822,-82.238 69.822,-82.238z"></path></g><g opacity="1" transform="matrix(1,0,0,1,120.516,185.921)"><path fill="rgb(232,68,121)" fill-opacity="1" d="M0 0 M69.659,-79.338 C69.659,-79.338 12.605,-83.786 -26.66,-37.108 C-59.589,2.0360000000000014 -68.026,64.601 -69.893,83.786 C-62.464,51.862 -44.07,5.946999999999999 -18.511,-23.773 C9.895,-56.80200000000001 59.478,-74.506 69.893,-77.961 C69.893,-77.961 69.659,-79.338 69.659,-79.338z"></path></g><g opacity="1" transform="matrix(1,0,0,1,126.829,214.753)"><path fill="rgb(16,206,221)" fill-opacity="1" d="M0 0 M23.334,-8.89 C-4.806000000000001,6.8149999999999995 -54.888999999999996,10.990000000000002 -76.41,57.18 C-76.61399999999999,59.486 -76.684,60.754 -76.684,60.754 C-76.684,60.754 -64.089,34.821 -41.122,28.896 C-18.155,22.967 15.929000000000002,21.485 43.34,5.188 C70.754,-11.113 76.684,-28.898 76.684,-28.898 C76.684,-28.898 72.005,-56.71 72.005,-56.71 C72.005,-56.71 64.826,-60.754 64.826,-60.754 C64.826,-60.754 55.19,-26.674 23.334,-8.89z"></path></g><g opacity="1" transform="matrix(1,0,0,1,230.242,150.366)"><path fill="rgb(234,162,49)" fill-opacity="1" d="M0 0 M-0.801,50.309 C25.478,59.815999999999995 46.265,60.883 54.886,60.835 C16.826,55.639 -26.393,29.305000000000003 -32.848,-9.892 C-40.069,-53.788 -1.172,-59.901 -1.172,-59.901 C-1.172,-59.901 -8.6,-60.883 -8.6,-60.883 C-19.41,-60.382000000000005 -35.526,-55.743 -43.03,-34.154 C-54.886,-0.0730000000000004 -35.636,37.706999999999994 -0.801,50.309z"></path></g><g opacity="1" transform="matrix(1,0,0,1,247.898,150.244)"><path fill="rgb(146,244,69)" fill-opacity="1" d="M0 0 M-15.519,-59.963 C-15.519,-59.963 -17.060000000000002,-60.339 -19.591,-60.592 C-26.802,-57.933 -44.273,-47.524 -39.389,-9.769 C-34.144000000000005,30.732 9.898000000000003,53.242 41.618,60.592 C42.011,59.207 44.273,50.616 41.557,44.505 C41.557,44.505 -15.519,-59.963 -15.519,-59.963z"></path></g><g opacity="1" transform="matrix(1,0,0,1,249.59,146.714)"><path fill="rgb(121,213,39)" fill-opacity="1" d="M0 0 M-17.21,-56.433 C-17.21,-56.433 -18.18,-56.665000000000006 -19.825,-56.889 C-26.677999999999997,-52.67400000000001 -41.29,-38.648 -29.965,0.982 C-19.104,39.003 21.590999999999998,52.519000000000005 41.126,56.889 C41.288999999999994,54.016000000000005 41.086,50.777 39.865,48.034 C39.865,48.034 -17.21,-56.433 -17.21,-56.433z"></path></g><g opacity="1" transform="matrix(1,0,0,1,301.971,133.625)"><path fill="rgb(37,223,237)" fill-opacity="1" d="M0 0 M-69.591,-43.343 C-40.29599999999999,-76.685 9.398999999999994,-56.53 43.053,-32.972 C87.502,-1.8540000000000028 93.438,65.608 93.438,65.608 C93.438,65.608 18.605999999999998,76.685 -29.557,55.196 C-77.716,33.709 -93.437,-16.203000000000003 -69.591,-43.343z"></path></g><g opacity="1" transform="matrix(1,0,0,1,318.689,130.3)"><path fill="rgb(120,249,190)" fill-opacity="1" d="M0 0 M26.335,-29.647 C-3.881999999999998,-50.796 -47.01499999999999,-69.176 -76.719,-48.59 C-59.641999999999996,-49.056000000000004 -24.854,-45.556 7.069,-14.828 C42.425000000000004,19.201000000000004 66.52,55.665000000000006 74.898,69.176 C76.076,69.026 76.719,68.933 76.719,68.933 C76.719,68.933 70.78399999999999,1.471 26.335,-29.647z"></path></g><g opacity="1" transform="matrix(1,0,0,1,301.971,150.057)"><path fill="rgb(0,185,199)" fill-opacity="1" d="M0 0 M93.438,49.175 C93.438,49.175 93.381,48.661 93.285,47.775 C49.812,45.409 4.579000000000001,38.006 -25.113,17.645 C-49.885999999999996,0.6580000000000013 -62.928000000000004,-35.917 -69.141,-60.253 C-69.289,-60.091 -69.443,-59.947 -69.592,-59.776 C-93.438,-32.636 -77.716,17.276999999999997 -29.557,38.763 C18.605999999999998,60.251999999999995 93.438,49.175 93.438,49.175z"></path></g><g opacity="1" transform="matrix(1,0,0,1,301.971,133.625)"><path stroke-linecap="round" stroke-linejoin="round" fill-opacity="0" stroke="rgb(13,88,126)" stroke-opacity="1" stroke-width="3.757" d="M0 0 M-69.591,-43.343 C-40.29599999999999,-76.685 9.398999999999994,-56.53 43.053,-32.972 C87.502,-1.8540000000000028 93.438,65.608 93.438,65.608 C93.438,65.608 18.605999999999998,76.685 -29.557,55.196 C-77.716,33.709 -93.437,-16.203000000000003 -69.591,-43.343z"></path></g><g opacity="1" transform="matrix(1,0,0,1,0,0)"><path fill="rgb(13,88,126)" fill-opacity="0.33" d="M0 0 M87.5,158.25 C84.75,159.5 74.5,180 74.5,180 C74.5,180 91.25,182.25 107.75,180.75 C124.25,179.25 137.25,176.25 137.25,176.25 C137.25,176.25 90.25,157 87.5,158.25z"></path></g><g opacity="1" transform="matrix(1,0,0,1,233.887,147.702)"><path stroke-linecap="round" stroke-linejoin="round" fill-opacity="0" stroke="rgb(13,88,126)" stroke-opacity="1" stroke-width="3.757" d="M0 0 M-1.508,-57.42 C-1.508,-57.42 -34.824,-65.57000000000001 -46.675,-31.489 C-58.532,2.5920000000000023 -39.281,40.372 -4.446,52.974 C30.377000000000002,65.57 55.568,63.345 55.568,63.345 C55.568,63.345 58.532,53.712999999999994 55.568,47.047"></path></g><g opacity="1" transform="matrix(1,0,0,1,126.829,188.821)"><path stroke-linecap="round" stroke-linejoin="round" fill-opacity="0" stroke="rgb(13,88,126)" stroke-opacity="1" stroke-width="3.757" d="M0 0 M63.345,-82.238 C63.345,-82.238 6.292000000000002,-86.686 -32.973,-40.008 C-72.238,6.668999999999997 -76.684,86.686 -76.684,86.686 C-76.684,86.686 -64.09,60.753 -41.122,54.828 C-18.155,48.900000000000006 15.929000000000002,47.418 43.34,31.12 C70.754,14.819000000000003 76.684,-2.966 76.684,-2.966"></path></g></g><g transform="matrix(0.9903,-0.1392,0.1392,0.9903,-19.7918,20.9635)" opacity="1" style="user-select: none;"><g opacity="1" transform="matrix(1,0,0,1,101.021,127.975)"><path fill="rgb(255,210,217)" fill-opacity="1" d="M0 0 M54.691,16.39 C54.691,16.39 45.242000000000004,3.052999999999999 38.576,-8.057 C31.905,-19.171 13.012,-47.51 -12.549,-43.622 C-38.111999999999995,-39.733 -54.691,2.5740000000000016 -20.882,26.393 C3.567,43.617000000000004 37.462,47.51 37.462,47.51"></path></g><g opacity="1" transform="matrix(1,0,0,1,99.093,137.766)"><path fill="rgb(250,184,203)" fill-opacity="1" d="M0 0 M-5.236,11.048 C-25.707,-2.4320000000000004 -31.034000000000002,-24.651000000000003 -32.331,-37.718 C-41.611000000000004,-22.237000000000002 -40.967,1.0969999999999995 -18.954,16.602 C5.495000000000001,33.826 39.389,37.718 39.389,37.718 C39.389,37.718 41.611,33.705 41.611,33.705 C34.074999999999996,31.592 17.025,25.704 -5.236,11.048z"></path></g><g opacity="1" transform="matrix(1,0,0,1,116.825,139.639)"><path fill="rgb(241,150,168)" fill-opacity="1" d="M0 0 M31.674,14.728 C22.227,6.951 -1.6690000000000023,-26.95 -16.67,-19.165 C-31.674,-11.387 -20.562,4.725999999999999 -3.892,14.174 C12.780000000000001,23.619 25.969,26.951 25.969,26.951"></path></g><g opacity="1" transform="matrix(1,0,0,1,101.021,127.975)"><path stroke-linecap="round" stroke-linejoin="round" fill-opacity="0" stroke="rgb(62,9,39)" stroke-opacity="1" stroke-width="3.757" d="M0 0 M56.462,18.154 C56.462,18.154 45.242000000000004,3.052999999999999 38.576,-8.057 C31.905,-19.171 13.012,-47.51 -12.549,-43.622 C-38.111999999999995,-39.733 -54.691,2.5740000000000016 -20.882,26.393 C3.567,43.617000000000004 34.03,46.775 34.03,46.775"></path></g></g><g transform="matrix(1,0,0,1,0,0)" opacity="1" style="user-select: none;"><g opacity="1" transform="matrix(1,0,0,1,147.374,162.705)"><path stroke-linecap="round" stroke-linejoin="round" fill-opacity="0" stroke="rgb(13,88,126)" stroke-opacity="1" stroke-width="3.757" d="M0 0 M11.669,-21.672 C11.669,-21.672 -6.6690000000000005,5.554000000000002 -11.669,21.672"></path></g></g><g transform="matrix(1,0,0,1,0,0)" opacity="1" style="user-select: none;"><g opacity="1" transform="matrix(1,0,0,1,299.866,89.219)"><path fill="rgb(255,255,255)" fill-opacity="1" d="M0 0 M-30.927,55.717 C-17.616999999999997,64.03 5.5120000000000005,72.371 15.779,41.032 C26.033,9.695999999999998 37.682,-29.689 42.707,-46.753 C47.737,-63.823 38.182,-72.371 25.115,-56.693 C12.054999999999998,-41.027 -26.36,5.450999999999999 -33.452,14.562 C-40.555,23.689 -47.736999999999995,45.21 -30.927,55.717z"></path></g><g opacity="1" transform="matrix(1,0,0,1,293.342,90.595)"><path fill="rgb(215,213,213)" fill-opacity="1" d="M0 0 M9.547,58.655 C-11.437999999999999,55.06 -24.276,35.396 -15.956,20.84 C-8.202,7.24 26.915999999999997,-44.705999999999996 41.214,-65.761 C38.422,-64.75099999999999 35.165,-62.303000000000004 31.638,-58.069 C18.578000000000003,-42.403000000000006 -19.835,4.074 -26.928,13.185 C-34.03,22.312 -41.214,43.834 -24.404,54.341 C-15.263,60.044000000000004 -1.5099999999999998,65.761 9.547,58.655z"></path></g><g opacity="1" transform="matrix(1,0,0,1,321.541,60.418)"><path stroke-linecap="round" stroke-linejoin="round" fill-opacity="0" stroke="rgb(62,9,39)" stroke-opacity="1" stroke-width="3.757" d="M0 0 M-16.685,-3.625 C-16.685,-3.625 -0.6270000000000024,3.625 16.685,-3.263"></path></g><g opacity="1" transform="matrix(1,0,0,1,305.506,91.185)"><path stroke-linecap="round" stroke-linejoin="round" fill-opacity="0" stroke="rgb(62,9,39)" stroke-opacity="1" stroke-width="3.757" d="M0 0 M-22.606,-7.731 C-22.606,-7.731 -5.152999999999999,7.73 22.606,-3.975"></path></g><g opacity="1" transform="matrix(1,0,0,1,290.746,122.18)"><path stroke-linecap="round" stroke-linejoin="round" fill-opacity="0" stroke="rgb(62,9,39)" stroke-opacity="1" stroke-width="3.757" d="M0 0 M-28.724,-10.924 C-28.724,-10.924 -1.3640000000000008,10.923 28.724,-3.798"></path></g><g opacity="1" transform="matrix(1,0,0,1,299.866,89.219)"><path stroke-linecap="round" stroke-linejoin="round" fill-opacity="0" stroke="rgb(62,9,39)" stroke-opacity="1" stroke-width="3.757" d="M0 0 M-30.927,55.717 C-17.616999999999997,64.03 5.5120000000000005,72.371 15.779,41.032 C26.033,9.695999999999998 37.682,-29.689 42.707,-46.753 C47.737,-63.823 38.182,-72.371 25.115,-56.693 C12.054999999999998,-41.027 -26.36,5.450999999999999 -33.452,14.562 C-40.555,23.689 -47.736999999999995,45.21 -30.927,55.717z"></path></g></g><g transform="matrix(1,0,0,1,0,0)" opacity="1" style="user-select: none;"><g opacity="1" transform="matrix(1,0,0,1,234.766,423.136)"><path fill="rgb(255,210,217)" fill-opacity="1" d="M0 0 M30.234,51.864 C41.905,45.939 44.315,27.130000000000003 40.424,24.905 C36.536,22.683 30.979,23.518 30.979,23.518 C30.979,23.518 35.146,15.739 35.146,15.739 C35.146,15.739 44.037,-2.5980000000000008 34.033,-12.045 C24.036,-21.491 10.975999999999999,-21.491 6.529,-18.994 C2.083,-16.491 -0.974,-12.325 -0.974,-12.325 C-0.974,-12.325 3.199,-38.442 -3.753,-49.277 C-10.696,-60.114000000000004 -19.587,-59.278 -23.197,-56.222 C-26.81,-53.167 -29.868,-50.665 -29.868,-50.665 C-29.868,-50.665 -36.536,-50.946999999999996 -40.426,-48.163 C-44.315000000000005,-45.385999999999996 -29.766,34.364 -29.766,34.364 C-29.766,34.364 -4.766,56.364 -4.766,56.364 C-4.766,56.364 13.984000000000002,60.114 30.234,51.864z"></path></g><g opacity="1" transform="matrix(1,0,0,1,193.228,409.7)"><path fill="rgb(248,174,198)" fill-opacity="1" d="M0 0 M5.002,-35.841 C5.002,-35.841 1.3920000000000003,-29.45 6.115,-11.113 C10.835,7.225000000000001 10.56,14.728000000000002 8.614,22.506 C6.6690000000000005,30.282 -3.612,35.841 -3.612,35.841 C-3.612,35.841 7.779,16.947000000000003 1.392,-2.775 C-5,-22.503999999999998 -10.835,-26.948 5.002,-35.841z"></path></g><g opacity="1" transform="matrix(1,0,0,1,247.824,440.541)"><path fill="rgb(248,174,198)" fill-opacity="1" d="M0 0 M16.811,5.834 C16.811,5.834 3.7510000000000003,19.171 -6.528,15.004 C-16.811,10.832999999999998 -16.811,-3.612 -10.14,-10.837 C-3.4720000000000004,-18.061 5.694999999999999,-19.171 7.64,-10.837 C9.587,-2.5009999999999994 16.811,5.834 16.811,5.834z"></path></g><g opacity="1" transform="matrix(1,0,0,1,243.658,438.042)"><path fill="rgb(248,174,198)" fill-opacity="1" d="M0 0 M15.415,-0.001 C15.415,-0.001 20.977,-20.562 4.305,-21.949 C-12.363,-23.338 -20.976999999999997,-1.1129999999999995 -16.81,11.108 C-12.645999999999999,23.338 8.473,18.336 8.473,18.336 C8.473,18.336 -11.807,18.337 -10.976,0.276 C-10.142000000000001,-17.784 2.6380000000000003,-18.060000000000002 6.53,-13.06 C10.415,-8.058 15.415,-6.949000000000001 15.415,-0.001z"></path></g><g opacity="1" transform="matrix(1,0,0,1,0,0)"><path fill="rgb(250,184,203)" fill-opacity="1" d="M0 0 M275.875,449 C275.875,449 273.25,457.25 260,464 C246.75,470.75 222.25,470 217.5,470.75 C212.75,471.5 212,473.5 212.25,476.25 C212.5,479 218.75,479 226,477.75 C233.25,476.5 238,482.25 247.625,481 C257.25,479.75 270.625,473.375 274.25,464.125 C277.875,454.875 275.875,449 275.875,449z"></path></g><g opacity="1" transform="matrix(1,0,0,1,237.719,443.275)"><path stroke-linecap="round" stroke-linejoin="round" fill-opacity="0" stroke="rgb(62,9,39)" stroke-opacity="1" stroke-width="3.757" d="M0 0 M-8.96,-25.845 C-8.96,-25.845 -0.375,-43.018 15.477,-41.698 C31.332,-40.376 39.92,-19.903 34.635,-8.008 C29.351,3.8790000000000013 19.443,-1.407 19.443,-9.992 C19.443,-18.578000000000003 7.978999999999999,-24.35 1.613,-16.602 C-4.760999999999999,-8.847000000000001 -5.714,1.3239999999999998 -3.014,6.518 C-0.3139999999999996,11.712 7.167000000000002,16.236 15.742,11.456 C23.408,7.178 27.366999999999997,-0.746 35.294,2.553 C43.218999999999994,5.856 40.221000000000004,25.808 22.842,34.497 C5.800999999999998,43.016999999999996 -8.092,36.163 -8.092,36.163"></path></g><g opacity="1" transform="matrix(1,0,0,1,214.762,386.086)"><path fill="rgb(248,174,198)" fill-opacity="1" d="M0 0 M7.92,-18.616 C7.92,-18.616 7.669,-18.554 7.292,-18.389 C5.712,-17.686999999999998 1.8389999999999995,-15.131 4.31,-7.502 C7.362,1.9460000000000006 6.805,26.394 6.805,26.394 C6.805,26.394 4.029,4.17 -0.973,-3.057 C-5.973,-10.284 -7.919,-13.337 -7.919,-13.337 C-7.919,-13.337 -2.917,-26.394 7.92,-18.616z"></path></g><g opacity="1" transform="matrix(1,0,0,1,201.121,407.227)"><path stroke-linecap="round" stroke-linejoin="round" fill-opacity="0" stroke="rgb(62,9,39)" stroke-opacity="1" stroke-width="3.757" d="M0 0 M-10.414,37.076 C-1.4879999999999995,27.837 -2.7060000000000013,4.473000000000001 -10.96,-9.273 C-19.209000000000003,-23.017 -9.302999999999999,-37.076 1.413,-35.391 C12.123000000000001,-33.711999999999996 17.625,-8.959 19.21,5.432"></path></g><g opacity="1" transform="matrix(1,0,0,1,220.908,386.871)"><path stroke-linecap="round" stroke-linejoin="round" fill-opacity="0" stroke="rgb(62,9,39)" stroke-opacity="1" stroke-width="3.757" d="M0 0 M-13.285,-14.354 C-9.982,-21.619999999999997 -4.037000000000001,-24.921 3.887,-19.639 C11.815,-14.354 11.815000000000001,-3.1260000000000003 12.473,6.124 C13.284,17.476 12.876999999999999,14.001 11.151,24.921"></path></g></g><g transform="matrix(0.6445,0.4027,-0.4027,0.6445,214.0437,-58.8673)" opacity="1" style="user-select: none;"><g opacity="1" transform="matrix(1,0,0,1,251.667,37.763)"><path fill="rgb(255,230,51)" fill-opacity="1" d="M0 0 M-3.103,-20.663 C-3.103,-20.663 5.854,-9.249 5.854,-9.249 C5.854,-9.249 20.336,-10.158 20.336,-10.158 C20.336,-10.158 12.251,1.889 12.251,1.889 C12.251,1.889 17.595,15.382 17.595,15.382 C17.595,15.382 3.636,11.415 3.636,11.415 C3.636,11.415 -7.547,20.663 -7.547,20.663 C-7.547,20.663 -8.087,6.163 -8.087,6.163 C-8.087,6.163 -20.336,-1.612 -20.336,-1.612 C-20.336,-1.612 -6.713,-6.607 -6.713,-6.607 C-6.713,-6.607 -3.103,-20.663 -3.103,-20.663z"></path></g></g><g transform="matrix(1,0,0,1,-8.9696,-3.451)" opacity="1" style="user-select: none;"><g opacity="1" transform="matrix(1,0,0,1,251.667,37.763)"><path fill="rgb(255,230,51)" fill-opacity="1" d="M0 0 M-3.103,-20.663 C-3.103,-20.663 5.854,-9.249 5.854,-9.249 C5.854,-9.249 20.336,-10.158 20.336,-10.158 C20.336,-10.158 12.251,1.889 12.251,1.889 C12.251,1.889 17.595,15.382 17.595,15.382 C17.595,15.382 3.636,11.415 3.636,11.415 C3.636,11.415 -7.547,20.663 -7.547,20.663 C-7.547,20.663 -8.087,6.163 -8.087,6.163 C-8.087,6.163 -20.336,-1.612 -20.336,-1.612 C-20.336,-1.612 -6.713,-6.607 -6.713,-6.607 C-6.713,-6.607 -3.103,-20.663 -3.103,-20.663z"></path></g></g></g></svg>